  0
SECTION
  2
HEADER
  9
$ACADVER
  1
AC1015
  9
$ACADMAINTVER
 70
    20
  9
$DWGCODEPAGE
  3
ANSI_1251
  9
$INSBASE
 10
0.0
 20
0.0
 30
0.0
  9
$EXTMIN
 10
348.5251927395784
 20
155.7551569615962
 30
0.0
  9
$EXTMAX
 10
459.0251927395784
 20
226.2551569615963
 30
0.0
  9
$LIMMIN
 10
0.0
 20
0.0
  9
$LIMMAX
 10
420.0
 20
297.0
  9
$ORTHOMODE
 70
     1
  9
$REGENMODE
 70
     1
  9
$FILLMODE
 70
     1
  9
$QTEXTMODE
 70
     0
  9
$MIRRTEXT
 70
     0
  9
$LTSCALE
 40
1.0
  9
$ATTMODE
 70
     1
  9
$TEXTSIZE
 40
2.5
  9
$TRACEWID
 40
1.0
  9
$TEXTSTYLE
  7
Standard
  9
$CLAYER
  8
0
  9
$CELTYPE
  6
ByLayer
  9
$CECOLOR
 62
   256
  9
$CELTSCALE
 40
1.0
  9
$DISPSILH
 70
     0
  9
$DIMSCALE
 40
1.0
  9
$DIMASZ
 40
5.0
  9
$DIMEXO
 40
0.0
  9
$DIMDLI
 40
3.75
  9
$DIMRND
 40
0.0
  9
$DIMDLE
 40
0.0
  9
$DIMEXE
 40
1.25
  9
$DIMTP
 40
0.0
  9
$DIMTM
 40
0.0
  9
$DIMTXT
 40
2.5
  9
$DIMCEN
 40
2.5
  9
$DIMTSZ
 40
0.0
  9
$DIMTOL
 70
     0
  9
$DIMLIM
 70
     0
  9
$DIMTIH
 70
     0
  9
$DIMTOH
 70
     0
  9
$DIMSE1
 70
     0
  9
$DIMSE2
 70
     0
  9
$DIMTAD
 70
     1
  9
$DIMZIN
 70
     8
  9
$DIMBLK
  1

  9
$DIMASO
 70
     1
  9
$DIMSHO
 70
     1
  9
$DIMPOST
  1

  9
$DIMAPOST
  1

  9
$DIMALT
 70
     0
  9
$DIMALTD
 70
     3
  9
$DIMALTF
 40
0.03937007874016
  9
$DIMLFAC
 40
1.0
  9
$DIMTOFL
 70
     1
  9
$DIMTVP
 40
0.0
  9
$DIMTIX
 70
     0
  9
$DIMSOXD
 70
     0
  9
$DIMSAH
 70
     0
  9
$DIMBLK1
  1

  9
$DIMBLK2
  1

  9
$DIMSTYLE
  2
ISO-25
  9
$DIMCLRD
 70
     0
  9
$DIMCLRE
 70
     0
  9
$DIMCLRT
 70
     0
  9
$DIMTFAC
 40
1.0
  9
$DIMGAP
 40
0.625
  9
$DIMJUST
 70
     0
  9
$DIMSD1
 70
     0
  9
$DIMSD2
 70
     0
  9
$DIMTOLJ
 70
     0
  9
$DIMTZIN
 70
     8
  9
$DIMALTZ
 70
     0
  9
$DIMALTTZ
 70
     0
  9
$DIMUPT
 70
     0
  9
$DIMDEC
 70
     2
  9
$DIMTDEC
 70
     2
  9
$DIMALTU
 70
     2
  9
$DIMALTTD
 70
     3
  9
$DIMTXSTY
  7
Standard
  9
$DIMAUNIT
 70
     0
  9
$DIMADEC
 70
     0
  9
$DIMALTRND
 40
0.0
  9
$DIMAZIN
 70
     0
  9
$DIMDSEP
 70
    44
  9
$DIMATFIT
 70
     3
  9
$DIMFRAC
 70
     0
  9
$DIMLDRBLK
  1

  9
$DIMLUNIT
 70
     2
  9
$DIMLWD
 70
    -2
  9
$DIMLWE
 70
    -2
  9
$DIMTMOVE
 70
     0
  9
$LUNITS
 70
     2
  9
$LUPREC
 70
     4
  9
$SKETCHINC
 40
1.0
  9
$FILLETRAD
 40
0.0
  9
$AUNITS
 70
     0
  9
$AUPREC
 70
     0
  9
$MENU
  1
.
  9
$ELEVATION
 40
0.0
  9
$PELEVATION
 40
0.0
  9
$THICKNESS
 40
0.0
  9
$LIMCHECK
 70
     0
  9
$CHAMFERA
 40
0.0
  9
$CHAMFERB
 40
0.0
  9
$CHAMFERC
 40
0.0
  9
$CHAMFERD
 40
0.0
  9
$SKPOLY
 70
     0
  9
$TDCREATE
 40
2456777.606714040
  9
$TDUCREATE
 40
2456777.481714040
  9
$TDUPDATE
 40
2456777.977337963
  9
$TDUUPDATE
 40
2456777.852337963
  9
$TDINDWG
 40
0.0982548495
  9
$TDUSRTIMER
 40
0.0982546644
  9
$USRTIMER
 70
     1
  9
$ANGBASE
 50
0.0
  9
$ANGDIR
 70
     0
  9
$PDMODE
 70
     0
  9
$PDSIZE
 40
0.0
  9
$PLINEWID
 40
0.0
  9
$SPLFRAME
 70
     0
  9
$SPLINETYPE
 70
     6
  9
$SPLINESEGS
 70
     8
  9
$HANDSEED
  5
83F
  9
$SURFTAB1
 70
     6
  9
$SURFTAB2
 70
     6
  9
$SURFTYPE
 70
     6
  9
$SURFU
 70
     6
  9
$SURFV
 70
     6
  9
$UCSBASE
  2

  9
$UCSNAME
  2

  9
$UCSORG
 10
0.0
 20
0.0
 30
0.0
  9
$UCSXDIR
 10
1.0
 20
0.0
 30
0.0
  9
$UCSYDIR
 10
0.0
 20
1.0
 30
0.0
  9
$UCSORTHOREF
  2

  9
$UCSORTHOVIEW
 70
     0
  9
$UCSORGTOP
 10
0.0
 20
0.0
 30
0.0
  9
$UCSORGBOTTOM
 10
0.0
 20
0.0
 30
0.0
  9
$UCSORGLEFT
 10
0.0
 20
0.0
 30
0.0
  9
$UCSORGRIGHT
 10
0.0
 20
0.0
 30
0.0
  9
$UCSORGFRONT
 10
0.0
 20
0.0
 30
0.0
  9
$UCSORGBACK
 10
0.0
 20
0.0
 30
0.0
  9
$PUCSBASE
  2

  9
$PUCSNAME
  2

  9
$PUCSORG
 10
0.0
 20
0.0
 30
0.0
  9
$PUCSXDIR
 10
1.0
 20
0.0
 30
0.0
  9
$PUCSYDIR
 10
0.0
 20
1.0
 30
0.0
  9
$PUCSORTHOREF
  2

  9
$PUCSORTHOVIEW
 70
     0
  9
$PUCSORGTOP
 10
0.0
 20
0.0
 30
0.0
  9
$PUCSORGBOTTOM
 10
0.0
 20
0.0
 30
0.0
  9
$PUCSORGLEFT
 10
0.0
 20
0.0
 30
0.0
  9
$PUCSORGRIGHT
 10
0.0
 20
0.0
 30
0.0
  9
$PUCSORGFRONT
 10
0.0
 20
0.0
 30
0.0
  9
$PUCSORGBACK
 10
0.0
 20
0.0
 30
0.0
  9
$USERI1
 70
     0
  9
$USERI2
 70
     0
  9
$USERI3
 70
     0
  9
$USERI4
 70
     0
  9
$USERI5
 70
     0
  9
$USERR1
 40
0.0
  9
$USERR2
 40
0.0
  9
$USERR3
 40
0.0
  9
$USERR4
 40
0.0
  9
$USERR5
 40
0.0
  9
$WORLDVIEW
 70
     1
  9
$SHADEDGE
 70
     3
  9
$SHADEDIF
 70
    70
  9
$TILEMODE
 70
     0
  9
$MAXACTVP
 70
    64
  9
$PINSBASE
 10
0.0
 20
0.0
 30
0.0
  9
$PLIMCHECK
 70
     0
  9
$PEXTMIN
 10
29.06606628894805
 20
20.36656677722931
 30
0.0
  9
$PEXTMAX
 10
261.5945966005325
 20
183.2991009950638
 30
0.0
  9
$PLIMMIN
 10
-3.17498779296875
 20
-3.174999952316284
  9
$PLIMMAX
 10
293.8356628417969
 20
206.8406708240509
  9
$UNITMODE
 70
     0
  9
$VISRETAIN
 70
     1
  9
$PLINEGEN
 70
     0
  9
$PSLTSCALE
 70
     1
  9
$TREEDEPTH
 70
  3020
  9
$CMLSTYLE
  2
Standard
  9
$CMLJUST
 70
     0
  9
$CMLSCALE
 40
20.0
  9
$PROXYGRAPHICS
 70
     1
  9
$MEASUREMENT
 70
     1
  9
$CELWEIGHT
370
    -1
  9
$ENDCAPS
280
     0
  9
$JOINSTYLE
280
     0
  9
$LWDISPLAY
290
     0
  9
$INSUNITS
 70
     4
  9
$HYPERLINKBASE
  1

  9
$STYLESHEET
  1

  9
$XEDIT
290
     1
  9
$CEPSNTYPE
380
     0
  9
$PSTYLEMODE
290
     0
  9
$FINGERPRINTGUID
  2
{7157CD9A-7E0E-45B2-8C42-9CC090101BBE}
  9
$VERSIONGUID
  2
{EA23EFB4-2573-4F96-B279-71F9E047E23E}
  9
$EXTNAMES
290
     1
  9
$PSVPSCALE
 40
0.0
  9
$OLESTARTUP
290
     0
  0
ENDSEC
  0
SECTION
  2
CLASSES
  0
CLASS
  1
ACDBDICTIONARYWDFLT
  2
AcDbDictionaryWithDefault
  3
ObjectDBX Classes
 90
        0
280
     0
281
     0
  0
CLASS
  1
PLOTSETTINGS
  2
AcDbPlotSettings
  3
ObjectDBX Classes
 90
        0
280
     0
281
     0
  0
CLASS
  1
DICTIONARYVAR
  2
AcDbDictionaryVar
  3
ObjectDBX Classes
 90
        0
280
     0
281
     0
  0
CLASS
  1
TABLESTYLE
  2
AcDbTableStyle
  3
ObjectDBX Classes
 90
     2047
280
     0
281
     0
  0
CLASS
  1
DIMASSOC
  2
AcDbDimAssoc
  3
"AcDbDimAssoc|Product Desc:     AcDim ARX App For Dimension|Company:          Autodesk, Inc.|WEB Address:      www.autodesk.com"
 90
    32768
280
     0
281
     0
  0
CLASS
  1
ACDBPLACEHOLDER
  2
AcDbPlaceHolder
  3
ObjectDBX Classes
 90
        0
280
     0
281
     0
  0
CLASS
  1
LAYOUT
  2
AcDbLayout
  3
ObjectDBX Classes
 90
        0
280
     0
281
     0
  0
ENDSEC
  0
SECTION
  2
TABLES
  0
TABLE
  2
VPORT
  5
8
330
0
100
AcDbSymbolTable
 70
     2
  0
VPORT
  5
824
330
8
100
AcDbSymbolTableRecord
100
AcDbViewportTableRecord
  2
*Active
 70
     0
 10
0.0
 20
0.0
 11
1.0
 21
1.0
 12
360.6912389861997
 22
148.5
 13
0.0
 23
0.0
 14
10.0
 24
10.0
 15
10.0
 25
10.0
 16
0.0
 26
0.0
 36
1.0
 17
0.0
 27
0.0
 37
0.0
 40
316.4998269881873
 41
2.291981845688351
 42
50.0
 43
0.0
 44
0.0
 50
0.0
 51
0.0
 71
     0
 72
  1000
 73
     1
 74
     3
 75
     0
 76
     0
 77
     0
 78
     0
281
     0
 65
     1
110
0.0
120
0.0
130
0.0
111
1.0
121
0.0
131
0.0
112
0.0
122
1.0
132
0.0
 79
     0
146
0.0
  0
ENDTAB
  0
TABLE
  2
LTYPE
  5
5
330
0
100
AcDbSymbolTable
 70
     2
  0
LTYPE
  5
14
330
5
100
AcDbSymbolTableRecord
100
AcDbLinetypeTableRecord
  2
ByBlock
 70
     0
  3

 72
    65
 73
     0
 40
0.0
  0
LTYPE
  5
15
330
5
100
AcDbSymbolTableRecord
100
AcDbLinetypeTableRecord
  2
ByLayer
 70
     0
  3

 72
    65
 73
     0
 40
0.0
  0
LTYPE
  5
16
330
5
100
AcDbSymbolTableRecord
100
AcDbLinetypeTableRecord
  2
Continuous
 70
     0
  3
Solid line
 72
    65
 73
     0
 40
0.0
  0
LTYPE
  5
35B
330
5
100
AcDbSymbolTableRecord
100
AcDbLinetypeTableRecord
  2
ACAD_ISO03W100
 70
     0
  3
ISO штриховая (дл. промежутки) __    __    __  
 72
    65
 73
     2
 40
30.0
 49
12.0
 74
     0
 49
-18.0
 74
     0
  0
ENDTAB
  0
TABLE
  2
LAYER
  5
2
102
{ACAD_XDICTIONARY
360
306
102
}
330
0
100
AcDbSymbolTable
 70
     8
  0
LAYER
  5
10
330
2
100
AcDbSymbolTableRecord
100
AcDbLayerTableRecord
  2
0
 70
     0
 62
   250
  6
Continuous
370
    50
390
F
  0
LAYER
  5
33
330
2
100
AcDbSymbolTableRecord
100
AcDbLayerTableRecord
  2
FRAME 200
 70
     0
 62
     8
  6
Continuous
370
    -3
390
F
  0
LAYER
  5
3C
330
2
100
AcDbSymbolTableRecord
100
AcDbLayerTableRecord
  2
FRAME 070
 70
     0
 62
     5
  6
Continuous
370
    -3
390
F
  0
LAYER
  5
41
330
2
100
AcDbSymbolTableRecord
100
AcDbLayerTableRecord
  2
FRAME 050
 70
     0
 62
     6
  6
Continuous
370
    -3
390
F
  0
LAYER
  5
73
330
2
100
AcDbSymbolTableRecord
100
AcDbLayerTableRecord
  2
Title Block
 70
     0
 62
     7
  6
Continuous
370
    -3
390
F
  0
LAYER
  5
8F
330
2
100
AcDbSymbolTableRecord
100
AcDbLayerTableRecord
  2
FRAME 025
 70
     0
 62
     7
  6
Continuous
370
    -3
390
F
  0
LAYER
  5
2B6
330
2
100
AcDbSymbolTableRecord
100
AcDbLayerTableRecord
  2
Viewport
 70
     0
 62
     7
  6
Continuous
370
    -3
390
F
  0
LAYER
  5
377
330
2
100
AcDbSymbolTableRecord
100
AcDbLayerTableRecord
  2
Defpoints
 70
     0
 62
     7
  6
Continuous
290
     0
370
    -3
390
F
  0
ENDTAB
  0
TABLE
  2
STYLE
  5
3
330
0
100
AcDbSymbolTable
 70
     3
  0
STYLE
  5
11
330
3
100
AcDbSymbolTableRecord
100
AcDbTextStyleTableRecord
  2
Standard
 70
     0
 40
0.0
 41
1.0
 50
0.0
 71
     0
 42
2.5
  3
txt
  4

  0
STYLE
  5
5A
330
3
100
AcDbSymbolTableRecord
100
AcDbTextStyleTableRecord
  2
ISO Proportional
 70
     0
 40
0.0
 41
1.0
 50
0.0
 71
     0
 42
2.5
  3
isocp
  4

  0
STYLE
  5
35A
330
3
100
AcDbSymbolTableRecord
100
AcDbTextStyleTableRecord
  2

 70
     1
 40
0.0
 41
1.0
 50
0.0
 71
     0
 42
2.5
  3
ltypeshp.shx
  4

  0
ENDTAB
  0
TABLE
  2
VIEW
  5
6
330
0
100
AcDbSymbolTable
 70
     0
  0
ENDTAB
  0
TABLE
  2
UCS
  5
7
330
0
100
AcDbSymbolTable
 70
     0
  0
ENDTAB
  0
TABLE
  2
APPID
  5
9
330
0
100
AcDbSymbolTable
 70
    11
  0
APPID
  5
12
330
9
100
AcDbSymbolTableRecord
100
AcDbRegAppTableRecord
  2
ACAD
 70
     0
  0
APPID
  5
314
330
9
100
AcDbSymbolTableRecord
100
AcDbRegAppTableRecord
  2
ACAD_PSEXT
 70
     0
  0
APPID
  5
34E
330
9
100
AcDbSymbolTableRecord
100
AcDbRegAppTableRecord
  2
ACAD_EXEMPT_FROM_CAD_STANDARDS
 70
     0
  0
APPID
  5
3A7
330
9
100
AcDbSymbolTableRecord
100
AcDbRegAppTableRecord
  2
ACAD_DSTYLE_DIMTEXT_FILL
 70
     0
  0
APPID
  5
3A8
330
9
100
AcDbSymbolTableRecord
100
AcDbRegAppTableRecord
  2
ACAD_DSTYLE_DIMEXT_LENGTH
 70
     0
  0
APPID
  5
3A9
330
9
100
AcDbSymbolTableRecord
100
AcDbRegAppTableRecord
  2
ACAD_DSTYLE_DIMEXT_ENABLED
 70
     0
  0
APPID
  5
3AA
330
9
100
AcDbSymbolTableRecord
100
AcDbRegAppTableRecord
  2
ACAD_DSTYLE_DIM_LINETYPE
 70
     0
  0
APPID
  5
3AB
330
9
100
AcDbSymbolTableRecord
100
AcDbRegAppTableRecord
  2
ACAD_DSTYLE_DIM_EXT1_LINETYPE
 70
     0
  0
APPID
  5
3AC
330
9
100
AcDbSymbolTableRecord
100
AcDbRegAppTableRecord
  2
ACAD_DSTYLE_DIM_EXT2_LINETYPE
 70
     0
  0
APPID
  5
468
330
9
100
AcDbSymbolTableRecord
100
AcDbRegAppTableRecord
  2
ACAD_DSTYLE_DIMJOGGED_JOGANGLE_SYMBOL
 70
     0
  0
APPID
  5
58C
330
9
100
AcDbSymbolTableRecord
100
AcDbRegAppTableRecord
  2
ACAD_DSTYLE_DIMARC_LENGTH_SYMBOL
 70
     0
  0
ENDTAB
  0
TABLE
  2
DIMSTYLE
  5
A
330
0
100
AcDbSymbolTable
 70
     1
100
AcDbDimStyleTable
 71
     1
340
27
  0
DIMSTYLE
105
27
330
A
100
AcDbSymbolTableRecord
100
AcDbDimStyleTableRecord
  2
ISO-25
 70
     0
 41
5.0
 42
0.0
 43
3.75
 44
1.25
 73
     0
 74
     0
 77
     1
 78
     8
140
2.5
141
2.5
143
0.03937007874016
147
0.625
171
     3
172
     1
271
     2
272
     2
274
     3
278
    44
283
     0
284
     8
340
11
1001
ACAD_DSTYLE_DIMEXT_LENGTH
1070
   378
1040
1.25
1001
ACAD_DSTYLE_DIMEXT_ENABLED
1070
   383
1070
     0
1001
ACAD_DSTYLE_DIMARC_LENGTH_SYMBOL
1070
   379
1070
     0
1001
ACAD_DSTYLE_DIMJOGGED_JOGANGLE_SYMBOL
1070
   384
1040
1.570796326794896
  0
ENDTAB
  0
TABLE
  2
BLOCK_RECORD
  5
1
330
0
100
AcDbSymbolTable
 70
     2
  0
BLOCK_RECORD
  5
1F
330
1
100
AcDbSymbolTableRecord
100
AcDbBlockTableRecord
  2
*Model_Space
340
22
  0
BLOCK_RECORD
  5
825
330
1
100
AcDbSymbolTableRecord
100
AcDbBlockTableRecord
  2
*Paper_Space
340
826
  0
BLOCK_RECORD
  5
31
330
1
100
AcDbSymbolTableRecord
100
AcDbBlockTableRecord
  2
ISO A4 title block (portrait)
340
0
310
2800000020000000200000000100080000000000000400000000000000000000000000000000000000000000000080000080000000808000800000008000800080800000C0C0C000C0DCC000F0CAA6000020400000206000002080000020A0000020C0000020E00000400000004020000040400000406000004080000040A0
310
000040C0000040E00000600000006020000060400000606000006080000060A0000060C0000060E00000800000008020000080400000806000008080000080A0000080C0000080E00000A0000000A0200000A0400000A0600000A0800000A0A00000A0C00000A0E00000C0000000C0200000C0400000C0600000C0800000C0
310
A00000C0C00000C0E00000E0000000E0200000E0400000E0600000E0800000E0A00000E0C00000E0E00040000000400020004000400040006000400080004000A0004000C0004000E00040200000402020004020400040206000402080004020A0004020C0004020E000404000004040200040404000404060004040800040
310
40A0004040C0004040E00040600000406020004060400040606000406080004060A0004060C0004060E00040800000408020004080400040806000408080004080A0004080C0004080E00040A0000040A0200040A0400040A0600040A0800040A0A00040A0C00040A0E00040C0000040C0200040C0400040C0600040C08000
310
40C0A00040C0C00040C0E00040E0000040E0200040E0400040E0600040E0800040E0A00040E0C00040E0E00080000000800020008000400080006000800080008000A0008000C0008000E00080200000802020008020400080206000802080008020A0008020C0008020E00080400000804020008040400080406000804080
310
008040A0008040C0008040E00080600000806020008060400080606000806080008060A0008060C0008060E00080800000808020008080400080806000808080008080A0008080C0008080E00080A0000080A0200080A0400080A0600080A0800080A0A00080A0C00080A0E00080C0000080C0200080C0400080C0600080C0
310
800080C0A00080C0C00080C0E00080E0000080E0200080E0400080E0600080E0800080E0A00080E0C00080E0E000C0000000C0002000C0004000C0006000C0008000C000A000C000C000C000E000C0200000C0202000C0204000C0206000C0208000C020A000C020C000C020E000C0400000C0402000C0404000C0406000C0
310
408000C040A000C040C000C040E000C0600000C0602000C0604000C0606000C0608000C060A000C060C000C060E000C0800000C0802000C0804000C0806000C0808000C080A000C080C000C080E000C0A00000C0A02000C0A04000C0A06000C0A08000C0A0A000C0A0C000C0A0E000C0C00000C0C02000C0C04000C0C06000
310
C0C08000C0C0A000F0FBFF00A4A0A000808080000000FF0000FF000000FFFF00FF000000FF00FF00FFFF0000FFFFFF00FFFFFFFFFFFFFFFFFFFFFFFFFFFFFFFFFFFFFFFFFFFFFFFFFFFFFFFFFFFFFFFFFFFFFFFFFFFFA4FFFFFFFFFFFFFFFFFFFFFFFFFFFFFFFFFFFFA4FFFFFFFFFFFFFFFFFFFFFFFFA4FCFCFDFCFDFDFDFD
310
FDFDFDFDFDFDFCFDFCFCA4FFFFFFFFFFFFFFFFFFFFFFFFFCFFFCFFFFFDFDFDFFFDFDFCFDFDFDFC00FC00FCFFFFFFFFFFFFFFFFFFFFFFFFFDFFFC0000FDFDFDFCFC00FC00FDFDFDFC0000FDFFFFFFFFFFFFFFFFFFFFFFFFFDFFFC0000000000FC0000FC00000000000000FDFFFFFFFFFFFFFFFFFFFFFFFFFCFFFC0000000000
310
0000000000FCFC000000FCFCFFFFFFFFFFFFFFFFFFFFFFFFFDFFFFFFFFFFFFFFFFFFFFFFFFFFFFFFFFFFFFFDFFFFFFFFFFFFFFFFFFFFFFFFFCFFFFFFFFFFFFFFFFFFFFFFFFFFFFFFFFFFFFFCFFFFFFFFFFFFFFFFFFFFFFFFFDFFFFFFFFFFFFFFFFFFFFFFFFFFFFFFFFFFFFFDFFFFFFFFFFFFFFFFFFFFFFFFFCFFFFFFFFFFFF
310
FFFFFFFFFFFFFFFFFFFFFFFFFCFFFFFFFFFFFFFFFFFFFFFFFFFDFFFFFFFFFFFFFFFFFFFFFFFFFFFFFFFFFFFFFDFFFFFFFFFFFFFFFFFFFFFFFFFCFFFFFFFFFFFFFFFFFFFFFFFFFFFFFFFFFFFFFCFFFFFFFFFFFFFFFFFFFFFFFFFDFFFFFFFFFFFFFFFFFFFFFFFFFFFFFFFFFFFFFDFFFFFFFFFFFFFFFFFFFFFFFFFCFFFFFFFFFF
310
FFFFFFFFFFFFFFFFFFFFFFFFFFFCFFFFFFFFFFFFFFFFFFFFFFFFFDFDFFFFFFFFFFFFFFFFFFFFFFFFFFFFFFFFFDFDFFFFFFFFFFFFFFFFFFFFFFFFFCFDFFFFFFFFFFFFFFFFFFFFFFFFFFFFFFFFFFFCFFFFFFFFFFFFFFFFFFFFFFFFFCFFFFFFFFFFFFFFFFFFFFFFFFFFFFFFFFFFFFFCFFFFFFFFFFFFFFFFFFFFFFFFFDFFFFFFFF
310
FFFFFFFFFFFFFFFFFFFFFFFFFFFFFDFFFFFFFFFFFFFFFFFFFFFFFFFCFFFFFFFFFFFFFFFFFFFFFFFFFFFFFFFFFFFFFCFFFFFFFFFFFFFFFFFFFFFFFFFDFFFFFFFFFFFFFFFFFFFFFFFFFFFFFFFFFFFFFDFFFFFFFFFFFFFFFFFFFFFFFFFCFFFFFFFFFFFFFFFFFFFFFFFFFFFFFFFFFFFFFCFFFFFFFFFFFFFFFFFFFFFFFFFDFFFFFF
310
FFFFFFFFFFFFFFFFFFFFFFFFFFFFFFFDFFFFFFFFFFFFFFFFFFFFFFFFFCFFFFFFFFFFFFFFFFFFFFFFFFFFFFFFFFFFFFFCFFFFFFFFFFFFFFFFFFFFFFFFFDFFFFFFFFFFFFFFFFFFFFFFFFFFFFFFFFFFFFFDFFFFFFFFFFFFFFFFFFFFFFFFFCFFFFFFFFFFFFFFFFFFFFFFFFFFFFFFFFFFFFFCFFFFFFFFFFFFFFFFFFFFFFFFFDFFFF
310
FFFFFFFFFFFFFFFFFFFFFFFFFFFFFFFFFDFFFFFFFFFFFFFFFFFFFFFFFFFDFFFFFFFFFFFFFFFFFFFFFFFFFFFFFFFFFFFFFDFFFFFFFFFFFFFFFFFFFFFFFFFCFFFC00FC0000FCFCFDFCFCFCFC0000FCFC00FCFFFFFFFFFFFFFFFFFFFFFFFFA4FCFCFDFCFDFCFDFCFDFCFCFDFCFCFCFCFCFCA4FFFFFFFFFFFFFFFFFFFFFFFFA4FF
310
FFFFFFFFFFFFFFFFFFFFFFFFFFFFFFFFFFA4FFFFFFFFFFFFFFFFFFFFFFFFFFFFFFFFFFFFFFFFFFFFFFFFFFFFFFFFFFFFFFFFFFFFFFFFFFFF
102
{BLKREFS
331
297
102
}
1001
ACAD
1000
DesignCenter Data
1002
{
1070
     1
1070
     4
1002
}
  0
ENDTAB
  0
ENDSEC
  0
SECTION
  2
BLOCKS
  0
BLOCK
  5
20
330
1F
100
AcDbEntity
  8
0
100
AcDbBlockBegin
  2
*Model_Space
 70
     0
 10
0.0
 20
0.0
 30
0.0
  3
*Model_Space
  1

  0
ENDBLK
  5
21
330
1F
100
AcDbEntity
  8
0
100
AcDbBlockEnd
  0
BLOCK
  5
827
330
825
100
AcDbEntity
 67
     1
  8
0
100
AcDbBlockBegin
  2
*Paper_Space
 70
     0
 10
0.0
 20
0.0
 30
0.0
  3
*Paper_Space
  1

  0
ENDBLK
  5
828
330
825
100
AcDbEntity
 67
     1
  8
0
100
AcDbBlockEnd
  0
BLOCK
  5
AD
330
31
100
AcDbEntity
  8
0
100
AcDbBlockBegin
  2
ISO A4 title block (portrait)
 70
     2
 10
0.0
 20
0.0
 30
0.0
  3
ISO A4 title block (portrait)
  1

  4
Основная надпись и атрибуты ISO A4 (книжная ориентация)
  0
LINE
  5
226
330
31
100
AcDbEntity
  8
FRAME 070
100
AcDbLine
 10
200.0
 20
10.0
 30
0.0
 11
200.0
 21
287.0
 31
0.0
  0
LINE
  5
227
330
31
100
AcDbEntity
  8
FRAME 070
100
AcDbLine
 10
10.0
 20
287.0
 30
0.0
 11
10.0
 21
10.0
 31
0.0
  0
LINE
  5
228
330
31
100
AcDbEntity
  8
FRAME 050
100
AcDbLine
 10
12.5
 20
151.0
 30
0.0
 11
12.5
 21
146.0
 31
0.0
  0
LINE
  5
229
330
31
100
AcDbEntity
  8
FRAME 050
100
AcDbLine
 10
7.5
 20
148.5
 30
0.0
 11
12.5
 21
151.0
 31
0.0
  0
LINE
  5
22A
330
31
100
AcDbEntity
  8
FRAME 070
100
AcDbLine
 10
10.0
 20
10.0
 30
0.0
 11
200.0
 21
10.0
 31
0.0
  0
LINE
  5
22B
330
31
100
AcDbEntity
  8
FRAME 050
100
AcDbLine
 10
55.0
 20
5.0
 30
0.0
 11
155.0
 21
5.0
 31
0.0
  0
LINE
  5
22C
330
31
100
AcDbEntity
  8
FRAME 070
100
AcDbLine
 10
30.0
 20
30.0
 30
0.0
 11
200.0
 21
30.0
 31
0.0
  0
LINE
  5
22D
330
31
100
AcDbEntity
  8
FRAME 070
100
AcDbLine
 10
30.0
 20
40.0
 30
0.0
 11
200.0
 21
40.0
 31
0.0
  0
LINE
  5
22E
330
31
100
AcDbEntity
  8
FRAME 070
100
AcDbLine
 10
30.0
 20
46.0
 30
0.0
 11
200.0
 21
46.0
 31
0.0
  0
TEXT
  5
22F
330
31
100
AcDbEntity
  8
FRAME 025
100
AcDbText
 10
64.0
 20
35.75
 30
0.0
 40
2.5
  1
Пров.
  7
ISO Proportional
 11
64.0
 21
37.0
 31
0.0
100
AcDbText
 73
     2
  0
TEXT
  5
230
330
31
100
AcDbEntity
  8
FRAME 025
100
AcDbText
 10
64.0
 20
41.74999999999999
 30
0.0
 40
2.5
  1
Название, наименование, материал, размеры и т.п..
  7
ISO Proportional
 11
64.0
 21
43.0
 31
0.0
100
AcDbText
 73
     2
  0
ATTDEF
  5
231
330
31
100
AcDbEntity
  8
FRAME 025
100
AcDbText
 10
64.0
 20
31.75
 30
0.0
 40
2.5
  1
XXX
  7
ISO Proportional
 11
64.0
 21
33.0
 31
0.0
100
AcDbAttributeDefinition
  3
Пров.
  2
ПРОВЕРИЛ
 70
     8
 74
     2
  0
LINE
  5
232
330
31
100
AcDbEntity
  8
FRAME 200
100
AcDbLine
 10
0.0
 20
0.0
 30
0.0
 11
0.0
 21
10.0
 31
0.0
  0
LINE
  5
233
330
31
100
AcDbEntity
  8
FRAME 200
100
AcDbLine
 10
0.0
 20
0.0
 30
0.0
 11
10.0
 21
0.0
 31
0.0
  0
TEXT
  5
234
330
31
100
AcDbEntity
  8
FRAME 050
100
AcDbText
 10
6.099999999999999
 20
31.5
 30
0.0
 40
4.0
  1
F
  7
ISO Proportional
 72
     4
 11
7.5
 21
33.5
 31
0.0
100
AcDbText
  0
LINE
  5
235
330
31
100
AcDbEntity
  8
FRAME 050
100
AcDbLine
 10
55.0
 20
5.0
 30
0.0
 11
55.0
 21
10.0
 31
0.0
  0
LINE
  5
236
330
31
100
AcDbEntity
  8
FRAME 050
100
AcDbLine
 10
65.0
 20
5.0
 30
0.0
 11
65.0
 21
10.0
 31
0.0
  0
LINE
  5
237
330
31
100
AcDbEntity
  8
FRAME 050
100
AcDbLine
 10
75.0
 20
5.0
 30
0.0
 11
75.0
 21
10.0
 31
0.0
  0
TEXT
  5
238
330
31
100
AcDbEntity
  8
FRAME 050
100
AcDbText
 10
32.75
 20
5.5
 30
0.0
 40
4.0
  1
1
  7
ISO Proportional
 72
     4
 11
33.75
 21
7.5
 31
0.0
100
AcDbText
  0
TEXT
  5
239
330
31
100
AcDbEntity
  8
FRAME 025
100
AcDbText
 10
32.0
 20
35.75
 30
0.0
 40
2.5
  1
Разраб.
  7
ISO Proportional
 11
32.0
 21
37.0
 31
0.0
100
AcDbText
 73
     2
  0
ATTDEF
  5
23A
330
31
100
AcDbEntity
  8
FRAME 025
100
AcDbText
 10
32.0
 20
31.75
 30
0.0
 40
2.5
  1
XXX
  7
ISO Proportional
 11
32.0
 21
33.0
 31
0.0
100
AcDbAttributeDefinition
  3
Разраб.
  2
РАЗРАБОТАЛ
 70
     8
 74
     2
  0
LINE
  5
23B
330
31
100
AcDbEntity
  8
FRAME 070
100
AcDbLine
 10
30.0
 20
10.0
 30
0.0
 11
30.0
 21
40.0
 31
0.0
  0
LINE
  5
23C
330
31
100
AcDbEntity
  8
FRAME 070
100
AcDbLine
 10
45.0
 20
40.0
 30
0.0
 11
45.0
 21
46.0
 31
0.0
  0
LINE
  5
23D
330
31
100
AcDbEntity
  8
FRAME 070
100
AcDbLine
 10
30.0
 20
40.0
 30
0.0
 11
30.0
 21
46.0
 31
0.0
  0
TEXT
  5
23E
330
31
100
AcDbEntity
  8
FRAME 025
100
AcDbText
 10
32.0
 20
41.74999999999999
 30
0.0
 40
2.5
  1
Поз.
  7
ISO Proportional
 11
32.0
 21
43.0
 31
0.0
100
AcDbText
 73
     2
  0
LINE
  5
23F
330
31
100
AcDbEntity
  8
FRAME 070
100
AcDbLine
 10
62.0
 20
30.0
 30
0.0
 11
62.0
 21
40.0
 31
0.0
  0
ATTDEF
  5
240
330
31
100
AcDbEntity
  8
FRAME 050
100
AcDbText
 10
60.75
 20
17.5
 30
0.0
 40
5.0
  1
XXX
  7
ISO Proportional
 72
     4
 11
67.5
 21
20.0
 31
0.0
100
AcDbAttributeDefinition
  3
Владелец
  2
ВЛАДЕЛЕЦ
 70
     8
  0
LINE
  5
241
330
31
100
AcDbEntity
  8
FRAME 070
100
AcDbLine
 10
62.0
 20
40.0
 30
0.0
 11
62.0
 21
46.0
 31
0.0
  0
TEXT
  5
242
330
31
100
AcDbEntity
  8
FRAME 025
100
AcDbText
 10
47.0
 20
41.74999999999999
 30
0.0
 40
2.5
  1
Кол.
  7
ISO Proportional
 11
47.0
 21
43.0
 31
0.0
100
AcDbText
 73
     2
  0
LINE
  5
243
330
31
100
AcDbEntity
  8
FRAME 050
100
AcDbLine
 10
5.0
 20
148.5
 30
0.0
 11
15.0
 21
148.5
 31
0.0
  0
TEXT
  5
244
330
31
100
AcDbEntity
  8
FRAME 050
100
AcDbText
 10
6.099999999999999
 20
77.5
 30
0.0
 40
4.0
  1
E
  7
ISO Proportional
 72
     4
 11
7.5
 21
79.5
 31
0.0
100
AcDbText
  0
LINE
  5
245
330
31
100
AcDbEntity
  8
FRAME 050
100
AcDbLine
 10
10.0
 20
56.5
 30
0.0
 11
5.0
 21
56.5
 31
0.0
  0
TEXT
  5
246
330
31
100
AcDbEntity
  8
FRAME 050
100
AcDbText
 10
5.786091270347398
 20
123.5
 30
0.0
 40
4.0
  1
D
  7
ISO Proportional
 72
     4
 11
7.5
 21
125.5
 31
0.0
100
AcDbText
  0
LINE
  5
247
330
31
100
AcDbEntity
  8
FRAME 050
100
AcDbLine
 10
10.0
 20
102.5
 30
0.0
 11
5.0
 21
102.5
 31
0.0
  0
LINE
  5
248
330
31
100
AcDbEntity
  8
FRAME 050
100
AcDbLine
 10
12.5
 20
146.0
 30
0.0
 11
7.5
 21
148.5
 31
0.0
  0
LINE
  5
249
330
31
100
AcDbEntity
  8
FRAME 070
100
AcDbLine
 10
105.0
 20
20.0
 30
0.0
 11
200.0
 21
20.0
 31
0.0
  0
ATTDEF
  5
24A
330
31
100
AcDbEntity
  8
FRAME 050
100
AcDbText
 10
133.65
 20
13.5
 30
0.0
 40
3.0
  1
X
  7
ISO Proportional
 72
     4
 11
135.0
 21
15.0
 31
0.0
100
AcDbAttributeDefinition
  3
Номер чертежа
  2
НОМЕР_ЧЕРТЕЖА
 70
     8
  0
LINE
  5
24B
330
31
100
AcDbEntity
  8
FRAME 050
100
AcDbLine
 10
105.0
 20
10.0
 30
0.0
 11
105.0
 21
5.0
 31
0.0
  0
LINE
  5
24C
330
31
100
AcDbEntity
  8
FRAME 050
100
AcDbLine
 10
85.0
 20
5.0
 30
0.0
 11
85.0
 21
10.0
 31
0.0
  0
LINE
  5
24D
330
31
100
AcDbEntity
  8
FRAME 050
100
AcDbLine
 10
95.0
 20
5.0
 30
0.0
 11
95.0
 21
10.0
 31
0.0
  0
LINE
  5
24E
330
31
100
AcDbEntity
  8
FRAME 050
100
AcDbLine
 10
115.0
 20
5.0
 30
0.0
 11
115.0
 21
10.0
 31
0.0
  0
LINE
  5
24F
330
31
100
AcDbEntity
  8
FRAME 050
100
AcDbLine
 10
125.0
 20
5.0
 30
0.0
 11
125.0
 21
10.0
 31
0.0
  0
LINE
  5
250
330
31
100
AcDbEntity
  8
FRAME 050
100
AcDbLine
 10
135.0
 20
5.0
 30
0.0
 11
135.0
 21
10.0
 31
0.0
  0
LINE
  5
251
330
31
100
AcDbEntity
  8
FRAME 050
100
AcDbLine
 10
105.0
 20
7.5
 30
0.0
 11
102.5
 21
12.5
 31
0.0
  0
LINE
  5
252
330
31
100
AcDbEntity
  8
FRAME 050
100
AcDbLine
 10
107.5
 20
12.5
 30
0.0
 11
105.0
 21
7.5
 31
0.0
  0
TEXT
  5
253
330
31
100
AcDbEntity
  8
FRAME 025
100
AcDbText
 10
89.0
 20
35.75
 30
0.0
 40
2.5
  1
Утверждение - дата
  7
ISO Proportional
 11
89.0
 21
37.0
 31
0.0
100
AcDbText
 73
     2
  0
ATTDEF
  5
254
330
31
100
AcDbEntity
  8
FRAME 025
100
AcDbText
 10
89.0
 20
31.75
 30
0.0
 40
2.5
  1
XXX - 00/00/00
  7
ISO Proportional
 11
89.0
 21
33.0
 31
0.0
100
AcDbAttributeDefinition
  3
Утверждение - Дата
  2
ДАТА_УТВЕРЖДЕНИЯ
 70
     8
 74
     2
  0
LINE
  5
255
330
31
100
AcDbEntity
  8
FRAME 070
100
AcDbLine
 10
87.0
 20
30.0
 30
0.0
 11
87.0
 21
40.0
 31
0.0
  0
LINE
  5
256
330
31
100
AcDbEntity
  8
FRAME 070
100
AcDbLine
 10
105.0
 20
10.0
 30
0.0
 11
105.0
 21
30.0
 31
0.0
  0
LINE
  5
257
330
31
100
AcDbEntity
  8
FRAME 050
100
AcDbLine
 10
102.5
 20
12.5
 30
0.0
 11
107.5
 21
12.5
 31
0.0
  0
LINE
  5
258
330
31
100
AcDbEntity
  8
FRAME 050
100
AcDbLine
 10
105.0
 20
10.0
 30
0.0
 11
105.0
 21
15.0
 31
0.0
  0
ATTDEF
  5
259
330
31
100
AcDbEntity
  8
FRAME 025
100
AcDbText
 10
127.0
 20
31.75
 30
0.0
 40
2.5
  1
XXX
  7
ISO Proportional
 11
127.0
 21
33.0
 31
0.0
100
AcDbAttributeDefinition
  3
Имя файла
  2
ИМЯ_ФАЙЛА
 70
     8
 74
     2
  0
LINE
  5
25A
330
31
100
AcDbEntity
  8
FRAME 070
100
AcDbLine
 10
125.0
 20
30.0
 30
0.0
 11
125.0
 21
40.0
 31
0.0
  0
TEXT
  5
25B
330
31
100
AcDbEntity
  8
FRAME 025
100
AcDbText
 10
127.0
 20
35.75
 30
0.0
 40
2.5
  1
Имя файла
  7
ISO Proportional
 11
127.0
 21
37.0
 31
0.0
100
AcDbText
 73
     2
  0
LINE
  5
25C
330
31
100
AcDbEntity
  8
FRAME 200
100
AcDbLine
 10
210.0
 20
0.0
 30
0.0
 11
210.0
 21
10.0
 31
0.0
  0
LINE
  5
25D
330
31
100
AcDbEntity
  8
FRAME 050
100
AcDbLine
 10
155.0
 20
5.0
 30
0.0
 11
155.0
 21
10.0
 31
0.0
  0
LINE
  5
25E
330
31
100
AcDbEntity
  8
FRAME 050
100
AcDbLine
 10
145.0
 20
5.0
 30
0.0
 11
145.0
 21
10.0
 31
0.0
  0
TEXT
  5
25F
330
31
100
AcDbEntity
  8
FRAME 050
100
AcDbText
 10
174.65
 20
5.5
 30
0.0
 40
4.0
  1
4
  7
ISO Proportional
 72
     4
 11
176.25
 21
7.5
 31
0.0
100
AcDbText
  0
LINE
  5
260
330
31
100
AcDbEntity
  8
FRAME 200
100
AcDbLine
 10
210.0
 20
0.0
 30
0.0
 11
200.0
 21
0.0
 31
0.0
  0
TEXT
  5
261
330
31
100
AcDbEntity
  8
FRAME 025
100
AcDbText
 10
152.0
 20
41.74999999999999
 30
0.0
 40
2.5
  1
N документа
  7
ISO Proportional
 11
152.0
 21
43.0
 31
0.0
100
AcDbText
 73
     2
  0
ATTDEF
  5
262
330
31
100
AcDbEntity
  8
FRAME 025
100
AcDbText
 10
167.0
 20
11.75
 30
0.0
 40
2.5
  1
0
  7
ISO Proportional
 11
167.0
 21
13.0
 31
0.0
100
AcDbAttributeDefinition
  3
Редакция
  2
РЕДАКЦИЯ
 70
     8
 74
     2
  0
LINE
  5
263
330
31
100
AcDbEntity
  8
FRAME 070
100
AcDbLine
 10
150.0
 20
30.0
 30
0.0
 11
150.0
 21
40.0
 31
0.0
  0
ATTDEF
  5
264
330
31
100
AcDbEntity
  8
FRAME 025
100
AcDbText
 10
152.0
 20
31.75
 30
0.0
 40
2.5
  1
00/00/00
  7
ISO Proportional
 11
152.0
 21
33.0
 31
0.0
100
AcDbAttributeDefinition
  3
Дата
  2
ДАТА
 70
     8
 74
     2
  0
ATTDEF
  5
265
330
31
100
AcDbEntity
  8
FRAME 050
100
AcDbText
 10
145.75
 20
22.5
 30
0.0
 40
5.0
  1
XXX
  7
ISO Proportional
 72
     4
 11
152.5
 21
25.0
 31
0.0
100
AcDbAttributeDefinition
  3
Название
  2
НАЗВАНИЕ
 70
     8
  0
TEXT
  5
266
330
31
100
AcDbEntity
  8
FRAME 025
100
AcDbText
 10
167.0
 20
15.75
 30
0.0
 40
2.5
  1
Редакция
  7
ISO Proportional
 11
167.0
 21
17.0
 31
0.0
100
AcDbText
 73
     2
  0
LINE
  5
267
330
31
100
AcDbEntity
  8
FRAME 070
100
AcDbLine
 10
165.0
 20
10.0
 30
0.0
 11
165.0
 21
20.0
 31
0.0
  0
LINE
  5
268
330
31
100
AcDbEntity
  8
FRAME 070
100
AcDbLine
 10
150.0
 20
40.0
 30
0.0
 11
150.0
 21
46.0
 31
0.0
  0
TEXT
  5
269
330
31
100
AcDbEntity
  8
FRAME 025
100
AcDbText
 10
152.0
 20
35.75
 30
0.0
 40
2.5
  1
Дата
  7
ISO Proportional
 11
152.0
 21
37.0
 31
0.0
100
AcDbText
 73
     2
  0
TEXT
  5
26A
330
31
100
AcDbEntity
  8
FRAME 050
100
AcDbText
 10
201.1
 20
31.5
 30
0.0
 40
4.0
  1
F
  7
ISO Proportional
 72
     4
 11
202.5
 21
33.5
 31
0.0
100
AcDbText
  0
LINE
  5
26B
330
31
100
AcDbEntity
  8
FRAME 070
100
AcDbLine
 10
180.0
 20
30.0
 30
0.0
 11
180.0
 21
40.0
 31
0.0
  0
ATTDEF
  5
26C
330
31
100
AcDbEntity
  8
FRAME 025
100
AcDbText
 10
182.0
 20
31.75
 30
0.0
 40
2.5
  1
1:1
  7
ISO Proportional
 11
182.0
 21
33.0
 31
0.0
100
AcDbAttributeDefinition
  3
Масштаб
  2
МАСШТАБ
 70
     8
 74
     2
  0
TEXT
  5
26D
330
31
100
AcDbEntity
  8
FRAME 025
100
AcDbText
 10
182.0
 20
15.75
 30
0.0
 40
2.5
  1
Лист
  7
ISO Proportional
 11
182.0
 21
17.0
 31
0.0
100
AcDbText
 73
     2
  0
ATTDEF
  5
26E
330
31
100
AcDbEntity
  8
FRAME 025
100
AcDbText
 10
182.0
 20
11.75
 30
0.0
 40
2.5
  1
1/1
  7
ISO Proportional
 11
182.0
 21
13.0
 31
0.0
100
AcDbAttributeDefinition
  3
Лист
  2
ЛИСТ
 70
     8
 74
     2
  0
LINE
  5
26F
330
31
100
AcDbEntity
  8
FRAME 070
100
AcDbLine
 10
180.0
 20
10.0
 30
0.0
 11
180.0
 21
20.0
 31
0.0
  0
TEXT
  5
270
330
31
100
AcDbEntity
  8
FRAME 025
100
AcDbText
 10
182.0
 20
35.75
 30
0.0
 40
2.5
  1
Масштаб
  7
ISO Proportional
 11
182.0
 21
37.0
 31
0.0
100
AcDbText
 73
     2
  0
TEXT
  5
271
330
31
100
AcDbEntity
  8
FRAME 050
100
AcDbText
 10
201.1
 20
77.5
 30
0.0
 40
4.0
  1
E
  7
ISO Proportional
 72
     4
 11
202.5
 21
79.5
 31
0.0
100
AcDbText
  0
LINE
  5
272
330
31
100
AcDbEntity
  8
FRAME 050
100
AcDbLine
 10
205.0
 20
56.5
 30
0.0
 11
200.0
 21
56.5
 31
0.0
  0
TEXT
  5
273
330
31
100
AcDbEntity
  8
FRAME 050
100
AcDbText
 10
200.7860912703474
 20
123.5
 30
0.0
 40
4.0
  1
D
  7
ISO Proportional
 72
     4
 11
202.5
 21
125.5
 31
0.0
100
AcDbText
  0
LINE
  5
274
330
31
100
AcDbEntity
  8
FRAME 050
100
AcDbLine
 10
205.0
 20
102.5
 30
0.0
 11
200.0
 21
102.5
 31
0.0
  0
LINE
  5
275
330
31
100
AcDbEntity
  8
FRAME 050
100
AcDbLine
 10
195.0
 20
148.5
 30
0.0
 11
205.0
 21
148.5
 31
0.0
  0
LINE
  5
276
330
31
100
AcDbEntity
  8
FRAME 070
100
AcDbLine
 10
200.0
 20
287.0
 30
0.0
 11
10.0
 21
287.0
 31
0.0
  0
LINE
  5
277
330
31
100
AcDbEntity
  8
FRAME 070
100
AcDbLine
 10
30.0
 20
281.0
 30
0.0
 11
200.0
 21
281.0
 31
0.0
  0
TEXT
  5
278
330
31
100
AcDbEntity
  8
FRAME 050
100
AcDbText
 10
6.193198051533947
 20
169.5
 30
0.0
 40
4.0
  1
C
  7
ISO Proportional
 72
     4
 11
7.5
 21
171.5
 31
0.0
100
AcDbText
  0
LINE
  5
279
330
31
100
AcDbEntity
  8
FRAME 050
100
AcDbLine
 10
10.0
 20
194.5
 30
0.0
 11
5.0
 21
194.5
 31
0.0
  0
TEXT
  5
27A
330
31
100
AcDbEntity
  8
FRAME 050
100
AcDbText
 10
5.899999999999996
 20
215.5
 30
0.0
 40
4.0
  1
B
  7
ISO Proportional
 72
     4
 11
7.5
 21
217.5
 31
0.0
100
AcDbText
  0
LINE
  5
27B
330
31
100
AcDbEntity
  8
FRAME 050
100
AcDbLine
 10
10.0
 20
240.5
 30
0.0
 11
5.0
 21
240.5
 31
0.0
  0
LINE
  5
27C
330
31
100
AcDbEntity
  8
FRAME 200
100
AcDbLine
 10
0.0
 20
297.0
 30
0.0
 11
0.0
 21
287.0
 31
0.0
  0
TEXT
  5
27D
330
31
100
AcDbEntity
  8
FRAME 050
100
AcDbText
 10
5.699999999999999
 20
261.5
 30
0.0
 40
4.0
  1
A
  7
ISO Proportional
 72
     4
 11
7.5
 21
263.5
 31
0.0
100
AcDbText
  0
LINE
  5
27E
330
31
100
AcDbEntity
  8
FRAME 200
100
AcDbLine
 10
10.0
 20
297.0
 30
0.0
 11
0.0
 21
297.0
 31
0.0
  0
LINE
  5
27F
330
31
100
AcDbEntity
  8
FRAME 050
100
AcDbLine
 10
57.5
 20
287.0
 30
0.0
 11
57.5
 21
292.0
 31
0.0
  0
TEXT
  5
280
330
31
100
AcDbEntity
  8
FRAME 050
100
AcDbText
 10
32.75
 20
287.5
 30
0.0
 40
4.0
  1
1
  7
ISO Proportional
 72
     4
 11
33.75
 21
289.5
 31
0.0
100
AcDbText
  0
TEXT
  5
281
330
31
100
AcDbEntity
  8
FRAME 025
100
AcDbText
 10
44.0
 20
282.75
 30
0.0
 40
2.5
  1
Изменение
  7
ISO Proportional
 11
44.0
 21
284.0
 31
0.0
100
AcDbText
 73
     2
  0
TEXT
  5
282
330
31
100
AcDbEntity
  8
FRAME 025
100
AcDbText
 10
32.0
 20
282.75
 30
0.0
 40
2.5
  1
N изм.
  7
ISO Proportional
 11
32.0
 21
284.0
 31
0.0
100
AcDbText
 73
     2
  0
LINE
  5
283
330
31
100
AcDbEntity
  8
FRAME 070
100
AcDbLine
 10
30.0
 20
281.0
 30
0.0
 11
30.0
 21
287.0
 31
0.0
  0
LINE
  5
284
330
31
100
AcDbEntity
  8
FRAME 070
100
AcDbLine
 10
42.0
 20
281.0
 30
0.0
 11
42.0
 21
287.0
 31
0.0
  0
TEXT
  5
285
330
31
100
AcDbEntity
  8
FRAME 050
100
AcDbText
 10
201.193198051534
 20
169.5
 30
0.0
 40
4.0
  1
C
  7
ISO Proportional
 72
     4
 11
202.5
 21
171.5
 31
0.0
100
AcDbText
  0
LINE
  5
286
330
31
100
AcDbEntity
  8
FRAME 050
100
AcDbLine
 10
205.0
 20
194.5
 30
0.0
 11
200.0
 21
194.5
 31
0.0
  0
TEXT
  5
287
330
31
100
AcDbEntity
  8
FRAME 050
100
AcDbText
 10
200.9
 20
215.5
 30
0.0
 40
4.0
  1
B
  7
ISO Proportional
 72
     4
 11
202.5
 21
217.5
 31
0.0
100
AcDbText
  0
LINE
  5
288
330
31
100
AcDbEntity
  8
FRAME 050
100
AcDbLine
 10
205.0
 20
240.5
 30
0.0
 11
200.0
 21
240.5
 31
0.0
  0
LINE
  5
289
330
31
100
AcDbEntity
  8
FRAME 050
100
AcDbLine
 10
105.0
 20
282.0
 30
0.0
 11
105.0
 21
292.0
 31
0.0
  0
TEXT
  5
28A
330
31
100
AcDbEntity
  8
FRAME 050
100
AcDbText
 10
79.78066929133858
 20
287.3996062992126
 30
0.0
 40
4.0
  1
2
  7
ISO Proportional
 72
     4
 11
81.25
 21
289.5
 31
0.0
100
AcDbText
  0
TEXT
  5
28B
330
31
100
AcDbEntity
  8
FRAME 050
100
AcDbText
 10
127.2671572875254
 20
287.5828427124746
 30
0.0
 40
4.0
  1
3
  7
ISO Proportional
 72
     4
 11
128.75
 21
289.5
 31
0.0
100
AcDbText
  0
LINE
  5
28C
330
31
100
AcDbEntity
  8
FRAME 200
100
AcDbLine
 10
210.0
 20
287.0
 30
0.0
 11
210.0
 21
297.0
 31
0.0
  0
LINE
  5
28D
330
31
100
AcDbEntity
  8
FRAME 050
100
AcDbLine
 10
152.5
 20
287.0
 30
0.0
 11
152.5
 21
292.0
 31
0.0
  0
TEXT
  5
28E
330
31
100
AcDbEntity
  8
FRAME 050
100
AcDbText
 10
174.65
 20
287.5
 30
0.0
 40
4.0
  1
4
  7
ISO Proportional
 72
     4
 11
176.25
 21
289.5
 31
0.0
100
AcDbText
  0
TEXT
  5
28F
330
31
100
AcDbEntity
  8
FRAME 025
100
AcDbText
 10
171.3609979728353
 20
282.75
 30
0.0
 40
2.5
  1
Подп.
  7
ISO Proportional
 11
171.3609979728353
 21
284.0
 31
0.0
100
AcDbText
 73
     2
  0
LINE
  5
290
330
31
100
AcDbEntity
  8
FRAME 070
100
AcDbLine
 10
151.0
 20
281.0
 30
0.0
 11
151.0
 21
287.0
 31
0.0
  0
TEXT
  5
291
330
31
100
AcDbEntity
  8
FRAME 025
100
AcDbText
 10
153.0
 20
282.75
 30
0.0
 40
2.5
  1
Дата
  7
ISO Proportional
 11
153.0
 21
284.0
 31
0.0
100
AcDbText
 73
     2
  0
LINE
  5
292
330
31
100
AcDbEntity
  8
FRAME 070
100
AcDbLine
 10
171.0
 20
281.0
 30
0.0
 11
171.0
 21
287.0
 31
0.0
  0
TEXT
  5
293
330
31
100
AcDbEntity
  8
FRAME 050
100
AcDbText
 10
200.7
 20
261.5
 30
0.0
 40
4.0
  1
A
  7
ISO Proportional
 72
     4
 11
202.5
 21
263.5
 31
0.0
100
AcDbText
  0
TEXT
  5
294
330
31
100
AcDbEntity
  8
FRAME 025
100
AcDbText
 10
187.0829939185055
 20
282.75
 30
0.0
 40
2.5
  1
Проверка
  7
ISO Proportional
 11
187.0829939185055
 21
284.0
 31
0.0
100
AcDbText
 73
     2
  0
LINE
  5
295
330
31
100
AcDbEntity
  8
FRAME 070
100
AcDbLine
 10
186.0
 20
281.0
 30
0.0
 11
186.0
 21
287.0
 31
0.0
  0
LINE
  5
296
330
31
100
AcDbEntity
  8
FRAME 200
100
AcDbLine
 10
210.0
 20
297.0
 30
0.0
 11
200.0
 21
297.0
 31
0.0
  0
ENDBLK
  5
AE
330
31
100
AcDbEntity
  8
0
100
AcDbBlockEnd
  0
ENDSEC
  0
SECTION
  2
ENTITIES
  0
ARC
  5
7F7
330
1F
100
AcDbEntity
  8
0
100
AcDbCircle
 10
456.8751927395783
 20
166.4051569615962
 30
0.0
 40
6.599999999999997
100
AcDbArc
 50
90.0
 51
180.0
  0
ARC
  5
7F8
330
1F
100
AcDbEntity
  8
0
100
AcDbCircle
 10
350.6751927395784
 20
215.6051569615963
 30
0.0
 40
6.599999999999997
100
AcDbArc
 50
270.0
 51
0.0
  0
ARC
  5
7F9
330
1F
100
AcDbEntity
  8
0
100
AcDbCircle
 10
457.2251927395783
 20
224.4551569615962
 30
0.0
 40
6.599999999999997
100
AcDbArc
 50
180.0
 51
270.0
  0
ARC
  5
7FA
330
1F
100
AcDbEntity
  8
0
100
AcDbCircle
 10
350.3251927395784
 20
157.5551569615963
 30
0.0
 40
6.599999999999997
100
AcDbArc
 50
0.0
 51
90.0
  0
CIRCLE
  5
7FB
330
1F
100
AcDbEntity
  8
0
100
AcDbCircle
 10
445.6751927395783
 20
221.1051569615963
 30
0.0
 40
3.299999999999998
  0
CIRCLE
  5
7FC
330
1F
100
AcDbEntity
  8
0
100
AcDbCircle
 10
445.6751927395783
 20
160.9051569615962
 30
0.0
 40
3.299999999999998
  0
CIRCLE
  5
7FD
330
1F
100
AcDbEntity
  8
0
100
AcDbCircle
 10
361.8751927395783
 20
221.1051569615963
 30
0.0
 40
3.299999999999998
  0
CIRCLE
  5
7FE
330
1F
100
AcDbEntity
  8
0
100
AcDbCircle
 10
361.8751927395783
 20
160.9051569615963
 30
0.0
 40
3.299999999999998
  0
LINE
  5
7FF
330
1F
100
AcDbEntity
  8
0
100
AcDbLine
 10
357.2751927395784
 20
226.2551569615963
 30
0.0
 11
450.6251927395783
 21
226.2551569615963
 31
0.0
  0
LINE
  5
800
330
1F
100
AcDbEntity
  8
0
100
AcDbLine
 10
348.5251927395784
 20
209.0051569615963
 30
0.0
 11
348.5251927395784
 21
164.1551569615963
 31
0.0
  0
LINE
  5
801
330
1F
100
AcDbEntity
  8
0
100
AcDbLine
 10
356.9251927395784
 20
155.7551569615963
 30
0.0
 11
450.2751927395783
 21
155.7551569615962
 31
0.0
  0
LINE
  5
802
330
1F
100
AcDbEntity
  8
0
100
AcDbLine
 10
459.0251927395784
 20
173.0051569615962
 30
0.0
 11
459.0251927395781
 21
217.8551569615962
 31
0.0
  0
LINE
  5
803
330
1F
100
AcDbEntity
  8
0
100
AcDbLine
 10
457.2251927395783
 20
217.8551569615962
 30
0.0
 11
459.0251927395784
 21
217.8551569615962
 31
0.0
  0
LINE
  5
804
330
1F
100
AcDbEntity
  8
0
100
AcDbLine
 10
450.6251927395783
 20
224.4551569615962
 30
0.0
 11
450.6251927395783
 21
226.2551569615963
 31
0.0
  0
LINE
  5
805
330
1F
100
AcDbEntity
  8
0
100
AcDbLine
 10
456.8751927395783
 20
173.0051569615962
 30
0.0
 11
459.0251927395781
 21
173.0051569615962
 31
0.0
  0
LINE
  5
806
330
1F
100
AcDbEntity
  8
0
100
AcDbLine
 10
450.2751927395783
 20
166.4051569615962
 30
0.0
 11
450.2751927395783
 21
155.7551569615962
 31
0.0
  0
LINE
  5
807
330
1F
100
AcDbEntity
  8
0
100
AcDbLine
 10
357.2751927395784
 20
215.6051569615963
 30
0.0
 11
357.2751927395784
 21
226.2551569615963
 31
0.0
  0
LINE
  5
808
330
1F
100
AcDbEntity
  8
0
100
AcDbLine
 10
350.6751927395784
 20
209.0051569615963
 30
0.0
 11
348.5251927395784
 21
209.0051569615963
 31
0.0
  0
LINE
  5
809
330
1F
100
AcDbEntity
  8
0
100
AcDbLine
 10
350.3251927395784
 20
164.1551569615963
 30
0.0
 11
348.5251927395784
 21
164.1551569615963
 31
0.0
  0
LINE
  5
80A
330
1F
100
AcDbEntity
  8
0
100
AcDbLine
 10
356.9251927395784
 20
157.5551569615963
 30
0.0
 11
356.9251927395784
 21
155.7551569615963
 31
0.0
  0
CIRCLE
  5
80B
330
1F
100
AcDbEntity
  8
0
100
AcDbCircle
 10
361.8751927395783
 20
221.1051569615963
 30
0.0
 40
1.0
  0
CIRCLE
  5
80C
330
1F
100
AcDbEntity
  8
0
100
AcDbCircle
 10
361.8751927395783
 20
160.9051569615963
 30
0.0
 40
1.0
  0
CIRCLE
  5
80D
330
1F
100
AcDbEntity
  8
0
100
AcDbCircle
 10
445.6751927395783
 20
221.1051569615963
 30
0.0
 40
1.0
  0
CIRCLE
  5
80E
330
1F
100
AcDbEntity
  8
0
100
AcDbCircle
 10
445.6751927395783
 20
160.9051569615962
 30
0.0
 40
1.0
  0
VIEWPORT
  5
82C
102
{ACAD_XDICTIONARY
360
83B
102
}
330
825
100
AcDbEntity
 67
     1
  8
0
100
AcDbViewport
 10
145.330337524414
 20
101.8328354358673
 30
0.0
 40
509.2705268038058
 41
222.1965796813965
 68
     1
 69
     1
 12
145.330337524414
 22
101.8328354358673
 13
0.0
 23
0.0
 14
10.0
 24
10.0
 15
10.0
 25
10.0
 16
0.0
 26
0.0
 36
1.0
 17
0.0
 27
0.0
 37
0.0
 42
50.0
 43
0.0
 44
0.0
 45
222.1965796813965
 50
0.0
 51
0.0
 72
  1000
 90
    32800
  1

281
     0
 71
     1
 74
     0
110
0.0
120
0.0
130
0.0
111
1.0
121
0.0
131
0.0
112
0.0
122
1.0
132
0.0
 79
     0
146
0.0
  0
VIEWPORT
  5
82E
102
{ACAD_XDICTIONARY
360
83D
102
}
330
825
100
AcDbEntity
 67
     1
  8
0
100
AcDbViewport
 10
145.3303314447403
 20
101.8328338861465
 30
0.0
 40
232.5285303115845
 41
162.9325342178344
 68
     2
 69
     2
 12
403.7751927395784
 22
191.0051569615962
 13
0.0
 23
0.0
 14
10.0
 24
10.0
 15
10.0
 25
10.0
 16
0.0
 26
0.0
 36
1.0
 17
0.0
 27
0.0
 37
0.0
 42
50.0
 43
0.0
 44
0.0
 45
78.10053209405939
 50
0.0
 51
0.0
 72
  1000
 90
    32864
  1

281
     0
 71
     1
 74
     0
110
0.0
120
0.0
130
0.0
111
1.0
121
0.0
131
0.0
112
0.0
122
1.0
132
0.0
 79
     0
146
0.0
  0
ENDSEC
  0
SECTION
  2
OBJECTS
  0
DICTIONARY
  5
C
330
0
100
AcDbDictionary
281
     1
  3
ACAD_COLOR
350
2D1
  3
ACAD_GROUP
350
D
  3
ACAD_LAYOUT
350
1A
  3
ACAD_MATERIAL
350
2D0
  3
ACAD_MLINESTYLE
350
17
  3
ACAD_PLOTSETTINGS
350
19
  3
ACAD_PLOTSTYLENAME
350
E
  3
ACAD_TABLESTYLE
350
2FA
  3
ACDBHEADERROUNDTRIPXREC
350
830
  3
AcDbVariableDictionary
350
2CC
  3
DWGPROPS
350
82F
  0
DICTIONARY
  5
306
330
2
100
AcDbDictionary
280
     1
281
     1
  3
ACAD_LAYERFILTERS
360
34C
  3
ACAD_LAYERSTATES
360
307
  3
ACLYDICTIONARY
360
34B
  0
DICTIONARY
  5
83B
330
82C
100
AcDbDictionary
280
     1
281
     1
  3
ACAD_XREC_ROUNDTRIP
360
83C
  0
DICTIONARY
  5
83D
330
82E
100
AcDbDictionary
280
     1
281
     1
  3
ACAD_XREC_ROUNDTRIP
360
83E
  0
DICTIONARY
  5
2D1
102
{ACAD_REACTORS
330
C
102
}
330
C
100
AcDbDictionary
281
     1
  0
DICTIONARY
  5
D
102
{ACAD_REACTORS
330
C
102
}
330
C
100
AcDbDictionary
281
     1
  0
DICTIONARY
  5
1A
102
{ACAD_REACTORS
330
C
102
}
330
C
100
AcDbDictionary
281
     1
  3
Model
350
22
  3
Лист1
350
826
  0
DICTIONARY
  5
2D0
102
{ACAD_REACTORS
330
C
102
}
330
C
100
AcDbDictionary
281
     1
  0
DICTIONARY
  5
17
102
{ACAD_REACTORS
330
C
102
}
330
C
100
AcDbDictionary
281
     1
  3
Standard
350
18
  0
DICTIONARY
  5
19
102
{ACAD_REACTORS
330
C
102
}
330
C
100
AcDbDictionary
281
     1
  3
Основная надпись ISO A4 (книжная ориентация) - пустое устройство вывода
350
C1
  0
ACDBDICTIONARYWDFLT
  5
E
102
{ACAD_REACTORS
330
C
102
}
330
C
100
AcDbDictionary
281
     1
  3
Normal
350
F
100
AcDbDictionaryWithDefault
340
F
  0
DICTIONARY
  5
2FA
102
{ACAD_REACTORS
330
C
102
}
330
C
100
AcDbDictionary
281
     1
  3
Standard
350
2FB
  0
DICTIONARY
  5
830
102
{ACAD_REACTORS
330
C
102
}
330
C
100
AcDbDictionary
281
     1
  0
DICTIONARY
  5
2CC
102
{ACAD_REACTORS
330
C
102
}
330
C
100
AcDbDictionary
281
     1
  3
CTABLESTYLE
350
316
  3
DIMASSOC
350
2CE
  3
HIDETEXT
350
2CD
  3
PROJECTNAME
350
7C1
  0
XRECORD
  5
82F
102
{ACAD_REACTORS
330
C
102
}
330
C
100
AcDbXrecord
280
     1
  1
DWGPROPS COOKIE
  2

  3

  4

  6

  7

  8
Autodesk
  9

300
=
301
=
302
=
303
=
304
=
305
=
306
=
307
=
308
=
309
=
 40
0.098254849537037
 41
2456777.60671404
 42
2456777.977337963
  1

 90
        0
  0
DICTIONARY
  5
34C
102
{ACAD_REACTORS
330
306
102
}
330
306
100
AcDbDictionary
281
     1
  0
DICTIONARY
  5
307
102
{ACAD_REACTORS
330
306
102
}
330
306
100
AcDbDictionary
281
     1
  0
DICTIONARY
  5
34B
102
{ACAD_REACTORS
330
306
102
}
330
306
100
AcDbDictionary
281
     1
1001
ACAD
1000
<All
  0
XRECORD
  5
83C
102
{ACAD_REACTORS
330
83B
102
}
330
83B
100
AcDbXrecord
280
     1
102
SHADEPLOT
 70
     0
  0
XRECORD
  5
83E
102
{ACAD_REACTORS
330
83D
102
}
330
83D
100
AcDbXrecord
280
     1
102
SHADEPLOT
 70
     0
  0
LAYOUT
  5
22
102
{ACAD_XDICTIONARY
360
831
102
}
102
{ACAD_REACTORS
330
1A
102
}
330
1A
100
AcDbPlotSettings
  1

  2
none_device
  4
ISO_A4_(210.00_x_297.00_MM)
  6

 40
7.5
 41
20.0
 42
7.5
 43
20.0
 44
210.0
 45
297.0
 46
0.0
 47
73.36421725239617
 48
0.0
 49
0.0
140
0.0
141
0.0
142
1.0
143
2.869813509774056
 70
 11956
 72
     1
 73
     0
 74
     0
  7

 75
     0
147
0.3484546980471668
148
1.967705816488884
149
9.729414201041008
100
AcDbLayout
  1
Model
 70
     1
 71
     0
 10
0.0
 20
0.0
 11
12.0
 21
9.0
 12
0.0
 22
0.0
 32
0.0
 14
0.0
 24
0.0
 34
0.0
 15
0.0
 25
0.0
 35
0.0
146
0.0
 13
0.0
 23
0.0
 33
0.0
 16
1.0
 26
0.0
 36
0.0
 17
0.0
 27
1.0
 37
0.0
 76
     0
330
1F
1001
ACAD_PSEXT
1000
None
1000
None
1000
Not applicable
1000
The layout will not be plotted unless a new plotter configuration name is selected.
1070
     0
  0
LAYOUT
  5
826
102
{ACAD_XDICTIONARY
360
839
102
}
102
{ACAD_REACTORS
330
1A
102
}
330
1A
100
AcDbPlotSettings
  1

  2
Microsoft XPS Document Writer
  4
A4
  6

 40
3.174999952316284
 41
3.174999952316284
 42
3.175003051757812
 43
3.17498779296875
 44
210.0156707763672
 45
297.0106506347656
 46
0.0
 47
0.0
 48
0.0
 49
0.0
140
0.0
141
0.0
142
1.0
143
1.0
 70
   688
 72
     1
 73
     1
 74
     5
  7

 75
    16
147
1.0
148
0.0
149
0.0
100
AcDbLayout
  1
Лист1
 70
     1
 71
     1
 10
-3.17498779296875
 20
-3.174999952316284
 11
293.8356628417969
 21
206.8406708240509
 12
0.0
 22
0.0
 32
0.0
 14
29.06606628894805
 24
20.36656677722931
 34
0.0
 15
261.5945966005325
 25
183.2991009950638
 35
0.0
146
0.0
 13
0.0
 23
0.0
 33
0.0
 16
1.0
 26
0.0
 36
0.0
 17
0.0
 27
1.0
 37
0.0
 76
     0
330
825
331
82C
1001
ACAD_PSEXT
1000
Microsoft XPS Document Writer
1000
Microsoft XPS Document Writer
1000
XPSPort:
1000

1070
     0
  0
MLINESTYLE
  5
18
102
{ACAD_REACTORS
330
17
102
}
330
17
100
AcDbMlineStyle
  2
STANDARD
 70
     0
  3

 62
   256
 51
90.0
 52
90.0
 71
     2
 49
0.5
 62
   256
  6
BYLAYER
 49
-0.5
 62
   256
  6
BYLAYER
  0
PLOTSETTINGS
  5
C1
102
{ACAD_XDICTIONARY
360
835
102
}
102
{ACAD_REACTORS
330
19
102
}
330
19
100
AcDbPlotSettings
  1
Основная надпись ISO A4 (книжная ориентация) - пустое устройство вывода
  2
None
  4
ISO_A4_(210.00_x_297.00_MM)
  6

 40
7.549999999999998
 41
20.05
 42
7.549999999999998
 43
20.05
 44
210.0
 45
297.0
 46
-7.559999999999997
 47
-20.06
 48
0.0
 49
0.0
140
0.0
141
0.0
142
1.0
143
1.0
 70
   692
 72
     1
 73
     0
 74
     1
  7

 75
    16
147
1.0
148
0.0128164049386896
149
0.0090630292066862
  0
ACDBPLACEHOLDER
  5
F
102
{ACAD_REACTORS
330
E
102
}
330
E
  0
TABLESTYLE
  5
2FB
102
{ACAD_REACTORS
330
2FA
102
}
330
2FA
100
AcDbTableStyle
  3
Standard
 70
     0
 71
     0
 40
1.5
 41
1.5
280
     0
281
     0
  7
Standard
140
4.5
170
     2
 62
     0
 63
     7
283
     0
274
    -2
284
     1
 64
     0
275
    -2
285
     1
 65
     0
276
    -2
286
     1
 66
     0
277
    -2
287
     1
 67
     0
278
    -2
288
     1
 68
     0
279
    -2
289
     1
 69
     0
  7
Standard
140
6.0
170
     5
 62
     0
 63
     7
283
     0
274
    -2
284
     1
 64
     0
275
    -2
285
     1
 65
     0
276
    -2
286
     1
 66
     0
277
    -2
287
     1
 67
     0
278
    -2
288
     1
 68
     0
279
    -2
289
     1
 69
     0
  7
Standard
140
4.5
170
     5
 62
     0
 63
     7
283
     0
274
    -2
284
     1
 64
     0
275
    -2
285
     1
 65
     0
276
    -2
286
     1
 66
     0
277
    -2
287
     1
 67
     0
278
    -2
288
     1
 68
     0
279
    -2
289
     1
 69
     0
  0
DICTIONARYVAR
  5
316
102
{ACAD_REACTORS
330
2CC
102
}
330
2CC
100
DictionaryVariables
280
     0
  1
STANDARD
  0
DICTIONARYVAR
  5
2CE
102
{ACAD_REACTORS
330
2CC
102
}
330
2CC
100
DictionaryVariables
280
     0
  1
2
  0
DICTIONARYVAR
  5
2CD
102
{ACAD_REACTORS
330
2CC
102
}
330
2CC
100
DictionaryVariables
280
     0
  1
1
  0
DICTIONARYVAR
  5
7C1
102
{ACAD_REACTORS
330
2CC
102
}
330
2CC
100
DictionaryVariables
280
     0
  1

  0
DICTIONARY
  5
831
330
22
100
AcDbDictionary
280
     1
281
     1
  3
ACAD_XREC_ROUNDTRIP
360
832
  0
DICTIONARY
  5
839
330
826
100
AcDbDictionary
280
     1
281
     1
  3
ACAD_XREC_ROUNDTRIP
360
83A
  0
DICTIONARY
  5
835
330
C1
100
AcDbDictionary
280
     1
281
     1
  3
ACAD_XREC_ROUNDTRIP
360
836
  0
XRECORD
  5
832
102
{ACAD_REACTORS
330
831
102
}
330
831
100
AcDbXrecord
280
     1
102
SHADEPLOT
 70
     0
102
SHADEPLOTRESLEVEL
 70
     2
102
SHADEPLOTCUSTOMDPI
 70
   300
  0
XRECORD
  5
83A
102
{ACAD_REACTORS
330
839
102
}
330
839
100
AcDbXrecord
280
     1
102
SHADEPLOT
 70
     0
102
SHADEPLOTRESLEVEL
 70
     2
102
SHADEPLOTCUSTOMDPI
 70
   300
  0
XRECORD
  5
836
102
{ACAD_REACTORS
330
835
102
}
330
835
100
AcDbXrecord
280
     1
102
SHADEPLOT
 70
     0
102
SHADEPLOTRESLEVEL
 70
     2
102
SHADEPLOTCUSTOMDPI
 70
   300
  0
ENDSEC
  0
EOF
