M48
;Layer_Color=9474304
;FILE_FORMAT=2:5
INCH,LZ
;TYPE=PLATED
T1F00S00C0.01968
T2F00S00C0.03150
T3F00S00C0.03937
T4F00S00C0.07874
%
T01
X0475394Y0293307
X0482283Y0305118
X0497047Y0302165
X0576772Y0292323
X0447835Y0298228
X044685Y0277559
X0452756Y0244094
X0402559Y0261811
X038189Y0269685
X0370079Y0288386
X0410433Y0284449
X0417323Y0308071
X0372047Y0241142
X0386811Y0212598
X0278543Y0312992
X028248Y0339567
X0312008Y0411221
X0278543Y0444882
X0334646Y0411221
X0362795Y0411811
X0379921Y0378937
X0372047Y0320866
X0429134Y0417323
X0480315Y0366142
X0494095Y0353346
X0566929Y0363189
T02
X0211614Y0255748
Y0265748
X0213583Y0324803
X0223583
X0223425Y034941
X0213425
X021752Y037878
Y0388779
X025689Y0433071
Y0336614
X0420276Y0395669
X0430276
X0426181Y044685
X0436024
X0445866
X0455709
X0465551
X046063Y0423228
X0416339Y044685
X0406496
X0396654
X0386811
X0475394
X0485236
X0495079
X0504921
X0514764
X0524606
X0534449
X0529724Y04
X0539567
X0549409
X0559252
X0612205Y0404528
Y041437
Y0394685
Y0384842
Y0375
Y0365158
Y0355315
X0480315Y0423228
X0470472
T03
X0591221Y0279528
X0601221
X0611221
X0312008Y0386024
X0334646
T04
X0578642Y0218504
X0248721
Y0455512
X0578642
M30
