%FSLAX25Y25*%
%MOIN*%
G70*
G01*
G75*
G04 Layer_Physical_Order=1*
G04 Layer_Color=255*
%ADD10R,0.09449X0.03937*%
%ADD11R,0.09449X0.12992*%
%ADD12R,0.04331X0.03937*%
%ADD13R,0.03937X0.04331*%
%ADD14R,0.02362X0.05118*%
%ADD15R,0.03740X0.03543*%
%ADD16R,0.03740X0.03543*%
%ADD17R,0.07087X0.06299*%
%ADD18C,0.01969*%
%ADD19C,0.01181*%
%ADD20C,0.11811*%
%ADD21C,0.07874*%
%ADD22R,0.07874X0.07874*%
%ADD23C,0.09843*%
%ADD24C,0.05906*%
G36*
X331890Y459429D02*
Y455118D01*
X333071D01*
Y455118D01*
X336614D01*
Y453346D01*
X338583D01*
Y449606D01*
X340158D01*
Y454921D01*
X341142D01*
Y454921D01*
X342323D01*
Y454724D01*
X346063D01*
Y452756D01*
X347834D01*
Y449213D01*
X347835D01*
Y448032D01*
X348984D01*
Y446654D01*
X341142D01*
Y445650D01*
X340559Y445573D01*
X340104Y445385D01*
X339649Y445196D01*
X338868Y444597D01*
X334931Y440660D01*
X334331Y439878D01*
X333955Y438969D01*
X333826Y437992D01*
Y436417D01*
X331102D01*
Y428150D01*
X333661D01*
Y420276D01*
Y418701D01*
X341535D01*
Y426181D01*
X345079D01*
Y423425D01*
X361614D01*
Y424377D01*
X388201D01*
X392881Y419697D01*
Y388779D01*
X393010Y387803D01*
X393387Y386893D01*
X393986Y386112D01*
X400591Y379507D01*
Y280512D01*
X373851D01*
Y282823D01*
X374834Y283630D01*
X375671Y284649D01*
X376292Y285812D01*
X376675Y287074D01*
X376804Y288386D01*
X376675Y289698D01*
X376292Y290960D01*
X375671Y292122D01*
X374834Y293141D01*
X373815Y293978D01*
X372652Y294599D01*
X371391Y294982D01*
X370079Y295111D01*
X368767Y294982D01*
X367505Y294599D01*
X366342Y293978D01*
X365323Y293141D01*
X364487Y292122D01*
X363865Y290960D01*
X363483Y289698D01*
X363353Y288386D01*
X363483Y287074D01*
X363865Y285812D01*
X364487Y284649D01*
X365323Y283630D01*
X366306Y282823D01*
Y280512D01*
X361634D01*
X339282Y302864D01*
X338500Y303464D01*
X337591Y303841D01*
X336614Y303969D01*
X292901D01*
X288281Y308589D01*
X288359Y309768D01*
X289085Y310325D01*
X289085Y310325D01*
X289085Y310325D01*
X365463Y386703D01*
X366062Y387484D01*
X366251Y387939D01*
X366439Y388394D01*
X366568Y389370D01*
Y404006D01*
X367631Y404574D01*
X368949Y405657D01*
X370032Y406976D01*
X370836Y408480D01*
X371331Y410113D01*
X371499Y411811D01*
X371331Y413509D01*
X370836Y415142D01*
X370032Y416646D01*
X368949Y417965D01*
X367631Y419048D01*
X366126Y419852D01*
X364493Y420347D01*
X362795Y420514D01*
X361097Y420347D01*
X359465Y419852D01*
X357960Y419048D01*
X356641Y417965D01*
X355559Y416646D01*
X354754Y415142D01*
X354259Y413509D01*
X354092Y411811D01*
X354259Y410113D01*
X354754Y408480D01*
X355559Y406976D01*
X356641Y405657D01*
X357960Y404574D01*
X359023Y404006D01*
Y390933D01*
X286464Y318374D01*
X285284Y318431D01*
X284698Y319146D01*
X283379Y320229D01*
X282267Y320823D01*
X282187Y321429D01*
X281810Y322339D01*
X281211Y323120D01*
X273458Y330873D01*
Y335643D01*
X274603Y335930D01*
X275244Y334732D01*
X276326Y333413D01*
X277645Y332330D01*
X279150Y331526D01*
X280782Y331031D01*
X282480Y330864D01*
X284178Y331031D01*
X285811Y331526D01*
X287316Y332330D01*
X288634Y333413D01*
X289717Y334732D01*
X290521Y336236D01*
X291016Y337869D01*
X291184Y339567D01*
X291016Y341265D01*
X290667Y342418D01*
X292038Y343789D01*
X292637Y344570D01*
X292858Y345104D01*
X293014Y345480D01*
X293143Y346457D01*
Y416745D01*
X293721Y417323D01*
X303150D01*
Y426181D01*
X311024D01*
Y421850D01*
X315190D01*
X315237Y421736D01*
X315836Y420955D01*
X315836Y420955D01*
X315836D01*
Y420955D01*
X315836Y420955D01*
X319062Y417729D01*
Y398413D01*
X312382Y391732D01*
X312008Y391781D01*
X310518Y391585D01*
X309129Y391010D01*
X307936Y390095D01*
X307021Y388903D01*
X306446Y387514D01*
X306250Y386024D01*
X306446Y384533D01*
X307021Y383145D01*
X307936Y381952D01*
X309129Y381037D01*
X310518Y380462D01*
X312008Y380266D01*
X313498Y380462D01*
X314887Y381037D01*
X316079Y381952D01*
X316994Y383145D01*
X317570Y384533D01*
X317766Y386024D01*
X317717Y386397D01*
X322244Y390925D01*
X323425D01*
X328973Y385377D01*
X329084Y384533D01*
X329659Y383145D01*
X330574Y381952D01*
X331767Y381037D01*
X333155Y380462D01*
X334646Y380266D01*
X336136Y380462D01*
X337525Y381037D01*
X338717Y381952D01*
X339632Y383145D01*
X340207Y384533D01*
X340404Y386024D01*
X340207Y387514D01*
X339632Y388903D01*
X338717Y390095D01*
X337525Y391010D01*
X336136Y391585D01*
X334646Y391781D01*
X333402Y391618D01*
X326607Y398413D01*
Y419291D01*
X326479Y420268D01*
X326475Y420276D01*
D01*
X326241Y420841D01*
X326102Y421177D01*
X325828Y421534D01*
X325984Y421850D01*
X325984D01*
X325984Y421850D01*
Y440354D01*
X311024D01*
Y434875D01*
X303150D01*
Y435433D01*
Y444882D01*
D01*
Y444882D01*
X303346Y445079D01*
X315354D01*
Y449246D01*
X316216Y450053D01*
X316535Y450032D01*
Y449213D01*
X329134D01*
Y460236D01*
Y460641D01*
X330225Y461094D01*
X331890Y459429D01*
D02*
G37*
G36*
X595472Y459646D02*
X613189Y441929D01*
X629921D01*
Y266732D01*
X609744D01*
X595472Y247703D01*
Y198819D01*
X405512D01*
Y237369D01*
X411417D01*
X412394Y237498D01*
X413304Y237875D01*
X414085Y238474D01*
X414085Y238474D01*
X414085Y238474D01*
X444754Y269144D01*
X445153Y269023D01*
X446850Y268856D01*
X448548Y269023D01*
X450181Y269518D01*
X451686Y270322D01*
X453005Y271405D01*
X454087Y272724D01*
X454891Y274228D01*
X455386Y275861D01*
X455554Y277559D01*
X455386Y279257D01*
X454891Y280890D01*
X454087Y282394D01*
X453005Y283713D01*
X451686Y284796D01*
X450181Y285600D01*
X448548Y286095D01*
X446850Y286262D01*
X445153Y286095D01*
X443520Y285600D01*
X442015Y284796D01*
X440696Y283713D01*
X439614Y282394D01*
X438810Y280890D01*
X438314Y279257D01*
X438147Y277559D01*
X438314Y275861D01*
X438810Y274228D01*
X438935Y273994D01*
X409855Y244914D01*
X405512D01*
Y253656D01*
X405890Y253770D01*
X407394Y254574D01*
X408713Y255657D01*
X409796Y256976D01*
X410364Y258039D01*
X411417D01*
X412394Y258167D01*
X413304Y258544D01*
X414085Y259143D01*
X444983Y290042D01*
X446137Y289692D01*
X447835Y289525D01*
X449533Y289692D01*
X451165Y290188D01*
X452670Y290992D01*
X453989Y292074D01*
X455071Y293393D01*
X455875Y294898D01*
X456371Y296530D01*
X456538Y298228D01*
X456371Y299926D01*
X455875Y301559D01*
X455071Y303064D01*
X453989Y304382D01*
X452670Y305465D01*
X451165Y306269D01*
X449533Y306764D01*
X447835Y306932D01*
X446137Y306764D01*
X444504Y306269D01*
X442999Y305465D01*
X441680Y304382D01*
X440598Y303064D01*
X439794Y301559D01*
X439298Y299926D01*
X439131Y298228D01*
X439298Y296530D01*
X439648Y295377D01*
X438396Y294125D01*
X410923Y266652D01*
D01*
X410483Y266212D01*
X409989Y266285D01*
X409796Y266646D01*
X409658Y266814D01*
X408713Y267965D01*
X407394Y269048D01*
X405890Y269852D01*
X405512Y269967D01*
Y373043D01*
Y373933D01*
X405974Y374124D01*
X460794Y319304D01*
Y290354D01*
X460923Y289378D01*
X461300Y288468D01*
X461300Y288468D01*
X461300Y288468D01*
X461899Y287687D01*
X468789Y280797D01*
X469570Y280198D01*
X470025Y280009D01*
X470480Y279821D01*
X471457Y279692D01*
X482283D01*
X483260Y279821D01*
X484170Y280198D01*
X484951Y280797D01*
X488437Y284283D01*
X497678Y293524D01*
X498745Y293629D01*
X500378Y294125D01*
X501883Y294929D01*
X503201Y296011D01*
X504284Y297330D01*
X505088Y298835D01*
X505583Y300467D01*
X505751Y302165D01*
X505583Y303863D01*
X505088Y305496D01*
X504284Y307001D01*
X503201Y308319D01*
X501883Y309402D01*
X500378Y310206D01*
X498745Y310701D01*
X497047Y310869D01*
X495349Y310701D01*
X493717Y310206D01*
X492212Y309402D01*
X490893Y308319D01*
X490843Y308258D01*
X490352Y308356D01*
X490324Y308449D01*
X489520Y309953D01*
X488438Y311272D01*
X487119Y312355D01*
X485614Y313159D01*
X484087Y313622D01*
Y358337D01*
X485150Y358905D01*
X486469Y359988D01*
X487551Y361306D01*
X488356Y362811D01*
X488851Y364444D01*
X489018Y366142D01*
X488851Y367840D01*
X488356Y369472D01*
X487551Y370977D01*
X486469Y372296D01*
X485150Y373378D01*
X483646Y374183D01*
X482013Y374678D01*
X480315Y374845D01*
X478617Y374678D01*
X476984Y374183D01*
X475480Y373378D01*
X474161Y372296D01*
X473078Y370977D01*
X472274Y369472D01*
X471779Y367840D01*
X471612Y366142D01*
X471779Y364444D01*
X472274Y362811D01*
X473078Y361306D01*
X474161Y359988D01*
X475480Y358905D01*
X476543Y358337D01*
Y311611D01*
X476129Y311272D01*
X475047Y309953D01*
X474243Y308449D01*
X473747Y306816D01*
X473580Y305118D01*
X473747Y303420D01*
X474096Y302271D01*
X473818Y301855D01*
X473696Y301843D01*
X472678Y301535D01*
X472276Y301832D01*
Y323573D01*
X472148Y324549D01*
X471771Y325459D01*
X471172Y326240D01*
X446686Y350726D01*
Y403543D01*
X446557Y404520D01*
X446447Y404786D01*
X446180Y405430D01*
X445581Y406211D01*
X437320Y414472D01*
X437670Y415625D01*
X437837Y417323D01*
X437670Y419021D01*
X437175Y420653D01*
X436370Y422158D01*
X435288Y423477D01*
X433969Y424559D01*
X432465Y425364D01*
X430832Y425859D01*
X429134Y426026D01*
X427436Y425859D01*
X425803Y425364D01*
X424298Y424559D01*
X422980Y423477D01*
X421897Y422158D01*
X421093Y420653D01*
X420598Y419021D01*
X420431Y417323D01*
X420598Y415625D01*
X421093Y413992D01*
X421897Y412488D01*
X422980Y411169D01*
X424298Y410086D01*
X425803Y409282D01*
X427436Y408787D01*
X429134Y408619D01*
X430832Y408787D01*
X431985Y409137D01*
X439141Y401981D01*
Y352280D01*
X438679Y352089D01*
X405512Y385256D01*
Y429298D01*
X430524D01*
X473887Y385935D01*
X476663Y383159D01*
X477445Y382560D01*
X478354Y382183D01*
X478354D01*
X479331Y382054D01*
X558071D01*
X559047Y382183D01*
X559957Y382560D01*
X560738Y383159D01*
D01*
X561919Y384340D01*
X562519Y385122D01*
X562575Y385256D01*
X562707Y385577D01*
X562896Y386032D01*
X563024Y387008D01*
Y394438D01*
X564008Y395245D01*
X564844Y396264D01*
X565465Y397426D01*
X565848Y398688D01*
X565977Y400000D01*
X565848Y401312D01*
X565465Y402574D01*
X564844Y403736D01*
X564008Y404755D01*
X562988Y405592D01*
X561826Y406213D01*
X560564Y406596D01*
X559252Y406725D01*
X557940Y406596D01*
X556678Y406213D01*
X555516Y405592D01*
X554496Y404755D01*
X554165D01*
X553146Y405592D01*
X551983Y406213D01*
X550722Y406596D01*
X549409Y406725D01*
X548097Y406596D01*
X546836Y406213D01*
X545673Y405592D01*
X544654Y404755D01*
X543818Y403736D01*
X543498Y403931D01*
X543498Y403931D01*
Y403931D01*
X542347Y404815D01*
X541535Y405151D01*
Y400000D01*
Y394849D01*
X542347Y395185D01*
X543498Y396069D01*
X543498Y396069D01*
Y396069D01*
X543818Y396264D01*
Y396264D01*
X543818Y396264D01*
X544654Y395245D01*
X545673Y394408D01*
X546836Y393787D01*
X548097Y393404D01*
X549409Y393275D01*
X550722Y393404D01*
X551983Y393787D01*
X553146Y394408D01*
X554165Y395245D01*
X554496D01*
X555479Y394438D01*
Y389599D01*
X480893D01*
X440836Y429656D01*
X439497Y430995D01*
X434754Y435738D01*
X433973Y436338D01*
X433063Y436715D01*
X432087Y436843D01*
X385421D01*
X377667Y444597D01*
X376886Y445196D01*
X375976Y445573D01*
X375000Y445702D01*
X373425D01*
Y446654D01*
X360236D01*
Y475394D01*
X595472D01*
Y459646D01*
D02*
G37*
G36*
X356464Y231299D02*
X356592Y230323D01*
X356969Y229413D01*
X357569Y228632D01*
X376270Y209931D01*
X377051Y209331D01*
X377953Y208958D01*
Y198819D01*
X230315D01*
Y215603D01*
X215404Y231299D01*
X197835D01*
Y267717D01*
X204203D01*
X204996Y266841D01*
X204889Y265748D01*
X205018Y264436D01*
X205401Y263174D01*
X206022Y262012D01*
X206859Y260993D01*
X207878Y260156D01*
Y260156D01*
X207683Y259679D01*
X206800Y258528D01*
X206464Y257716D01*
X216765D01*
X216429Y258528D01*
X215545Y259679D01*
X215351Y260156D01*
Y260156D01*
X216370Y260993D01*
X217206Y262012D01*
X217828Y263174D01*
X218210Y264436D01*
X218339Y265748D01*
X218232Y266841D01*
X219025Y267717D01*
X356464D01*
Y231299D01*
D02*
G37*
G36*
X357283Y464370D02*
X341339D01*
Y464961D01*
X337028D01*
X333179Y468809D01*
X332398Y469409D01*
X331488Y469786D01*
X330512Y469914D01*
X329134D01*
Y472047D01*
X316535D01*
Y464370D01*
X316339D01*
Y464370D01*
X315158D01*
Y465354D01*
X308268D01*
Y464370D01*
X307087D01*
Y468110D01*
X297835D01*
Y467913D01*
X297047D01*
Y467913D01*
X287598D01*
Y458071D01*
Y451378D01*
X288550D01*
Y449397D01*
X287557Y448404D01*
X286389Y448577D01*
X285780Y449717D01*
X284698Y451036D01*
X283379Y452118D01*
X281874Y452923D01*
X280241Y453418D01*
X278543Y453585D01*
X276845Y453418D01*
X275213Y452923D01*
X273708Y452118D01*
X272389Y451036D01*
X271307Y449717D01*
X270502Y448212D01*
X270007Y446580D01*
X269840Y444882D01*
X270007Y443184D01*
X270502Y441551D01*
X271307Y440047D01*
X272389Y438728D01*
X273708Y437645D01*
X274771Y437077D01*
Y420276D01*
Y356878D01*
X267018Y349124D01*
X266418Y348343D01*
X266041Y347433D01*
X265913Y346457D01*
Y340538D01*
X264767Y340251D01*
X264126Y341449D01*
X263044Y342768D01*
X261725Y343851D01*
X260220Y344655D01*
X258588Y345150D01*
X256890Y345318D01*
X255192Y345150D01*
X253559Y344655D01*
X252054Y343851D01*
X250736Y342768D01*
X249653Y341449D01*
X248849Y339945D01*
X248354Y338312D01*
X248186Y336614D01*
X248354Y334916D01*
X248849Y333284D01*
X249653Y331779D01*
X250736Y330460D01*
X252054Y329378D01*
X253559Y328573D01*
X255192Y328078D01*
X256890Y327911D01*
X258588Y328078D01*
X260220Y328573D01*
X261725Y329378D01*
X263044Y330460D01*
X264126Y331779D01*
X264767Y332977D01*
X265913Y332690D01*
Y329311D01*
X266041Y328334D01*
X266418Y327424D01*
X267018Y326643D01*
X267018Y326643D01*
X267018Y326643D01*
X272935Y320726D01*
X272877Y319546D01*
X272389Y319146D01*
X271307Y317827D01*
X270502Y316323D01*
X270007Y314690D01*
X269840Y312992D01*
X270007Y311294D01*
X270502Y309662D01*
X271307Y308157D01*
X272389Y306838D01*
X273708Y305756D01*
X275213Y304951D01*
X276845Y304456D01*
X278543Y304289D01*
X280241Y304456D01*
X281395Y304806D01*
X288671Y297529D01*
X289452Y296930D01*
X289907Y296741D01*
X290362Y296553D01*
X291339Y296424D01*
X335052D01*
X349873Y281603D01*
X349421Y280512D01*
X198819D01*
Y407480D01*
X217520D01*
X231299Y421260D01*
Y426181D01*
Y475394D01*
X357283D01*
Y464370D01*
D02*
G37*
%LPC*%
G36*
X617355Y353346D02*
X614173D01*
Y350164D01*
X614984Y350500D01*
X616136Y351384D01*
X617019Y352535D01*
X617355Y353346D01*
D02*
G37*
G36*
X211457Y347441D02*
X208275D01*
X208611Y346630D01*
X209494Y345478D01*
X210646Y344595D01*
X211457Y344259D01*
Y347441D01*
D02*
G37*
G36*
X610236Y353346D02*
X607054D01*
X607390Y352535D01*
X608274Y351384D01*
X609425Y350500D01*
X610236Y350164D01*
Y353346D01*
D02*
G37*
G36*
X612205Y421095D02*
X610893Y420966D01*
X609631Y420583D01*
X608468Y419962D01*
X607449Y419126D01*
X606613Y418107D01*
X605991Y416944D01*
X605609Y415682D01*
X605479Y414370D01*
X605609Y413058D01*
X605991Y411796D01*
X606613Y410634D01*
X607449Y409615D01*
Y409283D01*
X606613Y408264D01*
X605991Y407101D01*
X605609Y405840D01*
X605479Y404528D01*
X605609Y403216D01*
X605991Y401954D01*
X606613Y400791D01*
X607449Y399772D01*
Y399441D01*
X606613Y398421D01*
X605991Y397259D01*
X605609Y395997D01*
X605479Y394685D01*
X605609Y393373D01*
X605991Y392111D01*
X606613Y390949D01*
X607449Y389930D01*
Y389598D01*
X606613Y388579D01*
X605991Y387416D01*
X605609Y386155D01*
X605479Y384842D01*
X605609Y383530D01*
X605991Y382269D01*
X606613Y381106D01*
X607449Y380087D01*
Y379755D01*
X606613Y378736D01*
X605991Y377574D01*
X605609Y376312D01*
X605479Y375000D01*
X605609Y373688D01*
X605991Y372426D01*
X606613Y371264D01*
X607449Y370245D01*
Y369913D01*
X606613Y368894D01*
X605991Y367731D01*
X605609Y366470D01*
X605479Y365158D01*
X605609Y363845D01*
X605991Y362584D01*
X606613Y361421D01*
X607449Y360402D01*
X608468Y359566D01*
Y359566D01*
X608274Y359246D01*
X608274Y359246D01*
X608274D01*
X607390Y358095D01*
X607054Y357283D01*
X617355D01*
X617019Y358095D01*
X616136Y359246D01*
X616136Y359246D01*
X616136D01*
X615941Y359566D01*
Y359566D01*
X616960Y360402D01*
X617797Y361421D01*
X618418Y362584D01*
X618801Y363845D01*
X618930Y365158D01*
X618801Y366470D01*
X618418Y367731D01*
X617797Y368894D01*
X616960Y369913D01*
Y370245D01*
X617797Y371264D01*
X618418Y372426D01*
X618801Y373688D01*
X618930Y375000D01*
X618801Y376312D01*
X618418Y377574D01*
X617797Y378736D01*
X616960Y379755D01*
Y380087D01*
X617797Y381106D01*
X618418Y382269D01*
X618801Y383530D01*
X618930Y384842D01*
X618801Y386155D01*
X618418Y387416D01*
X617797Y388579D01*
X616960Y389598D01*
Y389930D01*
X617797Y390949D01*
X618418Y392111D01*
X618801Y393373D01*
X618930Y394685D01*
X618801Y395997D01*
X618418Y397259D01*
X617797Y398421D01*
X616960Y399441D01*
Y399772D01*
X617797Y400791D01*
X618418Y401954D01*
X618801Y403216D01*
X618930Y404528D01*
X618801Y405840D01*
X618418Y407101D01*
X617797Y408264D01*
X616960Y409283D01*
Y409615D01*
X617797Y410634D01*
X618418Y411796D01*
X618801Y413058D01*
X618930Y414370D01*
X618801Y415682D01*
X618418Y416944D01*
X617797Y418107D01*
X616960Y419126D01*
X615941Y419962D01*
X614778Y420583D01*
X613517Y420966D01*
X612205Y421095D01*
D02*
G37*
G36*
X215551Y376811D02*
X212369D01*
X212705Y376000D01*
X213589Y374849D01*
X214740Y373965D01*
X215551Y373629D01*
Y376811D01*
D02*
G37*
G36*
X211457Y354560D02*
X210646Y354224D01*
X209494Y353341D01*
X208611Y352189D01*
X208275Y351378D01*
X211457D01*
Y354560D01*
D02*
G37*
G36*
X223425Y356135D02*
X222113Y356006D01*
X220851Y355623D01*
X219689Y355001D01*
X218670Y354165D01*
X217833Y353146D01*
X217356Y353341D01*
X216205Y354224D01*
X215394Y354560D01*
Y349410D01*
Y344259D01*
X216205Y344595D01*
X217356Y345478D01*
X217833Y345673D01*
Y345673D01*
X217833Y345673D01*
X218670Y344654D01*
X219689Y343818D01*
X220851Y343196D01*
X222113Y342813D01*
X223425Y342684D01*
X224737Y342813D01*
X225999Y343196D01*
X227162Y343818D01*
X228181Y344654D01*
X229017Y345673D01*
X229639Y346836D01*
X230021Y348097D01*
X230151Y349410D01*
X230021Y350722D01*
X229639Y351983D01*
X229017Y353146D01*
X228181Y354165D01*
X227162Y355001D01*
X225999Y355623D01*
X224737Y356006D01*
X223425Y356135D01*
D02*
G37*
G36*
X223583Y331528D02*
X222271Y331399D01*
X221009Y331016D01*
X219846Y330395D01*
X218827Y329559D01*
X218338D01*
X217319Y330395D01*
X216156Y331016D01*
X214895Y331399D01*
X213583Y331528D01*
X212271Y331399D01*
X211009Y331016D01*
X209846Y330395D01*
X208827Y329559D01*
X207991Y328539D01*
X207369Y327377D01*
X206987Y326115D01*
X206857Y324803D01*
X206987Y323491D01*
X207369Y322230D01*
X207991Y321067D01*
X208827Y320048D01*
X209846Y319211D01*
X211009Y318590D01*
X212271Y318207D01*
X213583Y318078D01*
X214895Y318207D01*
X216156Y318590D01*
X217319Y319211D01*
X218338Y320048D01*
X218827D01*
X219846Y319211D01*
X221009Y318590D01*
X222271Y318207D01*
X223583Y318078D01*
X224895Y318207D01*
X226156Y318590D01*
X227319Y319211D01*
X228338Y320048D01*
X229175Y321067D01*
X229796Y322230D01*
X230179Y323491D01*
X230308Y324803D01*
X230179Y326115D01*
X229796Y327377D01*
X229175Y328539D01*
X228338Y329559D01*
X227319Y330395D01*
X226156Y331016D01*
X224895Y331399D01*
X223583Y331528D01*
D02*
G37*
G36*
X209646Y253780D02*
X206464D01*
X206800Y252968D01*
X207683Y251817D01*
X208835Y250934D01*
X209646Y250598D01*
Y253780D01*
D02*
G37*
G36*
X578642Y229668D02*
X576895Y229531D01*
X575192Y229122D01*
X573573Y228451D01*
X572080Y227536D01*
X570747Y226398D01*
X569610Y225066D01*
X568694Y223572D01*
X568024Y221954D01*
X567615Y220250D01*
X567477Y218504D01*
X567615Y216757D01*
X568024Y215054D01*
X568694Y213435D01*
X569610Y211942D01*
X570747Y210610D01*
X572080Y209472D01*
X573573Y208556D01*
X575192Y207886D01*
X576895Y207477D01*
X578642Y207340D01*
X580388Y207477D01*
X582092Y207886D01*
X583710Y208556D01*
X585204Y209472D01*
X586536Y210610D01*
X587674Y211942D01*
X588589Y213435D01*
X589260Y215054D01*
X589669Y216757D01*
X589806Y218504D01*
X589669Y220250D01*
X589260Y221954D01*
X588589Y223572D01*
X587674Y225066D01*
X586536Y226398D01*
X585204Y227536D01*
X583710Y228451D01*
X582092Y229122D01*
X580388Y229531D01*
X578642Y229668D01*
D02*
G37*
G36*
X248721D02*
X246974Y229531D01*
X245270Y229122D01*
X243652Y228451D01*
X242158Y227536D01*
X240826Y226398D01*
X239688Y225066D01*
X238773Y223572D01*
X238103Y221954D01*
X237694Y220250D01*
X237556Y218504D01*
X237694Y216757D01*
X238103Y215054D01*
X238773Y213435D01*
X239688Y211942D01*
X240826Y210610D01*
X242158Y209472D01*
X243652Y208556D01*
X245270Y207886D01*
X246974Y207477D01*
X248721Y207340D01*
X250467Y207477D01*
X252170Y207886D01*
X253789Y208556D01*
X255283Y209472D01*
X256615Y210610D01*
X257753Y211942D01*
X258668Y213435D01*
X259338Y215054D01*
X259747Y216757D01*
X259885Y218504D01*
X259747Y220250D01*
X259338Y221954D01*
X258668Y223572D01*
X257753Y225066D01*
X256615Y226398D01*
X255283Y227536D01*
X253789Y228451D01*
X252170Y229122D01*
X250467Y229531D01*
X248721Y229668D01*
D02*
G37*
G36*
X216765Y253780D02*
X213583D01*
Y250598D01*
X214394Y250934D01*
X215545Y251817D01*
X216429Y252968D01*
X216765Y253780D01*
D02*
G37*
G36*
X566929Y370903D02*
X565424Y370755D01*
X563977Y370316D01*
X562643Y369603D01*
X561474Y368644D01*
X560515Y367475D01*
X559802Y366141D01*
X559363Y364694D01*
X559215Y363189D01*
X559363Y361684D01*
X559802Y360237D01*
X560515Y358903D01*
X561474Y357734D01*
X562581Y356826D01*
X562606Y356326D01*
X531496Y325217D01*
X528258Y328455D01*
X528258Y328455D01*
X502736Y353977D01*
X502631Y355044D01*
X502135Y356677D01*
X501331Y358182D01*
X500249Y359501D01*
X498930Y360583D01*
X497425Y361387D01*
X495792Y361883D01*
X494095Y362050D01*
X492397Y361883D01*
X490764Y361387D01*
X489259Y360583D01*
X487940Y359501D01*
X486858Y358182D01*
X486054Y356677D01*
X485558Y355044D01*
X485391Y353346D01*
X485558Y351648D01*
X486054Y350016D01*
X486858Y348511D01*
X487940Y347192D01*
X489259Y346110D01*
X490764Y345306D01*
X492397Y344810D01*
X494095Y344643D01*
X495792Y344810D01*
X497425Y345306D01*
X498930Y346110D01*
X499481Y346562D01*
X522923Y323120D01*
D01*
X522923Y323120D01*
X525177Y320866D01*
X507913Y303603D01*
X507314Y302821D01*
X506937Y301911D01*
X506808Y300935D01*
Y291671D01*
X481951Y266814D01*
X472687D01*
X471711Y266685D01*
X471067Y266419D01*
X470801Y266308D01*
X470019Y265709D01*
X456321Y252010D01*
X456086Y252135D01*
X454454Y252631D01*
X452756Y252798D01*
X451058Y252631D01*
X449425Y252135D01*
X447921Y251331D01*
X446602Y250249D01*
X445519Y248930D01*
X444715Y247425D01*
X444220Y245792D01*
X444053Y244094D01*
X444220Y242396D01*
X444715Y240764D01*
X445519Y239259D01*
X446602Y237940D01*
X447921Y236858D01*
X449425Y236054D01*
X451058Y235558D01*
X452756Y235391D01*
X454454Y235558D01*
X456086Y236054D01*
X457591Y236858D01*
X458910Y237940D01*
X459993Y239259D01*
X460797Y240764D01*
X461292Y242396D01*
X461459Y244094D01*
X461292Y245792D01*
X461171Y246191D01*
X474250Y259269D01*
X483514D01*
X484490Y259397D01*
X485400Y259774D01*
X486181Y260374D01*
X492226Y266419D01*
X492454Y266646D01*
X513248Y287441D01*
X513848Y288222D01*
D01*
D01*
D01*
X514225Y289132D01*
X514353Y290108D01*
Y299372D01*
X530512Y315531D01*
X549498Y296545D01*
X549498Y296545D01*
X549498D01*
X549498Y296545D01*
X549498D01*
X549498Y296545D01*
Y296545D01*
Y296545D01*
D01*
D01*
X549498D01*
Y296545D01*
X550279Y295946D01*
X551189Y295569D01*
X552165Y295440D01*
X568246D01*
X568544Y295039D01*
X568235Y294021D01*
X568068Y292323D01*
X568235Y290625D01*
X568731Y288992D01*
X569535Y287488D01*
X570617Y286169D01*
X571936Y285086D01*
X573441Y284282D01*
X575074Y283787D01*
X576772Y283619D01*
X578470Y283787D01*
X580102Y284282D01*
X581607Y285086D01*
X582926Y286169D01*
X584008Y287488D01*
X584812Y288992D01*
X585308Y290625D01*
X585475Y292323D01*
X585308Y294021D01*
X584812Y295654D01*
X584008Y297158D01*
X582926Y298477D01*
X581607Y299559D01*
X580102Y300364D01*
X578470Y300859D01*
X576772Y301026D01*
X575074Y300859D01*
X574676Y300738D01*
X573534Y301880D01*
X572752Y302480D01*
X571842Y302856D01*
X570866Y302985D01*
X553728D01*
X536831Y319882D01*
X569597Y352647D01*
X570196Y353429D01*
X570573Y354339D01*
X570702Y355315D01*
X570702Y355315D01*
X570702Y355315D01*
Y355315D01*
Y356500D01*
X571215Y356775D01*
X572384Y357734D01*
X573343Y358903D01*
X574056Y360237D01*
X574495Y361684D01*
X574644Y363189D01*
X574495Y364694D01*
X574056Y366141D01*
X573343Y367475D01*
X572384Y368644D01*
X571215Y369603D01*
X569881Y370316D01*
X568434Y370755D01*
X566929Y370903D01*
D02*
G37*
G36*
X601221Y286253D02*
X599908Y286124D01*
X598647Y285741D01*
X597484Y285119D01*
X596465Y284283D01*
X595976D01*
X595020Y285067D01*
D01*
X594957Y285119D01*
X593794Y285741D01*
X592532Y286124D01*
X592149Y286161D01*
X591221Y286253D01*
X589908Y286124D01*
X588647Y285741D01*
X587484Y285119D01*
X586465Y284283D01*
X585629Y283264D01*
X585007Y282101D01*
X584624Y280840D01*
X584495Y279528D01*
X584624Y278216D01*
X585007Y276954D01*
X585629Y275791D01*
X586465Y274772D01*
X587484Y273936D01*
X588647Y273314D01*
X589908Y272932D01*
X591221Y272802D01*
X592149Y272894D01*
X592532Y272932D01*
X593794Y273314D01*
X594957Y273936D01*
X595976Y274772D01*
X596465D01*
X597484Y273936D01*
X598647Y273314D01*
X599908Y272932D01*
X601221Y272802D01*
X602532Y272932D01*
X603794Y273314D01*
X604099Y273477D01*
X604528Y273220D01*
Y272835D01*
X617913D01*
Y286221D01*
X604528D01*
Y285835D01*
X604099Y285578D01*
X603794Y285741D01*
X602532Y286124D01*
X601221Y286253D01*
D02*
G37*
G36*
X315158Y470669D02*
X313681D01*
Y469291D01*
X315158D01*
Y470669D01*
D02*
G37*
G36*
X222670Y376811D02*
X219488D01*
Y373629D01*
X220299Y373965D01*
X221451Y374849D01*
X222334Y376000D01*
X222670Y376811D01*
D02*
G37*
G36*
X536417Y452001D02*
Y448819D01*
X539599D01*
X539263Y449630D01*
X538380Y450781D01*
X537228Y451665D01*
X536417Y452001D01*
D02*
G37*
G36*
X578642Y466676D02*
X576895Y466539D01*
X575192Y466130D01*
X573573Y465459D01*
X572080Y464544D01*
X570747Y463406D01*
X569610Y462074D01*
X568694Y460580D01*
X568024Y458962D01*
X567615Y457258D01*
X567477Y455512D01*
X567615Y453765D01*
X568024Y452062D01*
X568694Y450443D01*
X569610Y448950D01*
X570747Y447617D01*
X572080Y446480D01*
X573573Y445564D01*
X575192Y444894D01*
X576895Y444485D01*
X578642Y444347D01*
X580388Y444485D01*
X582092Y444894D01*
X583710Y445564D01*
X585204Y446480D01*
X586536Y447617D01*
X587674Y448950D01*
X588589Y450443D01*
X589260Y452062D01*
X589669Y453765D01*
X589806Y455512D01*
X589669Y457258D01*
X589260Y458962D01*
X588589Y460580D01*
X587674Y462074D01*
X586536Y463406D01*
X585204Y464544D01*
X583710Y465459D01*
X582092Y466130D01*
X580388Y466539D01*
X578642Y466676D01*
D02*
G37*
G36*
X248721D02*
X246974Y466539D01*
X245270Y466130D01*
X243652Y465459D01*
X242158Y464544D01*
X240826Y463406D01*
X239688Y462074D01*
X238773Y460580D01*
X238103Y458962D01*
X237694Y457258D01*
X237556Y455512D01*
X237694Y453765D01*
X238103Y452062D01*
X238773Y450443D01*
X239688Y448950D01*
X240826Y447617D01*
X242158Y446480D01*
X243652Y445564D01*
X245270Y444894D01*
X246974Y444485D01*
X248721Y444347D01*
X250467Y444485D01*
X252170Y444894D01*
X253789Y445564D01*
X255283Y446480D01*
X256615Y447617D01*
X257753Y448950D01*
X258668Y450443D01*
X259338Y452062D01*
X259747Y453765D01*
X259885Y455512D01*
X259747Y457258D01*
X259338Y458962D01*
X258668Y460580D01*
X257753Y462074D01*
X256615Y463406D01*
X255283Y464544D01*
X253789Y465459D01*
X252170Y466130D01*
X250467Y466539D01*
X248721Y466676D01*
D02*
G37*
G36*
X344094Y450787D02*
X342323D01*
Y449213D01*
X344094D01*
Y450787D01*
D02*
G37*
G36*
X524606Y453576D02*
X523294Y453446D01*
X522033Y453064D01*
X520870Y452442D01*
X519851Y451606D01*
X519519D01*
X518500Y452442D01*
X517337Y453064D01*
X516076Y453446D01*
X514764Y453576D01*
X513452Y453446D01*
X512190Y453064D01*
X511027Y452442D01*
X510008Y451606D01*
X509677D01*
X508658Y452442D01*
X507495Y453064D01*
X506233Y453446D01*
X504921Y453576D01*
X503609Y453446D01*
X502348Y453064D01*
X501185Y452442D01*
X500166Y451606D01*
X499329Y450587D01*
X499010Y450781D01*
X499010Y450781D01*
Y450781D01*
X497858Y451665D01*
X497047Y452001D01*
Y446850D01*
Y441700D01*
X497858Y442036D01*
X499010Y442919D01*
X499010Y442919D01*
Y442919D01*
X499329Y443114D01*
Y443114D01*
X499329Y443114D01*
X500166Y442095D01*
X501185Y441258D01*
X502348Y440637D01*
X503609Y440254D01*
X504921Y440125D01*
X506233Y440254D01*
X507495Y440637D01*
X508658Y441258D01*
X509677Y442095D01*
X510008D01*
X511027Y441258D01*
X512190Y440637D01*
X513452Y440254D01*
X514764Y440125D01*
X516076Y440254D01*
X517337Y440637D01*
X518500Y441258D01*
X519519Y442095D01*
X519851D01*
X520870Y441258D01*
X522033Y440637D01*
X523294Y440254D01*
X524606Y440125D01*
X525918Y440254D01*
X527180Y440637D01*
X528343Y441258D01*
X529362Y442095D01*
X530198Y443114D01*
X530198D01*
D01*
X530518Y442919D01*
X530518Y442919D01*
Y442919D01*
X531669Y442036D01*
X532480Y441700D01*
Y446850D01*
Y452001D01*
X531669Y451665D01*
X530518Y450781D01*
X530518Y450781D01*
Y450781D01*
X530198Y450587D01*
X529362Y451606D01*
X528343Y452442D01*
X527180Y453064D01*
X525918Y453446D01*
X524606Y453576D01*
D02*
G37*
G36*
X485236D02*
X483924Y453446D01*
X482663Y453064D01*
X481500Y452442D01*
X480481Y451606D01*
X480149D01*
X479130Y452442D01*
X477967Y453064D01*
X476706Y453446D01*
X475394Y453576D01*
X474082Y453446D01*
X473827Y453369D01*
X472820Y453064D01*
X471657Y452442D01*
X470638Y451606D01*
X470307D01*
X469288Y452442D01*
X468125Y453064D01*
X466863Y453446D01*
X465551Y453576D01*
X464239Y453446D01*
X462978Y453064D01*
X461815Y452442D01*
X460796Y451606D01*
X460464D01*
X459445Y452442D01*
X458282Y453064D01*
X457021Y453446D01*
X455709Y453576D01*
X454397Y453446D01*
X453135Y453064D01*
X451972Y452442D01*
X450953Y451606D01*
X450622D01*
X449603Y452442D01*
X448440Y453064D01*
X447178Y453446D01*
X445866Y453576D01*
X444554Y453446D01*
X443293Y453064D01*
X442130Y452442D01*
X441111Y451606D01*
X440779D01*
X439760Y452442D01*
X438597Y453064D01*
X437336Y453446D01*
X436024Y453576D01*
X434712Y453446D01*
X433450Y453064D01*
X432287Y452442D01*
X431268Y451606D01*
X430937D01*
X429917Y452442D01*
X428755Y453064D01*
X427493Y453446D01*
X426181Y453576D01*
X424869Y453446D01*
X423607Y453064D01*
X422445Y452442D01*
X421426Y451606D01*
X421094D01*
X420075Y452442D01*
X418912Y453064D01*
X417651Y453446D01*
X416339Y453576D01*
X415027Y453446D01*
X413765Y453064D01*
X412602Y452442D01*
X411583Y451606D01*
X411252D01*
X410232Y452442D01*
X409070Y453064D01*
X407808Y453446D01*
X406496Y453576D01*
X405184Y453446D01*
X403922Y453064D01*
X402760Y452442D01*
X401741Y451606D01*
X401409D01*
X400390Y452442D01*
X399227Y453064D01*
X397966Y453446D01*
X396654Y453576D01*
X395341Y453446D01*
X394080Y453064D01*
X392917Y452442D01*
X391898Y451606D01*
X391566D01*
X390547Y452442D01*
X389385Y453064D01*
X388123Y453446D01*
X386811Y453576D01*
X385499Y453446D01*
X384237Y453064D01*
X383075Y452442D01*
X382055Y451606D01*
X381219Y450587D01*
X380598Y449424D01*
X380215Y448162D01*
X380086Y446850D01*
X380215Y445538D01*
X380598Y444277D01*
X381219Y443114D01*
X382055Y442095D01*
X383075Y441258D01*
X384237Y440637D01*
X385499Y440254D01*
X386811Y440125D01*
X388123Y440254D01*
X389385Y440637D01*
X390547Y441258D01*
X391566Y442095D01*
X391898D01*
X392917Y441258D01*
X394080Y440637D01*
X395341Y440254D01*
X396654Y440125D01*
X397966Y440254D01*
X399227Y440637D01*
X400390Y441258D01*
X401409Y442095D01*
X401741D01*
X402760Y441258D01*
X403922Y440637D01*
X405184Y440254D01*
X406496Y440125D01*
X407808Y440254D01*
X409070Y440637D01*
X410232Y441258D01*
X411252Y442095D01*
X411583D01*
X412602Y441258D01*
X413765Y440637D01*
X415027Y440254D01*
X416339Y440125D01*
X417651Y440254D01*
X418912Y440637D01*
X420075Y441258D01*
X421094Y442095D01*
X421426D01*
X422445Y441258D01*
X423607Y440637D01*
X424869Y440254D01*
X426181Y440125D01*
X427493Y440254D01*
X428755Y440637D01*
X429917Y441258D01*
X430937Y442095D01*
X431268D01*
X432287Y441258D01*
X433450Y440637D01*
X434712Y440254D01*
X436024Y440125D01*
X437336Y440254D01*
X438597Y440637D01*
X439760Y441258D01*
X440779Y442095D01*
X441111D01*
X442130Y441258D01*
X443293Y440637D01*
X444554Y440254D01*
X445866Y440125D01*
X447178Y440254D01*
X448440Y440637D01*
X449603Y441258D01*
X450622Y442095D01*
X450953D01*
X451972Y441258D01*
X453135Y440637D01*
X454397Y440254D01*
X455709Y440125D01*
X457021Y440254D01*
X458282Y440637D01*
X459445Y441258D01*
X460464Y442095D01*
X460796D01*
X461815Y441258D01*
X462978Y440637D01*
X464239Y440254D01*
X465551Y440125D01*
X466863Y440254D01*
X468125Y440637D01*
X469288Y441258D01*
X470307Y442095D01*
X470638D01*
X471657Y441258D01*
X472820Y440637D01*
X473827Y440332D01*
X474082Y440254D01*
X475394Y440125D01*
X476706Y440254D01*
X477967Y440637D01*
X479130Y441258D01*
X480149Y442095D01*
X480481D01*
X481500Y441258D01*
X482663Y440637D01*
X483924Y440254D01*
X485236Y440125D01*
X486548Y440254D01*
X487810Y440637D01*
X488973Y441258D01*
X489992Y442095D01*
X490828Y443114D01*
X490828D01*
D01*
X491148Y442919D01*
X491148Y442919D01*
Y442919D01*
X492299Y442036D01*
X493110Y441700D01*
Y446850D01*
Y452001D01*
X492299Y451665D01*
X491148Y450781D01*
X491148Y450781D01*
Y450781D01*
X490828Y450587D01*
X489992Y451606D01*
X488973Y452442D01*
X487810Y453064D01*
X486548Y453446D01*
X485236Y453576D01*
D02*
G37*
G36*
X334646Y451378D02*
X333071D01*
Y449606D01*
X334646D01*
Y451378D01*
D02*
G37*
G36*
X539599Y444882D02*
X536417D01*
Y441700D01*
X537228Y442036D01*
X538380Y442919D01*
X539263Y444071D01*
X539599Y444882D01*
D02*
G37*
G36*
X529724Y406725D02*
X528412Y406596D01*
X527151Y406213D01*
X525988Y405592D01*
X524969Y404755D01*
X524132Y403736D01*
X523511Y402574D01*
X523128Y401312D01*
X522999Y400000D01*
X523128Y398688D01*
X523511Y397426D01*
X524132Y396264D01*
X524969Y395245D01*
X525988Y394408D01*
X527151Y393787D01*
X528412Y393404D01*
X529724Y393275D01*
X531036Y393404D01*
X532298Y393787D01*
X533461Y394408D01*
X534480Y395245D01*
X535316Y396264D01*
X535316D01*
D01*
X535636Y396069D01*
X535636Y396069D01*
Y396069D01*
X536787Y395185D01*
X537598Y394849D01*
Y400000D01*
Y405151D01*
X536787Y404815D01*
X535636Y403931D01*
X535636Y403931D01*
Y403931D01*
X535316Y403736D01*
X534480Y404755D01*
X533461Y405592D01*
X532298Y406213D01*
X531036Y406596D01*
X529724Y406725D01*
D02*
G37*
G36*
X309744Y470669D02*
X308268D01*
Y469291D01*
X309744D01*
Y470669D01*
D02*
G37*
G36*
X217520Y395505D02*
X216208Y395376D01*
X214946Y394993D01*
X213783Y394371D01*
X212764Y393535D01*
X211928Y392516D01*
X211306Y391353D01*
X210924Y390092D01*
X210794Y388779D01*
X210924Y387468D01*
X211306Y386206D01*
X211928Y385043D01*
X212764Y384024D01*
X213783Y383188D01*
Y383188D01*
X213589Y382711D01*
X212705Y381559D01*
X212369Y380748D01*
X222670D01*
X222334Y381559D01*
X221451Y382711D01*
X221256Y383188D01*
Y383188D01*
X222275Y384024D01*
X223112Y385043D01*
X223733Y386206D01*
X224116Y387468D01*
X224245Y388779D01*
X224116Y390092D01*
X223733Y391353D01*
X223112Y392516D01*
X222275Y393535D01*
X221256Y394371D01*
X220093Y394993D01*
X218832Y395376D01*
X217520Y395505D01*
D02*
G37*
G36*
X430276Y402395D02*
X428964Y402265D01*
X427702Y401883D01*
X426539Y401261D01*
X425520Y400425D01*
X425031D01*
X424012Y401261D01*
X422849Y401883D01*
X421588Y402265D01*
X420276Y402395D01*
X418964Y402265D01*
X417702Y401883D01*
X416539Y401261D01*
X415520Y400425D01*
X414684Y399406D01*
X414062Y398243D01*
X413680Y396981D01*
X413550Y395669D01*
X413680Y394357D01*
X414062Y393096D01*
X414684Y391933D01*
X415520Y390914D01*
X416539Y390077D01*
X417702Y389456D01*
X418964Y389073D01*
X420276Y388944D01*
X421588Y389073D01*
X422849Y389456D01*
X424012Y390077D01*
X425031Y390914D01*
X425520D01*
X426539Y390077D01*
X427702Y389456D01*
X428964Y389073D01*
X430276Y388944D01*
X431588Y389073D01*
X432849Y389456D01*
X434012Y390077D01*
X435031Y390914D01*
X435868Y391933D01*
X436489Y393096D01*
X436872Y394357D01*
X437001Y395669D01*
X436872Y396981D01*
X436489Y398243D01*
X435868Y399406D01*
X435031Y400425D01*
X434012Y401261D01*
X432849Y401883D01*
X431588Y402265D01*
X430276Y402395D01*
D02*
G37*
G36*
X480315Y429954D02*
X479003Y429824D01*
X478346Y429625D01*
X477741Y429442D01*
X476579Y428820D01*
X475560Y427984D01*
X474723Y426965D01*
X474403Y427159D01*
X474403Y427159D01*
Y427159D01*
X473425Y427910D01*
X473252Y428043D01*
X472441Y428379D01*
Y423228D01*
Y418078D01*
X473252Y418414D01*
X474403Y419297D01*
X474403Y419297D01*
Y419297D01*
Y419297D01*
X474723Y419492D01*
D01*
Y419492D01*
X474723Y419492D01*
X475560Y418473D01*
X476579Y417636D01*
X477741Y417015D01*
X479003Y416632D01*
X480315Y416503D01*
X481627Y416632D01*
X482889Y417015D01*
X484051Y417636D01*
X485071Y418473D01*
X485907Y419492D01*
X486528Y420655D01*
X486911Y421916D01*
X487040Y423228D01*
X486911Y424540D01*
X486528Y425802D01*
X485907Y426965D01*
X485071Y427984D01*
X484051Y428820D01*
X482889Y429442D01*
X481627Y429824D01*
X480315Y429954D01*
D02*
G37*
G36*
X256890Y441774D02*
X255192Y441607D01*
X253559Y441112D01*
X252054Y440307D01*
X250736Y439225D01*
X249653Y437906D01*
X248849Y436402D01*
X248354Y434769D01*
X248186Y433071D01*
X248354Y431373D01*
X248849Y429740D01*
X249653Y428235D01*
X250736Y426917D01*
X251632Y426181D01*
X252054Y425834D01*
X253559Y425030D01*
X255192Y424535D01*
X256890Y424368D01*
X258588Y424535D01*
X260220Y425030D01*
X261725Y425834D01*
X261755Y425859D01*
X262148Y426181D01*
X263044Y426917D01*
X264126Y428235D01*
X264931Y429740D01*
X265426Y431373D01*
X265593Y433071D01*
X265426Y434769D01*
X264931Y436402D01*
X264126Y437906D01*
X263044Y439225D01*
X261725Y440307D01*
X260220Y441112D01*
X258588Y441607D01*
X256890Y441774D01*
D02*
G37*
G36*
X460630Y429954D02*
X459318Y429824D01*
X458056Y429442D01*
X456893Y428820D01*
X455874Y427984D01*
X455038Y426965D01*
X454417Y425802D01*
X454034Y424540D01*
X453905Y423228D01*
X454034Y421916D01*
X454417Y420655D01*
X455038Y419492D01*
X455874Y418473D01*
X456893Y417636D01*
X458056Y417015D01*
X459318Y416632D01*
X460630Y416503D01*
X461942Y416632D01*
X463204Y417015D01*
X464366Y417636D01*
X465385Y418473D01*
X466222Y419492D01*
X466222D01*
D01*
X466541Y419297D01*
X466541Y419297D01*
Y419297D01*
X467693Y418414D01*
X468504Y418078D01*
Y423228D01*
Y428379D01*
X467693Y428043D01*
X466541Y427159D01*
X466541Y427159D01*
Y427159D01*
X466222Y426965D01*
X465385Y427984D01*
X464366Y428820D01*
X463204Y429442D01*
X461942Y429824D01*
X460630Y429954D01*
D02*
G37*
%LPD*%
D10*
X295669Y440158D02*
D03*
Y431102D02*
D03*
Y422047D02*
D03*
D11*
X318504Y431102D02*
D03*
D12*
X346063Y459646D02*
D03*
X352756D02*
D03*
X352756Y441929D02*
D03*
X346063D02*
D03*
X361811D02*
D03*
X368504D02*
D03*
X350000Y428150D02*
D03*
X356693D02*
D03*
X352756Y452756D02*
D03*
X346063D02*
D03*
X310433Y449803D02*
D03*
X303740D02*
D03*
D13*
X336614Y460039D02*
D03*
Y453346D02*
D03*
X292323Y462992D02*
D03*
Y456299D02*
D03*
D14*
X341339Y432283D02*
D03*
X333858D02*
D03*
X337598Y424016D02*
D03*
D15*
X311713Y459842D02*
D03*
X302461Y463583D02*
D03*
D16*
X311713Y467323D02*
D03*
D17*
X322835Y455118D02*
D03*
Y466142D02*
D03*
D18*
X302461Y451083D02*
Y463583D01*
Y451083D02*
X303740Y449803D01*
X480315Y311024D02*
Y366142D01*
Y311024D02*
X482283Y309055D01*
Y305118D02*
Y309055D01*
X494095Y353346D02*
X498032D01*
X510581Y300935D02*
X529528Y319882D01*
X510581Y290108D02*
Y300935D01*
X453740Y244094D02*
X472687Y263041D01*
X483514D01*
X529528Y319882D02*
X531496D01*
X483514Y263041D02*
X510581Y290108D01*
X452756Y244094D02*
X453740D01*
X411417Y241142D02*
X443405Y273130D01*
X446358D01*
X411417Y261811D02*
X447835Y298228D01*
X402559Y261811D02*
X411417D01*
X552165Y299213D02*
X570866D01*
X576772Y293307D01*
Y292323D02*
Y293307D01*
X525591Y325787D02*
Y325787D01*
X498032Y353346D02*
X525591Y325787D01*
Y325787D02*
X531496Y319882D01*
X566929Y355315D01*
X531496Y319882D02*
X552165Y299213D01*
X372047Y241142D02*
X411417D01*
X375984Y269685D02*
X381890D01*
X370079Y275590D02*
X375984Y269685D01*
X370079Y275590D02*
Y288386D01*
X566929Y355315D02*
Y363189D01*
X286417Y312992D02*
X362795Y389370D01*
Y411811D01*
X278543Y355315D02*
Y444882D01*
X497047Y298228D02*
Y302165D01*
X482283Y283465D02*
X497047Y298228D01*
X352756Y441929D02*
Y452756D01*
X352756Y452756D01*
Y459646D01*
X337008D02*
X346063D01*
X336614Y460039D02*
X337008Y459646D01*
X278543Y312992D02*
Y320452D01*
X269685Y329311D02*
X278543Y320452D01*
X269685Y329311D02*
Y346457D01*
X278543Y355315D01*
Y312992D02*
X286417D01*
X298622Y447835D02*
X300590Y449803D01*
X303740D01*
X298622Y440158D02*
Y447835D01*
X292913Y463583D02*
X302461D01*
X292323Y462992D02*
X292913Y463583D01*
X292323Y447835D02*
Y456299D01*
X293110Y422047D02*
X298622D01*
X289370Y418307D02*
X293110Y422047D01*
X289370Y346457D02*
Y418307D01*
X282480Y339567D02*
X289370Y346457D01*
X286417Y436024D02*
X291339Y431102D01*
X286417Y436024D02*
Y441929D01*
X292323Y447835D01*
X336614Y453346D02*
X345472D01*
X330512Y466142D02*
X336614Y460039D01*
X322835Y466142D02*
X330512D01*
X327165Y448819D02*
X331693Y453346D01*
X327165Y418701D02*
X334646Y411221D01*
X316437Y455118D02*
X322835D01*
X311713Y459842D02*
X316437Y455118D01*
X311713Y451083D02*
Y459842D01*
X310433Y449803D02*
X311713Y451083D01*
X311713Y467323D02*
X318406Y460630D01*
X328740D01*
X331693Y457677D01*
Y454331D02*
Y457677D01*
Y454331D02*
X332677Y453346D01*
X331693D02*
X332677D01*
X336614D01*
X318504Y423622D02*
Y431102D01*
Y423622D02*
X322835Y419291D01*
Y396850D02*
Y419291D01*
X312008Y386024D02*
X322835Y396850D01*
X291339Y431102D02*
X295669D01*
X318504D01*
X333661Y386024D02*
X334646D01*
X322835Y396850D02*
X333661Y386024D01*
X361811Y437598D02*
Y441929D01*
X359252Y435039D02*
X361811Y437598D01*
X348425Y435039D02*
X359252D01*
X348425D02*
Y439567D01*
X346063Y441929D02*
X348425Y439567D01*
X345866Y432283D02*
X350000Y428150D01*
X341339Y432283D02*
X345866D01*
X327953D02*
X333858D01*
X327165Y418701D02*
Y448819D01*
X337598Y424016D02*
Y437992D01*
X341535Y441929D01*
X346063D01*
X559252Y387008D02*
Y400000D01*
X558071Y385827D02*
X559252Y387008D01*
X479331Y385827D02*
X558071D01*
X368504Y441929D02*
X375000D01*
X378937Y212598D02*
X386811D01*
X360236Y231299D02*
Y276575D01*
X336614Y300197D02*
X360236Y276575D01*
X291339Y300197D02*
X336614D01*
X278543Y312992D02*
X291339Y300197D01*
X360236Y231299D02*
X378937Y212598D01*
X468504Y300197D02*
Y323573D01*
Y300197D02*
X475394Y293307D01*
X471457Y283465D02*
X482283D01*
X464567Y290354D02*
X471457Y283465D01*
X464567Y290354D02*
Y320866D01*
X396654Y388779D02*
X464567Y320866D01*
X442913Y349163D02*
X468504Y323573D01*
X442913Y349163D02*
Y403543D01*
X429134Y417323D02*
X442913Y403543D01*
X375000Y441929D02*
X383858Y433071D01*
X432087D01*
X479331Y385827D01*
X357283Y428150D02*
X389764D01*
X396654Y421260D01*
Y388779D02*
Y421260D01*
D19*
X345472Y453346D02*
X346063Y452756D01*
D20*
X256890Y336614D02*
D03*
Y433071D02*
D03*
X482283Y305118D02*
D03*
X410433Y284449D02*
D03*
X417323Y308071D02*
D03*
X494095Y353346D02*
D03*
X429134Y417323D02*
D03*
X576772Y292323D02*
D03*
X278543Y312992D02*
D03*
X379921Y378937D02*
D03*
X278543Y444882D02*
D03*
X362795Y411811D02*
D03*
X386811Y212598D02*
D03*
X372047Y241142D02*
D03*
X452756Y244094D02*
D03*
X446850Y277559D02*
D03*
X402559Y261811D02*
D03*
X447835Y298228D02*
D03*
X480315Y366142D02*
D03*
X497047Y302165D02*
D03*
X282480Y339567D02*
D03*
X475394Y293307D02*
D03*
D21*
X559252Y400000D02*
D03*
X549409D02*
D03*
X539567D02*
D03*
X529724D02*
D03*
X591221Y279528D02*
D03*
X601221D02*
D03*
X460630Y423228D02*
D03*
X470472D02*
D03*
X480315D02*
D03*
X612205Y414370D02*
D03*
Y404528D02*
D03*
Y394685D02*
D03*
Y384842D02*
D03*
Y375000D02*
D03*
Y365158D02*
D03*
Y355315D02*
D03*
X430276Y395669D02*
D03*
X420276D02*
D03*
X211614Y265748D02*
D03*
Y255748D02*
D03*
X217520Y388779D02*
D03*
Y378780D02*
D03*
X223425Y349410D02*
D03*
X213425D02*
D03*
X465551Y446850D02*
D03*
X475394D02*
D03*
X485236D02*
D03*
X495079D02*
D03*
X504921D02*
D03*
X514764D02*
D03*
X524606D02*
D03*
X534449D02*
D03*
X455709D02*
D03*
X445866D02*
D03*
X436024D02*
D03*
X426181D02*
D03*
X416339D02*
D03*
X406496D02*
D03*
X396654D02*
D03*
X386811D02*
D03*
X213583Y324803D02*
D03*
X223583D02*
D03*
X381890Y269685D02*
D03*
X370079Y288386D02*
D03*
D22*
X611221Y279528D02*
D03*
D23*
X566929Y363189D02*
D03*
D24*
X372047Y320866D02*
D03*
X312008Y411221D02*
D03*
X334646D02*
D03*
X312008Y386024D02*
D03*
X334646D02*
D03*
M02*
