%FSLAX25Y25*%
%MOIN*%
G70*
G01*
G75*
G04 Layer_Color=32768*
%ADD10R,0.09449X0.03937*%
%ADD11R,0.09449X0.12992*%
%ADD12R,0.04331X0.03937*%
%ADD13R,0.03937X0.04331*%
%ADD14R,0.02362X0.05118*%
%ADD15R,0.03740X0.03543*%
%ADD16R,0.03740X0.03543*%
%ADD17R,0.07087X0.06299*%
%ADD18C,0.01969*%
%ADD19C,0.01181*%
%ADD20C,0.11811*%
%ADD21C,0.07874*%
%ADD22R,0.07874X0.07874*%
%ADD23C,0.09843*%
%ADD24C,0.05906*%
%ADD25R,0.19685X0.05118*%
%ADD26R,0.06299X0.07087*%
%ADD27R,0.09449X0.10236*%
%ADD28R,0.10236X0.09449*%
%ADD29R,0.05118X0.02362*%
%ADD30O,0.08661X0.02362*%
%ADD31O,0.07087X0.01181*%
%ADD32O,0.01181X0.07087*%
%ADD33R,0.03937X0.09449*%
%ADD34R,0.12992X0.09449*%
%ADD35O,0.02362X0.08661*%
%ADD36R,0.06299X0.04921*%
%ADD37R,0.09449X0.12992*%
%ADD38R,0.04921X0.06299*%
%ADD39R,0.09449X0.07087*%
%ADD40C,0.03937*%
%ADD41C,0.07874*%
%ADD42C,0.00984*%
%ADD43C,0.00787*%
%ADD44C,0.01000*%
%ADD45R,0.10249X0.04737*%
%ADD46R,0.10249X0.13792*%
%ADD47R,0.05131X0.04737*%
%ADD48R,0.04737X0.05131*%
%ADD49R,0.03162X0.05918*%
%ADD50R,0.04540X0.04343*%
%ADD51R,0.04540X0.04343*%
%ADD52R,0.07887X0.07099*%
%ADD53C,0.12611*%
%ADD54C,0.00800*%
%ADD55C,0.08674*%
%ADD56R,0.08674X0.08674*%
%ADD57C,0.10642*%
%ADD58C,0.06706*%
%ADD59R,0.20485X0.05918*%
%ADD60R,0.07099X0.07887*%
%ADD61R,0.10249X0.11036*%
%ADD62R,0.11036X0.10249*%
%ADD63R,0.05918X0.03162*%
%ADD64O,0.09461X0.03162*%
%ADD65O,0.07887X0.01981*%
%ADD66O,0.01981X0.07887*%
%ADD67R,0.04737X0.10249*%
%ADD68R,0.13792X0.10249*%
%ADD69O,0.03162X0.09461*%
%ADD70R,0.07099X0.05721*%
%ADD71R,0.10249X0.13792*%
%ADD72R,0.05721X0.07099*%
%ADD73R,0.10249X0.07887*%
%ADD74C,0.00700*%
%ADD75C,0.01394*%
%ADD76C,0.02362*%
%ADD77C,0.00394*%
%ADD78C,0.00197*%
D77*
X305118Y431102D02*
X309055D01*
X307087Y429134D02*
Y433071D01*
X330709Y435827D02*
X344488D01*
X330709Y420472D02*
X344488D01*
Y435827D01*
X330709Y420472D02*
Y435827D01*
X337598Y426181D02*
Y430118D01*
X335630Y428150D02*
X339567D01*
X515945Y413386D02*
Y427165D01*
X531299Y413386D02*
Y427165D01*
X515945Y413386D02*
X531299D01*
X515945Y427165D02*
X531299D01*
X521654Y420276D02*
X525591D01*
X523622Y418307D02*
Y422244D01*
X556890Y363189D02*
Y376969D01*
X541535Y363189D02*
Y376969D01*
X556890D01*
X541535Y363189D02*
X556890D01*
X547244Y370079D02*
X551181D01*
X549213Y368110D02*
Y372047D01*
X254921Y380906D02*
Y384842D01*
X252953Y382874D02*
X256890D01*
X240158Y372047D02*
X269685D01*
X240158Y393701D02*
X269685D01*
X240158Y372047D02*
Y393701D01*
X269685Y372047D02*
Y393701D01*
X364370Y343504D02*
Y357283D01*
X379724Y343504D02*
Y357283D01*
X364370Y343504D02*
X379724D01*
X364370Y357283D02*
X379724D01*
X370079Y350394D02*
X374016D01*
X372047Y348425D02*
Y352362D01*
X325000Y328740D02*
Y342520D01*
X340354Y328740D02*
Y342520D01*
X325000Y328740D02*
X340354D01*
X325000Y342520D02*
X340354D01*
X330709Y335630D02*
X334646D01*
X332677Y333661D02*
Y337598D01*
X362205Y420472D02*
X375984D01*
X362205Y435827D02*
X375984D01*
Y420472D02*
Y435827D01*
X362205Y420472D02*
Y435827D01*
X369094Y426181D02*
Y430118D01*
X367126Y428150D02*
X371063D01*
X312992Y252953D02*
Y256890D01*
X311024Y254921D02*
X314961D01*
X298228Y244094D02*
X327756D01*
X298228Y265748D02*
X327756D01*
X298228Y244094D02*
Y265748D01*
X327756Y244094D02*
Y265748D01*
X527559Y321850D02*
X531496D01*
X529528Y319882D02*
Y323819D01*
X407480Y231299D02*
Y235236D01*
X405512Y233268D02*
X409449D01*
X538386Y222441D02*
X560039D01*
X538386Y251969D02*
X560039D01*
Y222441D02*
Y251969D01*
X538386Y222441D02*
Y251969D01*
X549213Y235236D02*
Y239173D01*
X547244Y237205D02*
X551181D01*
X347441Y307087D02*
X351378D01*
X349410Y305118D02*
Y309055D01*
X427165Y326772D02*
Y330709D01*
X425197Y328740D02*
X429134D01*
X412402Y339567D02*
X441929D01*
X412402Y317913D02*
X441929D01*
Y339567D01*
X412402Y317913D02*
Y339567D01*
X301181Y327756D02*
Y331693D01*
X299213Y329724D02*
X303150D01*
X318898Y442913D02*
X322835D01*
X320866Y440945D02*
Y444882D01*
D78*
X289961Y416929D02*
Y445276D01*
X324213Y416929D02*
Y445276D01*
X289961D02*
X324213D01*
X289961Y416929D02*
X324213D01*
X509055Y301378D02*
Y342323D01*
X550000Y301378D02*
Y342323D01*
X509055D02*
X550000D01*
X509055Y301378D02*
X550000D01*
X393307Y216142D02*
X421654D01*
X393307Y250394D02*
X421654D01*
Y216142D02*
Y250394D01*
X393307Y216142D02*
Y250394D01*
X332283Y292913D02*
Y321260D01*
X366535Y292913D02*
Y321260D01*
X332283Y292913D02*
X366535D01*
X332283Y321260D02*
X366535D01*
X287008Y312598D02*
X315354D01*
X287008Y346850D02*
X315354D01*
Y312598D02*
Y346850D01*
X287008Y312598D02*
Y346850D01*
X303740Y428740D02*
Y457087D01*
X337992Y428740D02*
Y457087D01*
X303740Y428740D02*
X337992D01*
X303740Y457087D02*
X337992D01*
M02*
