%FSLAX25Y25*%
%MOIN*%
G70*
G01*
G75*
%ADD10R,0.09449X0.03937*%
%ADD11R,0.09449X0.12992*%
%ADD12R,0.04331X0.03937*%
%ADD13R,0.03937X0.04331*%
%ADD14R,0.02362X0.05118*%
%ADD15R,0.03740X0.03543*%
%ADD16R,0.03740X0.03543*%
%ADD17R,0.07087X0.06299*%
%ADD18C,0.01969*%
%ADD19C,0.01181*%
%ADD20C,0.11811*%
%ADD21C,0.07874*%
%ADD22R,0.07874X0.07874*%
%ADD23C,0.09843*%
%ADD24C,0.05906*%
%ADD25R,0.19685X0.05118*%
%ADD26R,0.06299X0.07087*%
%ADD27R,0.09449X0.10236*%
%ADD28R,0.10236X0.09449*%
%ADD29R,0.05118X0.02362*%
%ADD30O,0.08661X0.02362*%
%ADD31O,0.07087X0.01181*%
%ADD32O,0.01181X0.07087*%
%ADD33R,0.03937X0.09449*%
%ADD34R,0.12992X0.09449*%
%ADD35O,0.02362X0.08661*%
%ADD36R,0.06299X0.04921*%
%ADD37R,0.09449X0.12992*%
%ADD38R,0.04921X0.06299*%
%ADD39R,0.09449X0.07087*%
%ADD40C,0.03937*%
%ADD41C,0.07874*%
%ADD42C,0.00984*%
%ADD43C,0.00787*%
%ADD44C,0.01000*%
G36*
X612250Y428441D02*
Y428437D01*
Y428419D01*
Y428398D01*
Y428367D01*
X612245Y428328D01*
Y428284D01*
X612241Y428232D01*
X612236Y428179D01*
X612223Y428061D01*
X612206Y427939D01*
X612180Y427821D01*
X612162Y427764D01*
X612145Y427712D01*
Y427707D01*
X612140Y427699D01*
X612132Y427685D01*
X612123Y427668D01*
X612097Y427620D01*
X612057Y427559D01*
X612005Y427489D01*
X611944Y427419D01*
X611865Y427345D01*
X611769Y427279D01*
X611764D01*
X611756Y427270D01*
X611743Y427266D01*
X611721Y427253D01*
X611694Y427240D01*
X611660Y427226D01*
X611625Y427213D01*
X611581Y427196D01*
X611533Y427178D01*
X611480Y427165D01*
X611424Y427152D01*
X611358Y427139D01*
X611293Y427130D01*
X611223Y427122D01*
X611065Y427113D01*
X611026D01*
X610995Y427117D01*
X610960D01*
X610917Y427122D01*
X610869Y427126D01*
X610820Y427130D01*
X610711Y427148D01*
X610593Y427174D01*
X610480Y427209D01*
X610370Y427257D01*
X610366D01*
X610357Y427266D01*
X610344Y427275D01*
X610327Y427283D01*
X610279Y427318D01*
X610222Y427366D01*
X610156Y427427D01*
X610095Y427497D01*
X610034Y427585D01*
X609986Y427681D01*
Y427685D01*
X609981Y427694D01*
X609977Y427712D01*
X609968Y427733D01*
X609960Y427760D01*
X609951Y427795D01*
X609938Y427834D01*
X609929Y427882D01*
X609920Y427935D01*
X609907Y427991D01*
X609898Y428053D01*
X609890Y428118D01*
X609881Y428192D01*
X609877Y428271D01*
X609872Y428354D01*
Y428441D01*
Y430189D01*
X610274D01*
Y428441D01*
Y428437D01*
Y428424D01*
Y428402D01*
Y428376D01*
X610279Y428345D01*
Y428306D01*
X610283Y428223D01*
X610292Y428127D01*
X610305Y428031D01*
X610322Y427939D01*
X610331Y427900D01*
X610344Y427860D01*
X610349Y427851D01*
X610357Y427830D01*
X610379Y427799D01*
X610405Y427755D01*
X610436Y427712D01*
X610480Y427664D01*
X610532Y427615D01*
X610593Y427576D01*
X610602Y427572D01*
X610624Y427559D01*
X610663Y427545D01*
X610716Y427528D01*
X610777Y427506D01*
X610855Y427493D01*
X610939Y427480D01*
X611030Y427476D01*
X611074D01*
X611100Y427480D01*
X611139D01*
X611179Y427484D01*
X611275Y427502D01*
X611380Y427524D01*
X611480Y427559D01*
X611577Y427607D01*
X611620Y427637D01*
X611660Y427672D01*
X611664Y427677D01*
X611668Y427681D01*
X611677Y427694D01*
X611690Y427712D01*
X611703Y427738D01*
X611721Y427764D01*
X611738Y427803D01*
X611756Y427843D01*
X611773Y427891D01*
X611786Y427948D01*
X611804Y428013D01*
X611817Y428083D01*
X611830Y428162D01*
X611839Y428245D01*
X611847Y428341D01*
Y428441D01*
Y430189D01*
X612250D01*
Y428441D01*
D02*
G37*
G36*
X608251Y430185D02*
X608286D01*
X608365Y430176D01*
X608452Y430167D01*
X608544Y430150D01*
X608636Y430128D01*
X608718Y430098D01*
X608723D01*
X608727Y430093D01*
X608753Y430080D01*
X608793Y430058D01*
X608837Y430028D01*
X608889Y429988D01*
X608946Y429940D01*
X608998Y429879D01*
X609046Y429814D01*
X609051Y429805D01*
X609064Y429779D01*
X609086Y429744D01*
X609107Y429691D01*
X609129Y429630D01*
X609151Y429565D01*
X609164Y429490D01*
X609169Y429416D01*
Y429407D01*
Y429385D01*
X609164Y429346D01*
X609156Y429298D01*
X609142Y429241D01*
X609121Y429180D01*
X609094Y429119D01*
X609059Y429053D01*
X609055Y429044D01*
X609042Y429027D01*
X609016Y428992D01*
X608981Y428957D01*
X608937Y428913D01*
X608885Y428865D01*
X608819Y428822D01*
X608745Y428778D01*
X608749D01*
X608758Y428773D01*
X608771Y428769D01*
X608788Y428760D01*
X608841Y428743D01*
X608902Y428712D01*
X608968Y428673D01*
X609042Y428625D01*
X609107Y428568D01*
X609169Y428498D01*
X609173Y428489D01*
X609191Y428463D01*
X609217Y428424D01*
X609243Y428371D01*
X609269Y428302D01*
X609295Y428227D01*
X609313Y428140D01*
X609317Y428044D01*
Y428039D01*
Y428035D01*
Y428009D01*
X609313Y427965D01*
X609304Y427913D01*
X609295Y427851D01*
X609278Y427786D01*
X609256Y427716D01*
X609226Y427646D01*
X609221Y427637D01*
X609208Y427615D01*
X609191Y427585D01*
X609164Y427541D01*
X609129Y427497D01*
X609094Y427449D01*
X609051Y427401D01*
X609003Y427362D01*
X608998Y427358D01*
X608981Y427345D01*
X608950Y427327D01*
X608911Y427310D01*
X608863Y427283D01*
X608806Y427257D01*
X608745Y427235D01*
X608671Y427213D01*
X608662D01*
X608636Y427205D01*
X608592Y427200D01*
X608535Y427192D01*
X608465Y427183D01*
X608382Y427174D01*
X608290Y427170D01*
X608185Y427165D01*
X607032D01*
Y430189D01*
X608220D01*
X608251Y430185D01*
D02*
G37*
G36*
X617668Y429831D02*
X616672D01*
Y427165D01*
X616270D01*
Y429831D01*
X615274D01*
Y430189D01*
X617668D01*
Y429831D01*
D02*
G37*
G36*
X615086D02*
X614089D01*
Y427165D01*
X613687D01*
Y429831D01*
X612691D01*
Y430189D01*
X615086D01*
Y429831D01*
D02*
G37*
G36*
X623747Y427165D02*
X623332D01*
X621750Y429538D01*
Y427165D01*
X621365D01*
Y430189D01*
X621776D01*
X623362Y427812D01*
Y430189D01*
X623747D01*
Y427165D01*
D02*
G37*
G36*
X602032Y428752D02*
X603164Y427165D01*
X602670D01*
X601906Y428240D01*
X601901Y428245D01*
X601893Y428258D01*
X601884Y428275D01*
X601866Y428297D01*
X601827Y428358D01*
X601783Y428424D01*
X601779Y428419D01*
X601766Y428402D01*
X601748Y428376D01*
X601727Y428341D01*
X601679Y428271D01*
X601657Y428240D01*
X601639Y428214D01*
X600874Y427165D01*
X600394D01*
X601560Y428730D01*
X600529Y430189D01*
X601006D01*
X601556Y429412D01*
Y429407D01*
X601565Y429403D01*
X601574Y429390D01*
X601587Y429372D01*
X601613Y429328D01*
X601652Y429276D01*
X601692Y429215D01*
X601731Y429154D01*
X601766Y429097D01*
X601796Y429044D01*
X601801Y429053D01*
X601814Y429071D01*
X601836Y429106D01*
X601866Y429149D01*
X601901Y429197D01*
X601945Y429259D01*
X601989Y429320D01*
X602041Y429385D01*
X602644Y430189D01*
X603081D01*
X602032Y428752D01*
D02*
G37*
G36*
X625547Y430237D02*
X625578D01*
X625661Y430229D01*
X625753Y430216D01*
X625849Y430194D01*
X625954Y430167D01*
X626050Y430133D01*
X626054D01*
X626063Y430128D01*
X626076Y430120D01*
X626094Y430111D01*
X626137Y430089D01*
X626194Y430050D01*
X626260Y430006D01*
X626325Y429949D01*
X626386Y429883D01*
X626443Y429809D01*
Y429805D01*
X626448Y429801D01*
X626456Y429787D01*
X626465Y429774D01*
X626487Y429731D01*
X626513Y429674D01*
X626544Y429604D01*
X626566Y429521D01*
X626587Y429433D01*
X626596Y429337D01*
X626212Y429307D01*
Y429311D01*
Y429320D01*
X626207Y429333D01*
X626203Y429355D01*
X626190Y429403D01*
X626172Y429468D01*
X626146Y429538D01*
X626107Y429608D01*
X626059Y429674D01*
X625997Y429735D01*
X625989Y429739D01*
X625967Y429757D01*
X625923Y429783D01*
X625866Y429809D01*
X625792Y429835D01*
X625705Y429862D01*
X625596Y429879D01*
X625473Y429883D01*
X625412D01*
X625386Y429879D01*
X625351Y429875D01*
X625272Y429866D01*
X625185Y429848D01*
X625097Y429827D01*
X625014Y429792D01*
X624979Y429770D01*
X624944Y429748D01*
X624936Y429744D01*
X624918Y429726D01*
X624892Y429696D01*
X624866Y429661D01*
X624835Y429613D01*
X624809Y429560D01*
X624791Y429499D01*
X624783Y429429D01*
Y429420D01*
Y429403D01*
X624787Y429372D01*
X624796Y429337D01*
X624809Y429293D01*
X624831Y429250D01*
X624857Y429206D01*
X624896Y429162D01*
X624901Y429158D01*
X624923Y429145D01*
X624940Y429132D01*
X624958Y429123D01*
X624984Y429110D01*
X625014Y429093D01*
X625054Y429079D01*
X625097Y429062D01*
X625145Y429044D01*
X625202Y429023D01*
X625263Y429005D01*
X625333Y428983D01*
X625412Y428966D01*
X625499Y428944D01*
X625504D01*
X625521Y428940D01*
X625547Y428935D01*
X625578Y428927D01*
X625617Y428918D01*
X625665Y428905D01*
X625713Y428892D01*
X625766Y428878D01*
X625879Y428848D01*
X625989Y428817D01*
X626041Y428800D01*
X626089Y428782D01*
X626133Y428769D01*
X626168Y428752D01*
X626172D01*
X626181Y428747D01*
X626194Y428739D01*
X626212Y428730D01*
X626260Y428704D01*
X626316Y428669D01*
X626382Y428621D01*
X626448Y428568D01*
X626509Y428507D01*
X626561Y428441D01*
X626566Y428433D01*
X626583Y428411D01*
X626601Y428371D01*
X626627Y428319D01*
X626649Y428258D01*
X626671Y428184D01*
X626684Y428100D01*
X626688Y428013D01*
Y428009D01*
Y428004D01*
Y427991D01*
Y427974D01*
X626679Y427926D01*
X626671Y427865D01*
X626653Y427795D01*
X626631Y427720D01*
X626596Y427642D01*
X626548Y427559D01*
Y427554D01*
X626544Y427550D01*
X626522Y427524D01*
X626491Y427484D01*
X626448Y427441D01*
X626391Y427388D01*
X626321Y427331D01*
X626242Y427279D01*
X626151Y427231D01*
X626146D01*
X626137Y427226D01*
X626124Y427222D01*
X626107Y427213D01*
X626081Y427205D01*
X626050Y427192D01*
X625980Y427174D01*
X625897Y427152D01*
X625797Y427130D01*
X625687Y427117D01*
X625569Y427113D01*
X625499D01*
X625464Y427117D01*
X625425D01*
X625381Y427122D01*
X625329Y427126D01*
X625220Y427143D01*
X625106Y427161D01*
X624992Y427192D01*
X624883Y427231D01*
X624879D01*
X624870Y427235D01*
X624857Y427244D01*
X624839Y427253D01*
X624787Y427279D01*
X624726Y427318D01*
X624656Y427371D01*
X624582Y427432D01*
X624512Y427506D01*
X624446Y427589D01*
Y427594D01*
X624437Y427602D01*
X624433Y427615D01*
X624420Y427633D01*
X624411Y427655D01*
X624398Y427681D01*
X624368Y427747D01*
X624337Y427830D01*
X624311Y427921D01*
X624293Y428026D01*
X624285Y428135D01*
X624660Y428170D01*
Y428166D01*
Y428162D01*
X624665Y428149D01*
Y428131D01*
X624673Y428092D01*
X624686Y428035D01*
X624704Y427978D01*
X624721Y427913D01*
X624752Y427851D01*
X624783Y427795D01*
X624787Y427790D01*
X624800Y427773D01*
X624822Y427742D01*
X624857Y427712D01*
X624901Y427672D01*
X624949Y427633D01*
X625014Y427594D01*
X625084Y427559D01*
X625089D01*
X625093Y427554D01*
X625106Y427550D01*
X625119Y427545D01*
X625163Y427532D01*
X625220Y427515D01*
X625290Y427497D01*
X625368Y427484D01*
X625456Y427476D01*
X625552Y427471D01*
X625591D01*
X625635Y427476D01*
X625687Y427480D01*
X625748Y427489D01*
X625818Y427497D01*
X625888Y427515D01*
X625954Y427537D01*
X625963Y427541D01*
X625984Y427550D01*
X626015Y427567D01*
X626054Y427585D01*
X626094Y427615D01*
X626137Y427646D01*
X626181Y427681D01*
X626216Y427725D01*
X626220Y427729D01*
X626229Y427747D01*
X626242Y427768D01*
X626260Y427803D01*
X626277Y427838D01*
X626290Y427882D01*
X626299Y427930D01*
X626303Y427983D01*
Y427987D01*
Y428009D01*
X626299Y428035D01*
X626295Y428070D01*
X626282Y428105D01*
X626268Y428149D01*
X626247Y428192D01*
X626216Y428232D01*
X626212Y428236D01*
X626198Y428249D01*
X626181Y428267D01*
X626151Y428293D01*
X626116Y428319D01*
X626067Y428350D01*
X626011Y428380D01*
X625945Y428406D01*
X625941Y428411D01*
X625919Y428415D01*
X625884Y428428D01*
X625862Y428433D01*
X625832Y428441D01*
X625801Y428454D01*
X625762Y428463D01*
X625718Y428476D01*
X625665Y428489D01*
X625613Y428503D01*
X625552Y428520D01*
X625482Y428538D01*
X625408Y428555D01*
X625403D01*
X625390Y428559D01*
X625368Y428564D01*
X625342Y428573D01*
X625307Y428581D01*
X625268Y428590D01*
X625180Y428616D01*
X625084Y428647D01*
X624984Y428677D01*
X624896Y428708D01*
X624857Y428725D01*
X624822Y428743D01*
X624818D01*
X624813Y428747D01*
X624787Y428765D01*
X624748Y428787D01*
X624704Y428822D01*
X624652Y428861D01*
X624599Y428909D01*
X624547Y428966D01*
X624503Y429027D01*
X624499Y429036D01*
X624485Y429058D01*
X624468Y429093D01*
X624451Y429136D01*
X624433Y429193D01*
X624416Y429259D01*
X624403Y429328D01*
X624398Y429403D01*
Y429407D01*
Y429412D01*
Y429425D01*
Y429442D01*
X624407Y429486D01*
X624416Y429543D01*
X624429Y429608D01*
X624451Y429682D01*
X624481Y429757D01*
X624525Y429831D01*
Y429835D01*
X624529Y429840D01*
X624551Y429866D01*
X624582Y429901D01*
X624621Y429945D01*
X624673Y429993D01*
X624739Y430045D01*
X624818Y430093D01*
X624905Y430137D01*
X624909D01*
X624918Y430141D01*
X624931Y430146D01*
X624949Y430154D01*
X624971Y430163D01*
X625001Y430172D01*
X625067Y430189D01*
X625150Y430207D01*
X625246Y430224D01*
X625346Y430237D01*
X625460Y430242D01*
X625517D01*
X625547Y430237D01*
D02*
G37*
G36*
X604410Y430198D02*
X604466Y430189D01*
X604536Y430176D01*
X604615Y430154D01*
X604694Y430128D01*
X604772Y430093D01*
X604777D01*
X604781Y430089D01*
X604807Y430076D01*
X604847Y430050D01*
X604890Y430019D01*
X604943Y429975D01*
X604995Y429927D01*
X605048Y429870D01*
X605091Y429805D01*
X605096Y429796D01*
X605109Y429774D01*
X605126Y429735D01*
X605148Y429687D01*
X605170Y429630D01*
X605188Y429565D01*
X605201Y429490D01*
X605205Y429416D01*
Y429407D01*
Y429381D01*
X605201Y429346D01*
X605192Y429298D01*
X605179Y429241D01*
X605157Y429180D01*
X605131Y429119D01*
X605096Y429058D01*
X605091Y429049D01*
X605078Y429031D01*
X605052Y429001D01*
X605017Y428966D01*
X604974Y428927D01*
X604921Y428883D01*
X604860Y428843D01*
X604785Y428804D01*
X604790D01*
X604799Y428800D01*
X604812Y428795D01*
X604829Y428791D01*
X604877Y428773D01*
X604939Y428747D01*
X605008Y428712D01*
X605078Y428669D01*
X605144Y428612D01*
X605205Y428546D01*
X605209Y428538D01*
X605227Y428511D01*
X605253Y428468D01*
X605279Y428411D01*
X605306Y428341D01*
X605332Y428258D01*
X605349Y428162D01*
X605354Y428057D01*
Y428053D01*
Y428039D01*
Y428018D01*
X605349Y427991D01*
X605345Y427956D01*
X605336Y427917D01*
X605327Y427873D01*
X605319Y427825D01*
X605284Y427720D01*
X605258Y427664D01*
X605231Y427611D01*
X605196Y427554D01*
X605157Y427497D01*
X605113Y427441D01*
X605061Y427388D01*
X605056Y427384D01*
X605048Y427375D01*
X605030Y427362D01*
X605008Y427345D01*
X604982Y427323D01*
X604947Y427301D01*
X604908Y427275D01*
X604860Y427253D01*
X604812Y427226D01*
X604755Y427200D01*
X604698Y427178D01*
X604633Y427157D01*
X604563Y427139D01*
X604488Y427126D01*
X604414Y427117D01*
X604331Y427113D01*
X604292D01*
X604265Y427117D01*
X604231Y427122D01*
X604191Y427126D01*
X604147Y427135D01*
X604100Y427143D01*
X603995Y427170D01*
X603885Y427213D01*
X603828Y427240D01*
X603776Y427270D01*
X603724Y427310D01*
X603671Y427349D01*
X603667Y427353D01*
X603658Y427362D01*
X603645Y427375D01*
X603632Y427393D01*
X603610Y427414D01*
X603588Y427445D01*
X603562Y427476D01*
X603536Y427515D01*
X603510Y427559D01*
X603483Y427602D01*
X603435Y427707D01*
X603396Y427830D01*
X603383Y427895D01*
X603374Y427965D01*
X603746Y428013D01*
Y428009D01*
X603750Y428000D01*
X603754Y427983D01*
X603759Y427961D01*
X603763Y427935D01*
X603772Y427904D01*
X603794Y427838D01*
X603824Y427760D01*
X603863Y427685D01*
X603907Y427615D01*
X603960Y427554D01*
X603968Y427550D01*
X603986Y427532D01*
X604021Y427511D01*
X604065Y427489D01*
X604117Y427462D01*
X604182Y427441D01*
X604257Y427423D01*
X604335Y427419D01*
X604362D01*
X604379Y427423D01*
X604427Y427427D01*
X604488Y427441D01*
X604558Y427462D01*
X604633Y427493D01*
X604707Y427537D01*
X604777Y427598D01*
X604785Y427607D01*
X604807Y427633D01*
X604834Y427672D01*
X604869Y427725D01*
X604904Y427790D01*
X604930Y427865D01*
X604952Y427952D01*
X604960Y428048D01*
Y428053D01*
Y428061D01*
Y428074D01*
X604956Y428092D01*
X604952Y428140D01*
X604939Y428197D01*
X604921Y428267D01*
X604890Y428336D01*
X604847Y428406D01*
X604790Y428472D01*
X604781Y428481D01*
X604759Y428498D01*
X604724Y428524D01*
X604676Y428555D01*
X604615Y428586D01*
X604541Y428612D01*
X604458Y428629D01*
X604366Y428638D01*
X604327D01*
X604296Y428634D01*
X604257Y428629D01*
X604213Y428621D01*
X604161Y428612D01*
X604104Y428599D01*
X604147Y428927D01*
X604169D01*
X604187Y428922D01*
X604244D01*
X604292Y428931D01*
X604349Y428940D01*
X604414Y428953D01*
X604488Y428974D01*
X604558Y429005D01*
X604633Y429044D01*
X604637D01*
X604641Y429049D01*
X604663Y429066D01*
X604694Y429097D01*
X604729Y429136D01*
X604764Y429193D01*
X604794Y429259D01*
X604816Y429333D01*
X604825Y429377D01*
Y429425D01*
Y429429D01*
Y429433D01*
Y429460D01*
X604816Y429495D01*
X604807Y429543D01*
X604790Y429595D01*
X604768Y429652D01*
X604733Y429709D01*
X604685Y429761D01*
X604681Y429766D01*
X604659Y429783D01*
X604628Y429805D01*
X604589Y429831D01*
X604536Y429853D01*
X604475Y429875D01*
X604405Y429892D01*
X604327Y429897D01*
X604292D01*
X604252Y429888D01*
X604200Y429879D01*
X604143Y429862D01*
X604086Y429840D01*
X604025Y429805D01*
X603968Y429761D01*
X603964Y429757D01*
X603946Y429735D01*
X603920Y429704D01*
X603890Y429661D01*
X603859Y429604D01*
X603828Y429534D01*
X603802Y429451D01*
X603785Y429355D01*
X603413Y429420D01*
Y429425D01*
X603418Y429438D01*
X603422Y429455D01*
X603427Y429482D01*
X603435Y429512D01*
X603448Y429547D01*
X603475Y429630D01*
X603518Y429726D01*
X603571Y429822D01*
X603636Y429914D01*
X603719Y429997D01*
X603724Y430001D01*
X603732Y430006D01*
X603746Y430015D01*
X603763Y430028D01*
X603785Y430045D01*
X603815Y430063D01*
X603846Y430080D01*
X603885Y430102D01*
X603973Y430137D01*
X604073Y430172D01*
X604191Y430194D01*
X604252Y430202D01*
X604362D01*
X604410Y430198D01*
D02*
G37*
G36*
X619478Y430237D02*
X619517D01*
X619556Y430233D01*
X619609Y430224D01*
X619661Y430216D01*
X619775Y430194D01*
X619906Y430159D01*
X620033Y430106D01*
X620098Y430076D01*
X620164Y430041D01*
X620168Y430036D01*
X620177Y430032D01*
X620194Y430019D01*
X620220Y430006D01*
X620247Y429984D01*
X620282Y429958D01*
X620356Y429897D01*
X620435Y429818D01*
X620522Y429722D01*
X620605Y429608D01*
X620675Y429482D01*
Y429477D01*
X620684Y429464D01*
X620692Y429447D01*
X620701Y429420D01*
X620719Y429385D01*
X620732Y429346D01*
X620749Y429298D01*
X620767Y429246D01*
X620780Y429189D01*
X620797Y429128D01*
X620815Y429058D01*
X620828Y428988D01*
X620845Y428835D01*
X620854Y428669D01*
Y428664D01*
Y428647D01*
Y428625D01*
X620850Y428590D01*
Y428551D01*
X620845Y428503D01*
X620837Y428450D01*
X620832Y428393D01*
X620810Y428267D01*
X620775Y428127D01*
X620727Y427987D01*
X620701Y427917D01*
X620666Y427847D01*
Y427843D01*
X620657Y427830D01*
X620649Y427812D01*
X620631Y427786D01*
X620614Y427755D01*
X620592Y427725D01*
X620531Y427642D01*
X620456Y427554D01*
X620369Y427462D01*
X620264Y427375D01*
X620142Y427296D01*
X620137D01*
X620129Y427288D01*
X620107Y427279D01*
X620081Y427266D01*
X620050Y427253D01*
X620015Y427240D01*
X619971Y427222D01*
X619923Y427205D01*
X619871Y427187D01*
X619814Y427170D01*
X619687Y427143D01*
X619552Y427122D01*
X619408Y427113D01*
X619364D01*
X619338Y427117D01*
X619298D01*
X619255Y427126D01*
X619206Y427130D01*
X619150Y427139D01*
X619032Y427165D01*
X618905Y427200D01*
X618774Y427253D01*
X618708Y427283D01*
X618643Y427318D01*
X618639Y427323D01*
X618630Y427327D01*
X618612Y427340D01*
X618586Y427358D01*
X618560Y427375D01*
X618529Y427401D01*
X618455Y427467D01*
X618372Y427545D01*
X618285Y427642D01*
X618206Y427751D01*
X618131Y427878D01*
Y427882D01*
X618123Y427895D01*
X618114Y427913D01*
X618105Y427939D01*
X618092Y427974D01*
X618079Y428013D01*
X618062Y428057D01*
X618048Y428105D01*
X618031Y428162D01*
X618013Y428219D01*
X617987Y428350D01*
X617970Y428485D01*
X617961Y428634D01*
Y428638D01*
Y428642D01*
Y428669D01*
X617966Y428708D01*
Y428760D01*
X617974Y428822D01*
X617983Y428896D01*
X617996Y428979D01*
X618013Y429066D01*
X618031Y429158D01*
X618057Y429254D01*
X618092Y429350D01*
X618131Y429451D01*
X618175Y429547D01*
X618232Y429643D01*
X618293Y429731D01*
X618363Y429814D01*
X618367Y429818D01*
X618381Y429831D01*
X618407Y429853D01*
X618437Y429879D01*
X618477Y429914D01*
X618525Y429949D01*
X618582Y429988D01*
X618647Y430028D01*
X618717Y430067D01*
X618796Y430106D01*
X618883Y430141D01*
X618975Y430176D01*
X619075Y430202D01*
X619180Y430224D01*
X619290Y430237D01*
X619408Y430242D01*
X619447D01*
X619478Y430237D01*
D02*
G37*
%LPC*%
G36*
X608150Y429831D02*
X607434D01*
Y428922D01*
X608177D01*
X608233Y428927D01*
X608295Y428931D01*
X608356Y428935D01*
X608417Y428944D01*
X608465Y428953D01*
X608474Y428957D01*
X608491Y428961D01*
X608518Y428974D01*
X608553Y428992D01*
X608587Y429009D01*
X608627Y429036D01*
X608666Y429071D01*
X608697Y429106D01*
X608701Y429110D01*
X608710Y429123D01*
X608723Y429149D01*
X608736Y429180D01*
X608749Y429215D01*
X608762Y429259D01*
X608771Y429311D01*
X608775Y429368D01*
Y429377D01*
Y429394D01*
X608771Y429420D01*
X608767Y429455D01*
X608758Y429499D01*
X608745Y429543D01*
X608727Y429586D01*
X608701Y429630D01*
X608697Y429634D01*
X608688Y429647D01*
X608671Y429669D01*
X608649Y429691D01*
X608618Y429717D01*
X608583Y429744D01*
X608539Y429770D01*
X608491Y429787D01*
X608487D01*
X608465Y429796D01*
X608434Y429801D01*
X608386Y429809D01*
X608321Y429818D01*
X608247Y429822D01*
X608150Y429831D01*
D02*
G37*
G36*
X608229Y428564D02*
X607434D01*
Y427524D01*
X608295D01*
X608386Y427528D01*
X608426Y427532D01*
X608461Y427537D01*
X608465D01*
X608483Y427541D01*
X608509Y427545D01*
X608539Y427554D01*
X608614Y427580D01*
X608688Y427615D01*
X608692Y427620D01*
X608705Y427629D01*
X608723Y427642D01*
X608745Y427659D01*
X608767Y427685D01*
X608797Y427712D01*
X608819Y427747D01*
X608845Y427786D01*
X608850Y427790D01*
X608854Y427803D01*
X608863Y427830D01*
X608876Y427860D01*
X608889Y427895D01*
X608898Y427939D01*
X608902Y427991D01*
X608907Y428044D01*
Y428053D01*
Y428070D01*
X608902Y428105D01*
X608893Y428144D01*
X608885Y428188D01*
X608867Y428236D01*
X608845Y428284D01*
X608815Y428332D01*
X608810Y428336D01*
X608797Y428354D01*
X608780Y428376D01*
X608753Y428402D01*
X608718Y428433D01*
X608675Y428463D01*
X608627Y428489D01*
X608570Y428511D01*
X608561Y428516D01*
X608544Y428520D01*
X608504Y428529D01*
X608456Y428538D01*
X608395Y428546D01*
X608321Y428555D01*
X608229Y428564D01*
D02*
G37*
G36*
X619408Y429897D02*
X619368D01*
X619338Y429892D01*
X619298Y429888D01*
X619259Y429879D01*
X619211Y429870D01*
X619159Y429862D01*
X619045Y429827D01*
X618984Y429801D01*
X618923Y429774D01*
X618857Y429739D01*
X618796Y429700D01*
X618735Y429656D01*
X618678Y429604D01*
X618673Y429599D01*
X618665Y429591D01*
X618652Y429573D01*
X618630Y429547D01*
X618608Y429516D01*
X618582Y429477D01*
X618555Y429429D01*
X618525Y429372D01*
X618499Y429311D01*
X618468Y429237D01*
X618442Y429158D01*
X618420Y429071D01*
X618398Y428974D01*
X618385Y428865D01*
X618376Y428752D01*
X618372Y428629D01*
Y428625D01*
Y428607D01*
Y428577D01*
X618376Y428538D01*
X618381Y428494D01*
X618389Y428441D01*
X618398Y428380D01*
X618407Y428319D01*
X618442Y428179D01*
X618468Y428109D01*
X618494Y428035D01*
X618529Y427965D01*
X618569Y427895D01*
X618612Y427830D01*
X618665Y427768D01*
X618669Y427764D01*
X618678Y427755D01*
X618695Y427738D01*
X618717Y427720D01*
X618748Y427694D01*
X618783Y427668D01*
X618822Y427642D01*
X618866Y427611D01*
X618918Y427580D01*
X618975Y427554D01*
X619036Y427528D01*
X619102Y427502D01*
X619172Y427484D01*
X619242Y427467D01*
X619320Y427458D01*
X619403Y427454D01*
X619425D01*
X619447Y427458D01*
X619478D01*
X619517Y427462D01*
X619560Y427471D01*
X619613Y427480D01*
X619665Y427493D01*
X619727Y427511D01*
X619783Y427532D01*
X619849Y427554D01*
X619910Y427585D01*
X619971Y427624D01*
X620033Y427664D01*
X620094Y427712D01*
X620151Y427768D01*
X620155Y427773D01*
X620164Y427781D01*
X620177Y427803D01*
X620198Y427830D01*
X620220Y427860D01*
X620242Y427900D01*
X620268Y427948D01*
X620299Y428000D01*
X620325Y428061D01*
X620352Y428131D01*
X620373Y428205D01*
X620400Y428284D01*
X620417Y428371D01*
X620430Y428468D01*
X620439Y428568D01*
X620443Y428673D01*
Y428677D01*
Y428690D01*
Y428708D01*
Y428734D01*
X620439Y428765D01*
Y428804D01*
X620435Y428843D01*
X620426Y428892D01*
X620413Y428992D01*
X620391Y429097D01*
X620360Y429211D01*
X620317Y429315D01*
Y429320D01*
X620312Y429328D01*
X620303Y429342D01*
X620295Y429359D01*
X620264Y429412D01*
X620225Y429473D01*
X620172Y429543D01*
X620107Y429613D01*
X620033Y429682D01*
X619949Y429744D01*
X619945D01*
X619941Y429752D01*
X619928Y429757D01*
X619906Y429770D01*
X619884Y429779D01*
X619858Y429792D01*
X619792Y429822D01*
X619713Y429848D01*
X619622Y429875D01*
X619517Y429892D01*
X619408Y429897D01*
D02*
G37*
%LPD*%
D42*
X296161Y444291D02*
G03*
X296161Y444291I-492J0D01*
G01*
X345177Y432283D02*
G03*
X345177Y432283I-492J0D01*
G01*
X298917Y463583D02*
G03*
X298917Y463583I-492J0D01*
G01*
D43*
X252637Y455487D02*
G03*
X252637Y455487I-3937J0D01*
G01*
Y218479D02*
G03*
X252637Y218479I-3937J0D01*
G01*
X582558Y455487D02*
G03*
X582558Y455487I-3937J0D01*
G01*
Y218479D02*
G03*
X582558Y218479I-3937J0D01*
G01*
X591613Y455487D02*
G03*
X591613Y455487I-12992J0D01*
G01*
Y218479D02*
G03*
X591613Y218479I-12992J0D01*
G01*
X261692Y455487D02*
G03*
X261692Y455487I-12992J0D01*
G01*
Y218479D02*
G03*
X261692Y218479I-12992J0D01*
G01*
X301575Y417913D02*
Y444291D01*
X312598Y417913D02*
Y444291D01*
X301575D02*
X312598D01*
X301575Y417913D02*
X312598D01*
X335039Y450000D02*
X338189D01*
X342717Y451181D02*
Y454331D01*
X343504Y425394D02*
Y428150D01*
X340354Y425394D02*
X343504D01*
X331693D02*
Y428150D01*
Y425394D02*
X334842D01*
X302461Y458464D02*
X308268D01*
X302461Y468701D02*
X308268D01*
X302461Y458464D02*
Y460236D01*
Y466929D02*
Y468701D01*
X586417Y284528D02*
X616221D01*
X586417Y274528D02*
X616221D01*
Y284528D01*
X586417Y274528D02*
Y284528D01*
X319685Y459449D02*
Y461811D01*
X325984Y459449D02*
Y461811D01*
D44*
X239961Y348425D02*
Y421260D01*
X271457D01*
X273819D01*
Y348425D02*
Y421260D01*
X239961Y348425D02*
X273819D01*
X256890Y336614D02*
Y348425D01*
Y421260D02*
Y433071D01*
X518701Y409842D02*
X569567D01*
X518701Y390158D02*
Y409842D01*
X564567Y393000D02*
X566567Y395000D01*
X564567D02*
X566567Y393000D01*
X564067Y394000D02*
X567067D01*
X565567Y392500D02*
Y395500D01*
X569567Y390158D02*
Y409842D01*
X518701Y390158D02*
X569567D01*
X450787Y413386D02*
X490630D01*
Y433071D01*
X486630Y415728D02*
Y418728D01*
X485130Y417228D02*
X488130D01*
X485630Y418228D02*
X487630Y416228D01*
X485630D02*
X487630Y418228D01*
X450787Y413386D02*
Y433071D01*
X490630D01*
X602362Y345000D02*
Y424213D01*
Y345000D02*
X622047D01*
X604705Y349000D02*
X607705D01*
X606205Y347500D02*
Y350500D01*
X605205Y348000D02*
X607205Y350000D01*
X605205D02*
X607205Y348000D01*
X602362Y424213D02*
X622047D01*
Y345000D02*
Y424213D01*
X436276Y388169D02*
X438276Y390169D01*
X436276D02*
X438276Y388169D01*
X435776Y389169D02*
X438776D01*
X437276Y387669D02*
Y390669D01*
X440276Y385827D02*
Y405512D01*
X410276D02*
X440276D01*
X410276Y385827D02*
X440276D01*
X410276D02*
Y405512D01*
X217114Y273748D02*
X219114Y271748D01*
X217114D02*
X219114Y273748D01*
X218114Y271248D02*
Y274248D01*
X216614Y272748D02*
X219614D01*
X201772Y275748D02*
X221457D01*
X201772Y245748D02*
Y275748D01*
X221457Y245748D02*
Y275748D01*
X201772Y245748D02*
X221457D01*
X223020Y396779D02*
X225020Y394779D01*
X223020D02*
X225020Y396779D01*
X224020Y394280D02*
Y397280D01*
X222520Y395779D02*
X225520D01*
X207677Y398780D02*
X227362D01*
X207677Y368779D02*
Y398780D01*
X227362Y368779D02*
Y398780D01*
X207677Y368779D02*
X227362D01*
X229425Y341910D02*
X231425Y343910D01*
X229425D02*
X231425Y341910D01*
X228925Y342910D02*
X231925D01*
X230425Y341409D02*
Y344409D01*
X233425Y339567D02*
Y359252D01*
X203425D02*
X233425D01*
X203425Y339567D02*
X233425D01*
X203425D02*
Y359252D01*
X376969Y437008D02*
X544764D01*
X376969D02*
Y456693D01*
X544764D01*
Y437008D02*
Y456693D01*
X540764Y439350D02*
Y442350D01*
X539264Y440850D02*
X542264D01*
X539764Y441850D02*
X541764Y439850D01*
X539764D02*
X541764Y441850D01*
X205583Y330303D02*
X207583Y332303D01*
X205583D02*
X207583Y330303D01*
X205083Y331303D02*
X208083D01*
X206583Y329803D02*
Y332803D01*
X203583Y314961D02*
Y334646D01*
Y314961D02*
X233583D01*
X203583Y334646D02*
X233583D01*
Y314961D02*
Y334646D01*
X263779Y340551D02*
Y345274D01*
X266141D01*
X266928Y344487D01*
Y342913D01*
X266141Y342126D01*
X263779D01*
X265354D02*
X266928Y340551D01*
X271651D02*
X268502D01*
X271651Y343700D01*
Y344487D01*
X270864Y345274D01*
X269290D01*
X268502Y344487D01*
X305316Y427165D02*
X307612D01*
X308071Y427625D01*
Y428543D01*
X307612Y429002D01*
X305316D01*
X308071Y431757D02*
Y429920D01*
X306234Y431757D01*
X305775D01*
X305316Y431298D01*
Y430379D01*
X305775Y429920D01*
Y432675D02*
X305316Y433135D01*
Y434053D01*
X305775Y434512D01*
X307612D01*
X308071Y434053D01*
Y433135D01*
X307612Y432675D01*
X305775D01*
X308071Y435430D02*
Y436349D01*
Y435890D01*
X305316D01*
X305775Y435430D01*
X288386Y454724D02*
X285631D01*
Y456102D01*
X286090Y456561D01*
X287008D01*
X287468Y456102D01*
Y454724D01*
Y455643D02*
X288386Y456561D01*
Y459316D02*
Y457479D01*
X286549Y459316D01*
X286090D01*
X285631Y458857D01*
Y457939D01*
X286090Y457479D01*
Y460234D02*
X285631Y460694D01*
Y461612D01*
X286090Y462071D01*
X287927D01*
X288386Y461612D01*
Y460694D01*
X287927Y460234D01*
X286090D01*
X285631Y462990D02*
Y464826D01*
X286090D01*
X287927Y462990D01*
X288386D01*
X302165Y452756D02*
Y455511D01*
X303543D01*
X304002Y455052D01*
Y454133D01*
X303543Y453674D01*
X302165D01*
X303084D02*
X304002Y452756D01*
X306757D02*
X304920D01*
X306757Y454593D01*
Y455052D01*
X306298Y455511D01*
X305380D01*
X304920Y455052D01*
X307675D02*
X308135Y455511D01*
X309053D01*
X309512Y455052D01*
Y453215D01*
X309053Y452756D01*
X308135D01*
X307675Y453215D01*
Y455052D01*
X312267Y455511D02*
X311349Y455052D01*
X310430Y454133D01*
Y453215D01*
X310890Y452756D01*
X311808D01*
X312267Y453215D01*
Y453674D01*
X311808Y454133D01*
X310430D01*
X318898Y471457D02*
Y474212D01*
X320275D01*
X320734Y473752D01*
Y472834D01*
X320275Y472375D01*
X318898D01*
X319816D02*
X320734Y471457D01*
X323489D02*
X321653D01*
X323489Y473293D01*
Y473752D01*
X323030Y474212D01*
X322112D01*
X321653Y473752D01*
X324408D02*
X324867Y474212D01*
X325785D01*
X326244Y473752D01*
Y471916D01*
X325785Y471457D01*
X324867D01*
X324408Y471916D01*
Y473752D01*
X328999Y474212D02*
X327163D01*
Y472834D01*
X328081Y473293D01*
X328540D01*
X328999Y472834D01*
Y471916D01*
X328540Y471457D01*
X327622D01*
X327163Y471916D01*
X344488Y463583D02*
Y466338D01*
X345866D01*
X346325Y465878D01*
Y464960D01*
X345866Y464501D01*
X344488D01*
X345407D02*
X346325Y463583D01*
X349080D02*
X347243D01*
X349080Y465419D01*
Y465878D01*
X348621Y466338D01*
X347702D01*
X347243Y465878D01*
X349998D02*
X350457Y466338D01*
X351376D01*
X351835Y465878D01*
Y464042D01*
X351376Y463583D01*
X350457D01*
X349998Y464042D01*
Y465878D01*
X354131Y463583D02*
Y466338D01*
X352753Y464960D01*
X354590D01*
X332677Y440945D02*
Y443700D01*
X334055D01*
X334514Y443241D01*
Y442322D01*
X334055Y441863D01*
X332677D01*
X333595D02*
X334514Y440945D01*
X337269D02*
X335432D01*
X337269Y442782D01*
Y443241D01*
X336810Y443700D01*
X335891D01*
X335432Y443241D01*
X338187D02*
X338646Y443700D01*
X339565D01*
X340024Y443241D01*
Y441404D01*
X339565Y440945D01*
X338646D01*
X338187Y441404D01*
Y443241D01*
X340942D02*
X341401Y443700D01*
X342320D01*
X342779Y443241D01*
Y442782D01*
X342320Y442322D01*
X341861D01*
X342320D01*
X342779Y441863D01*
Y441404D01*
X342320Y440945D01*
X341401D01*
X340942Y441404D01*
X361221Y436024D02*
Y438779D01*
X362598D01*
X363057Y438319D01*
Y437401D01*
X362598Y436942D01*
X361221D01*
X362139D02*
X363057Y436024D01*
X365812D02*
X363976D01*
X365812Y437860D01*
Y438319D01*
X365353Y438779D01*
X364435D01*
X363976Y438319D01*
X366730D02*
X367190Y438779D01*
X368108D01*
X368567Y438319D01*
Y436483D01*
X368108Y436024D01*
X367190D01*
X366730Y436483D01*
Y438319D01*
X371322Y436024D02*
X369485D01*
X371322Y437860D01*
Y438319D01*
X370863Y438779D01*
X369945D01*
X369485Y438319D01*
X348425Y432087D02*
Y434842D01*
X349803D01*
X350262Y434382D01*
Y433464D01*
X349803Y433005D01*
X348425D01*
X349343D02*
X350262Y432087D01*
X353017D02*
X351180D01*
X353017Y433923D01*
Y434382D01*
X352558Y434842D01*
X351639D01*
X351180Y434382D01*
X353935D02*
X354394Y434842D01*
X355313D01*
X355772Y434382D01*
Y432546D01*
X355313Y432087D01*
X354394D01*
X353935Y432546D01*
Y434382D01*
X356690Y432087D02*
X357609D01*
X357149D01*
Y434842D01*
X356690Y434382D01*
X330250Y426049D02*
X328413D01*
X327954Y425590D01*
Y424672D01*
X328413Y424213D01*
X330250D01*
X330709Y424672D01*
Y425590D01*
X329790Y425131D02*
X330709Y426049D01*
Y425590D02*
X330250Y426049D01*
X330709Y428804D02*
Y426968D01*
X328872Y428804D01*
X328413D01*
X327954Y428345D01*
Y427427D01*
X328413Y426968D01*
Y429723D02*
X327954Y430182D01*
Y431100D01*
X328413Y431559D01*
X330250D01*
X330709Y431100D01*
Y430182D01*
X330250Y429723D01*
X328413D01*
X330709Y434314D02*
Y432478D01*
X328872Y434314D01*
X328413D01*
X327954Y433855D01*
Y432937D01*
X328413Y432478D01*
X307612Y460498D02*
X305775D01*
X305316Y460039D01*
Y459121D01*
X305775Y458661D01*
X307612D01*
X308071Y459121D01*
Y460039D01*
X307153Y459580D02*
X308071Y460498D01*
Y460039D02*
X307612Y460498D01*
X308071Y463253D02*
Y461416D01*
X306234Y463253D01*
X305775D01*
X305316Y462794D01*
Y461876D01*
X305775Y461416D01*
Y464172D02*
X305316Y464631D01*
Y465549D01*
X305775Y466008D01*
X307612D01*
X308071Y465549D01*
Y464631D01*
X307612Y464172D01*
X305775D01*
X308071Y466926D02*
Y467845D01*
Y467386D01*
X305316D01*
X305775Y466926D01*
X330381Y453608D02*
X329922Y453149D01*
Y452231D01*
X330381Y451772D01*
X332218D01*
X332677Y452231D01*
Y453149D01*
X332218Y453608D01*
X332677Y456363D02*
Y454527D01*
X330840Y456363D01*
X330381D01*
X329922Y455904D01*
Y454986D01*
X330381Y454527D01*
Y457282D02*
X329922Y457741D01*
Y458659D01*
X330381Y459118D01*
X332218D01*
X332677Y458659D01*
Y457741D01*
X332218Y457282D01*
X330381D01*
X332677Y461873D02*
Y460037D01*
X330840Y461873D01*
X330381D01*
X329922Y461414D01*
Y460496D01*
X330381Y460037D01*
X347309Y450131D02*
X346850Y450590D01*
X345932D01*
X345472Y450131D01*
Y448294D01*
X345932Y447835D01*
X346850D01*
X347309Y448294D01*
X350064Y447835D02*
X348228D01*
X350064Y449671D01*
Y450131D01*
X349605Y450590D01*
X348687D01*
X348228Y450131D01*
X350982D02*
X351442Y450590D01*
X352360D01*
X352819Y450131D01*
Y448294D01*
X352360Y447835D01*
X351442D01*
X350982Y448294D01*
Y450131D01*
X353737Y447835D02*
X354656D01*
X354197D01*
Y450590D01*
X353737Y450131D01*
X196850Y312400D02*
X199999Y307677D01*
Y312400D02*
X196850Y307677D01*
X201573D02*
X203148D01*
X202360D01*
Y312400D01*
X201573Y311613D01*
X205509D02*
X206296Y312400D01*
X207870D01*
X208658Y311613D01*
Y308464D01*
X207870Y307677D01*
X206296D01*
X205509Y308464D01*
Y311613D01*
X217316Y312400D02*
X215742D01*
X214955Y311613D01*
Y308464D01*
X215742Y307677D01*
X217316D01*
X218103Y308464D01*
Y311613D01*
X217316Y312400D01*
X219678Y307677D02*
Y312400D01*
X222826Y307677D01*
Y312400D01*
X224400Y307677D02*
X227549Y310826D01*
X231485Y312400D02*
X229911D01*
X229123Y311613D01*
Y308464D01*
X229911Y307677D01*
X231485D01*
X232272Y308464D01*
Y311613D01*
X231485Y312400D01*
X236995D02*
X233846D01*
Y310039D01*
X235421D01*
X233846D01*
Y307677D01*
X241718Y312400D02*
X238569D01*
Y310039D01*
X240143D01*
X238569D01*
Y307677D01*
X441929Y454526D02*
X445078Y449803D01*
Y454526D02*
X441929Y449803D01*
X446652Y453739D02*
X447439Y454526D01*
X449014D01*
X449801Y453739D01*
Y452952D01*
X449014Y452165D01*
X449801Y451377D01*
Y450590D01*
X449014Y449803D01*
X447439D01*
X446652Y450590D01*
Y451377D01*
X447439Y452165D01*
X446652Y452952D01*
Y453739D01*
X447439Y452165D02*
X449014D01*
X456098Y454526D02*
Y449803D01*
X459246D01*
X463969Y453739D02*
X463182Y454526D01*
X461608D01*
X460821Y453739D01*
Y450590D01*
X461608Y449803D01*
X463182D01*
X463969Y450590D01*
X465544Y454526D02*
Y449803D01*
X467905D01*
X468692Y450590D01*
Y453739D01*
X467905Y454526D01*
X465544D01*
X197835Y365943D02*
X200983Y361221D01*
Y365943D02*
X197835Y361221D01*
X202557Y365943D02*
X205706D01*
Y365156D01*
X202557Y362008D01*
Y361221D01*
X212003Y365943D02*
Y361221D01*
X214365D01*
X215152Y362008D01*
Y362795D01*
X214365Y363582D01*
X212003D01*
X214365D01*
X215152Y364369D01*
Y365156D01*
X214365Y365943D01*
X212003D01*
X216726Y361221D02*
Y364369D01*
X218301Y365943D01*
X219875Y364369D01*
Y361221D01*
Y363582D01*
X216726D01*
X221449Y365943D02*
X224598D01*
X223023D01*
Y361221D01*
X226172Y365943D02*
X229321D01*
X227746D01*
Y361221D01*
X234043Y365943D02*
X230895D01*
Y361221D01*
X234043D01*
X230895Y363582D02*
X232469D01*
X235618Y361221D02*
Y365943D01*
X237979D01*
X238766Y365156D01*
Y363582D01*
X237979Y362795D01*
X235618D01*
X237192D02*
X238766Y361221D01*
X240341Y365943D02*
Y365156D01*
X241915Y363582D01*
X243489Y365156D01*
Y365943D01*
X241915Y363582D02*
Y361221D01*
X209844Y373031D02*
X214567Y376180D01*
X209844D02*
X214567Y373031D01*
X209844Y380903D02*
X210631Y379329D01*
X212206Y377754D01*
X213780D01*
X214567Y378541D01*
Y380116D01*
X213780Y380903D01*
X212993D01*
X212206Y380116D01*
Y377754D01*
X209844Y387200D02*
Y390349D01*
Y388774D01*
X214567D01*
X209844Y391923D02*
X214567Y395072D01*
X209844D02*
X214567Y391923D01*
X202954Y250000D02*
X207677Y253149D01*
X202954D02*
X207677Y250000D01*
X202954Y257872D02*
Y254723D01*
X205316D01*
X204529Y256297D01*
Y257084D01*
X205316Y257872D01*
X206890D01*
X207677Y257084D01*
Y255510D01*
X206890Y254723D01*
X207677Y264169D02*
X202954D01*
Y266530D01*
X203741Y267317D01*
X205316D01*
X206103Y266530D01*
Y264169D01*
Y265743D02*
X207677Y267317D01*
X202954Y268892D02*
X207677Y272040D01*
X202954D02*
X207677Y268892D01*
X407480Y412203D02*
X410629Y407480D01*
Y412203D02*
X407480Y407480D01*
X414565D02*
Y412203D01*
X412203Y409842D01*
X415352D01*
X424797Y411416D02*
X424010Y412203D01*
X422436D01*
X421649Y411416D01*
Y410629D01*
X422436Y409842D01*
X424010D01*
X424797Y409055D01*
Y408267D01*
X424010Y407480D01*
X422436D01*
X421649Y408267D01*
X427159Y407480D02*
X428733D01*
X429520Y408267D01*
Y409842D01*
X428733Y410629D01*
X427159D01*
X426372Y409842D01*
Y408267D01*
X427159Y407480D01*
X431095Y410629D02*
Y408267D01*
X431882Y407480D01*
X434243D01*
Y410629D01*
X435818Y407480D02*
Y410629D01*
X438179D01*
X438966Y409842D01*
Y407480D01*
X443689Y412203D02*
Y407480D01*
X441328D01*
X440541Y408267D01*
Y409842D01*
X441328Y410629D01*
X443689D01*
X452756Y430904D02*
X455904Y426181D01*
Y430904D02*
X452756Y426181D01*
X460627D02*
X457479D01*
X460627Y429330D01*
Y430117D01*
X459840Y430904D01*
X458266D01*
X457479Y430117D01*
X466924Y430904D02*
Y426968D01*
X467712Y426181D01*
X469286D01*
X470073Y426968D01*
Y430904D01*
X474796Y430117D02*
X474009Y430904D01*
X472435D01*
X471647Y430117D01*
Y429330D01*
X472435Y428543D01*
X474009D01*
X474796Y427755D01*
Y426968D01*
X474009Y426181D01*
X472435D01*
X471647Y426968D01*
X476370Y426181D02*
Y429330D01*
X477945Y430904D01*
X479519Y429330D01*
Y426181D01*
Y428543D01*
X476370D01*
X481093Y426181D02*
Y430904D01*
X483455D01*
X484242Y430117D01*
Y428543D01*
X483455Y427755D01*
X481093D01*
X482667D02*
X484242Y426181D01*
X485816Y430904D02*
X488965D01*
X487390D01*
Y426181D01*
X598425Y267717D02*
Y272439D01*
X600787D01*
X601574Y271652D01*
Y270078D01*
X600787Y269291D01*
X598425D01*
X603148Y267717D02*
X604722D01*
X603935D01*
Y272439D01*
X603148Y271652D01*
X532480Y409250D02*
X535629Y404528D01*
Y409250D02*
X532480Y404528D01*
X537203D02*
X538777D01*
X537990D01*
Y409250D01*
X537203Y408463D01*
X549010D02*
X548223Y409250D01*
X546649D01*
X545862Y408463D01*
Y407676D01*
X546649Y406889D01*
X548223D01*
X549010Y406102D01*
Y405315D01*
X548223Y404528D01*
X546649D01*
X545862Y405315D01*
X550585Y409250D02*
Y404528D01*
X552159Y406102D01*
X553733Y404528D01*
Y409250D01*
X555308D02*
Y404528D01*
X557669D01*
X558456Y405315D01*
Y408463D01*
X557669Y409250D01*
X555308D01*
M02*
