%FSLAX25Y25*%
%MOIN*%
G70*
G01*
G75*
G04 Layer_Color=32896*
%ADD10R,0.09449X0.03937*%
%ADD11R,0.09449X0.12992*%
%ADD12R,0.04331X0.03937*%
%ADD13R,0.03937X0.04331*%
%ADD14R,0.02362X0.05118*%
%ADD15R,0.03740X0.03543*%
%ADD16R,0.03740X0.03543*%
%ADD17R,0.07087X0.06299*%
%ADD18C,0.01969*%
%ADD19C,0.01181*%
%ADD20C,0.11811*%
%ADD21C,0.07874*%
%ADD22R,0.07874X0.07874*%
%ADD23C,0.09843*%
%ADD24C,0.05906*%
%ADD25R,0.19685X0.05118*%
%ADD26R,0.06299X0.07087*%
%ADD27R,0.09449X0.10236*%
%ADD28R,0.10236X0.09449*%
%ADD29R,0.05118X0.02362*%
%ADD30O,0.08661X0.02362*%
%ADD31O,0.07087X0.01181*%
%ADD32O,0.01181X0.07087*%
%ADD33R,0.03937X0.09449*%
%ADD34R,0.12992X0.09449*%
%ADD35O,0.02362X0.08661*%
%ADD36R,0.06299X0.04921*%
%ADD37R,0.09449X0.12992*%
%ADD38R,0.04921X0.06299*%
%ADD39R,0.09449X0.07087*%
%ADD40C,0.03937*%
%ADD41C,0.07874*%
%ADD42C,0.00984*%
%ADD43C,0.00787*%
%ADD44C,0.01000*%
%ADD45R,0.10249X0.04737*%
%ADD46R,0.10249X0.13792*%
%ADD47R,0.05131X0.04737*%
%ADD48R,0.04737X0.05131*%
%ADD49R,0.03162X0.05918*%
%ADD50R,0.04540X0.04343*%
%ADD51R,0.04540X0.04343*%
%ADD52R,0.07887X0.07099*%
%ADD53C,0.12611*%
%ADD54C,0.00800*%
%ADD55C,0.08674*%
%ADD56R,0.08674X0.08674*%
%ADD57C,0.10642*%
%ADD58C,0.06706*%
%ADD59R,0.20485X0.05918*%
%ADD60R,0.07099X0.07887*%
%ADD61R,0.10249X0.11036*%
%ADD62R,0.11036X0.10249*%
%ADD63R,0.05918X0.03162*%
%ADD64O,0.09461X0.03162*%
%ADD65O,0.07887X0.01981*%
%ADD66O,0.01981X0.07887*%
%ADD67R,0.04737X0.10249*%
%ADD68R,0.13792X0.10249*%
%ADD69O,0.03162X0.09461*%
%ADD70R,0.07099X0.05721*%
%ADD71R,0.10249X0.13792*%
%ADD72R,0.05721X0.07099*%
%ADD73R,0.10249X0.07887*%
%ADD74C,0.00700*%
%ADD75C,0.01394*%
%ADD76C,0.02362*%
%ADD77C,0.00394*%
D42*
X321555Y381102D02*
G03*
X321555Y381102I-492J0D01*
G01*
X344193D02*
G03*
X344193Y381102I-492J0D01*
G01*
X259154Y305906D02*
G03*
X259154Y305906I-492J0D01*
G01*
X435728Y358071D02*
G03*
X435728Y358071I-492J0D01*
G01*
X519980Y413189D02*
G03*
X519980Y413189I-492J0D01*
G01*
X553839Y377165D02*
G03*
X553839Y377165I-492J0D01*
G01*
X264862Y393721D02*
G03*
X264862Y393721I-492J0D01*
G01*
X368406Y343307D02*
G03*
X368406Y343307I-492J0D01*
G01*
X329035Y328543D02*
G03*
X329035Y328543I-492J0D01*
G01*
X376673Y424016D02*
G03*
X376673Y424016I-492J0D01*
G01*
X322933Y265768D02*
G03*
X322933Y265768I-492J0D01*
G01*
X543602Y305906D02*
G03*
X543602Y305906I-492J0D01*
G01*
X421161Y221850D02*
G03*
X421161Y221850I-492J0D01*
G01*
X560551Y227756D02*
G03*
X560551Y227756I-492J0D01*
G01*
X338484Y293898D02*
G03*
X338484Y293898I-492J0D01*
G01*
X418209Y317894D02*
G03*
X418209Y317894I-492J0D01*
G01*
X314862Y318307D02*
G03*
X314862Y318307I-492J0D01*
G01*
X309941Y429724D02*
G03*
X309941Y429724I-492J0D01*
G01*
D43*
X582874Y314370D02*
Y316732D01*
X576575Y314370D02*
Y316732D01*
X232244Y265551D02*
Y271850D01*
X231496Y265551D02*
Y271850D01*
X233858D01*
X231496Y265551D02*
X233858D01*
X340118Y214370D02*
Y220669D01*
X339370Y214370D02*
Y220669D01*
X341732D01*
X339370Y214370D02*
X341732D01*
X302953Y392717D02*
X321063D01*
X320866Y383661D02*
X321063D01*
X302953D02*
X303150D01*
X321063D02*
Y413583D01*
X302953Y383661D02*
Y413583D01*
X303150D01*
X320866D02*
X321063D01*
X325590Y392717D02*
X343701D01*
X343504Y383661D02*
X343701D01*
X325590D02*
X325787D01*
X343701D02*
Y413583D01*
X325590Y383661D02*
Y413583D01*
X325787D01*
X343504D02*
X343701D01*
X319685Y224843D02*
X325984D01*
X319685Y225590D02*
X325984D01*
Y223228D02*
Y225590D01*
X319685Y223228D02*
Y225590D01*
X287205Y381457D02*
X293504D01*
X287205Y380709D02*
X293504D01*
X287205D02*
Y383071D01*
X293504Y380709D02*
Y383071D01*
X348228Y254488D02*
X354528D01*
X348228Y253740D02*
X354528D01*
X348228D02*
Y256102D01*
X354528Y253740D02*
Y256102D01*
X398189Y375787D02*
Y382087D01*
X397441Y375787D02*
Y382087D01*
X399803D01*
X397441Y375787D02*
X399803D01*
X386614Y256339D02*
X392913D01*
X386614Y257087D02*
X392913D01*
Y254724D02*
Y257087D01*
X386614Y254724D02*
Y257087D01*
X513228Y229134D02*
Y235433D01*
X513976Y229134D02*
Y235433D01*
X511614Y229134D02*
X513976D01*
X511614Y235433D02*
X513976D01*
X483701Y229134D02*
Y235433D01*
X484449Y229134D02*
Y235433D01*
X482087Y229134D02*
X484449D01*
X482087Y235433D02*
X484449D01*
X512362Y273425D02*
Y279724D01*
X511614Y273425D02*
Y279724D01*
X513976D01*
X511614Y273425D02*
X513976D01*
X424016Y232835D02*
X430315D01*
X424016Y232087D02*
X430315D01*
X424016D02*
Y234449D01*
X430315Y232087D02*
Y234449D01*
X258661Y294291D02*
X276772D01*
X258661Y303346D02*
X258858D01*
X276575D02*
X276772D01*
X258661Y273425D02*
Y303346D01*
X276772Y273425D02*
Y303346D01*
X276575Y273425D02*
X276772D01*
X258661D02*
X258858D01*
X306653Y268504D02*
Y274803D01*
X305906Y268504D02*
Y274803D01*
X308268D01*
X305906Y268504D02*
X308268D01*
X291772Y224213D02*
Y230512D01*
X292520Y224213D02*
Y230512D01*
X290158Y224213D02*
X292520D01*
X290158Y230512D02*
X292520D01*
X408898Y205512D02*
Y211811D01*
X409646Y205512D02*
Y211811D01*
X407283Y205512D02*
X409646D01*
X407283Y211811D02*
X409646D01*
X491929Y274173D02*
X498228D01*
X491929Y273425D02*
X498228D01*
X491929D02*
Y275787D01*
X498228Y273425D02*
Y275787D01*
X390551Y290787D02*
X396850D01*
X390551Y291535D02*
X396850D01*
Y289173D02*
Y291535D01*
X390551Y289173D02*
Y291535D01*
X480118Y274173D02*
X486417D01*
X480118Y273425D02*
X486417D01*
X480118D02*
Y275787D01*
X486417Y273425D02*
Y275787D01*
X434842Y232835D02*
X441142D01*
X434842Y232087D02*
X441142D01*
X434842D02*
Y234449D01*
X441142Y232087D02*
Y234449D01*
X558504Y295079D02*
Y301378D01*
X559252Y295079D02*
Y301378D01*
X556890Y295079D02*
X559252D01*
X556890Y301378D02*
X559252D01*
X320669Y306653D02*
X326969D01*
X320669Y305906D02*
X326969D01*
X320669D02*
Y308268D01*
X326969Y305906D02*
Y308268D01*
X573268Y254724D02*
Y261024D01*
X574016Y254724D02*
Y261024D01*
X571654Y254724D02*
X574016D01*
X571654Y261024D02*
X574016D01*
X549764Y353150D02*
Y359449D01*
X549016Y353150D02*
Y359449D01*
X551378D01*
X549016Y353150D02*
X551378D01*
X493661Y337402D02*
Y343701D01*
X492913Y337402D02*
Y343701D01*
X495276D01*
X492913Y337402D02*
X495276D01*
X558504Y285236D02*
Y291535D01*
X559252Y285236D02*
Y291535D01*
X556890Y285236D02*
X559252D01*
X556890Y291535D02*
X559252D01*
X350945Y284252D02*
Y290551D01*
X350197Y284252D02*
Y290551D01*
X352559D01*
X350197Y284252D02*
X352559D01*
X398425Y320433D02*
X404724D01*
X398425Y319685D02*
X404724D01*
X398425D02*
Y322047D01*
X404724Y319685D02*
Y322047D01*
X472992Y347244D02*
Y353543D01*
X472244Y347244D02*
Y353543D01*
X474606D01*
X472244Y347244D02*
X474606D01*
X385630Y320433D02*
X391929D01*
X385630Y319685D02*
X391929D01*
X385630D02*
Y322047D01*
X391929Y319685D02*
Y322047D01*
X446850Y358071D02*
Y376181D01*
X437795Y358071D02*
Y358268D01*
Y375984D02*
Y376181D01*
Y358071D02*
X467717D01*
X437795Y376181D02*
X467717D01*
Y375984D02*
Y376181D01*
Y358071D02*
Y358268D01*
X448386Y348228D02*
Y354528D01*
X447638Y348228D02*
Y354528D01*
X450000D01*
X447638Y348228D02*
X450000D01*
X301732Y300984D02*
Y307283D01*
X300984Y300984D02*
Y307283D01*
X303346D01*
X300984Y300984D02*
X303346D01*
X305669Y353150D02*
Y359449D01*
X304921Y353150D02*
Y359449D01*
X307283D01*
X304921Y353150D02*
X307283D01*
X289173Y441378D02*
X295472D01*
X289173Y442126D02*
X295472D01*
Y439764D02*
Y442126D01*
X289173Y439764D02*
Y442126D01*
X349213Y437441D02*
X355512D01*
X349213Y438189D02*
X355512D01*
Y435827D02*
Y438189D01*
X349213Y435827D02*
Y438189D01*
X523622Y414370D02*
X526378D01*
Y417520D01*
X523622Y426181D02*
X526378D01*
Y423032D02*
Y426181D01*
X546457Y375984D02*
X549213D01*
X546457Y372835D02*
Y375984D01*
Y364173D02*
X549213D01*
X546457D02*
Y367323D01*
X204528Y295827D02*
X210827D01*
X204528Y295079D02*
X210827D01*
X204528D02*
Y297441D01*
X210827Y295079D02*
Y297441D01*
X494882Y418858D02*
X501181D01*
X494882Y418110D02*
X501181D01*
X494882D02*
Y420472D01*
X501181Y418110D02*
Y420472D01*
X251378Y373031D02*
X258465D01*
X251378Y392717D02*
X258465D01*
X251378Y373031D02*
Y392717D01*
X258465Y373031D02*
Y392717D01*
X372047Y344488D02*
X374803D01*
Y347638D01*
X372047Y356299D02*
X374803D01*
Y353150D02*
Y356299D01*
X332677Y329724D02*
X335433D01*
Y332874D01*
X332677Y341535D02*
X335433D01*
Y338386D02*
Y341535D01*
X375000Y428150D02*
Y430905D01*
X371850D02*
X375000D01*
X363189Y428150D02*
Y430905D01*
X366339D01*
X364961Y225197D02*
X367323D01*
X364961Y231496D02*
X367323D01*
X253150Y254724D02*
Y257087D01*
X246850Y254724D02*
Y257087D01*
X261614Y237008D02*
X263976D01*
X261614Y243307D02*
X263976D01*
X343307Y233071D02*
Y235433D01*
X349606Y233071D02*
Y235433D01*
X337795Y233071D02*
Y235433D01*
X331496Y233071D02*
Y235433D01*
X382087Y395472D02*
Y397835D01*
X375787Y395472D02*
Y397835D01*
X407677Y395472D02*
Y397835D01*
X401378Y395472D02*
Y397835D01*
X337402Y253740D02*
Y256102D01*
X343701Y253740D02*
Y256102D01*
X333465Y361417D02*
X335827D01*
X333465Y355118D02*
X335827D01*
X357480Y374803D02*
Y377165D01*
X351181Y374803D02*
Y377165D01*
X390945Y359055D02*
Y361417D01*
X384646Y359055D02*
Y361417D01*
X366929Y262008D02*
X369291D01*
X366929Y255709D02*
X369291D01*
X367913Y338779D02*
X370276D01*
X367913Y332480D02*
X370276D01*
X511614Y260630D02*
X513976D01*
X511614Y266929D02*
X513976D01*
X475197Y333465D02*
Y335827D01*
X481496Y333465D02*
Y335827D01*
X435236Y285236D02*
Y287598D01*
X428937Y285236D02*
Y287598D01*
X280315Y256693D02*
Y259055D01*
X286614Y256693D02*
Y259055D01*
X290158Y241339D02*
X292520D01*
X290158Y235039D02*
X292520D01*
X433858Y259646D02*
X436221D01*
X433858Y265945D02*
X436221D01*
X378740Y289173D02*
Y291535D01*
X385039Y289173D02*
Y291535D01*
X545079Y258661D02*
X547441D01*
X545079Y264961D02*
X547441D01*
X550984Y268504D02*
X553346D01*
X550984Y274803D02*
X553346D01*
X217323Y295079D02*
Y297441D01*
X223622Y295079D02*
Y297441D01*
X512992Y397441D02*
Y399803D01*
X506693Y397441D02*
Y399803D01*
X555315Y439764D02*
Y442126D01*
X549016Y439764D02*
Y442126D01*
X611024Y308858D02*
Y311221D01*
X617323Y308858D02*
Y311221D01*
X459449Y337402D02*
X461811D01*
X459449Y343701D02*
X461811D01*
X598228Y308858D02*
Y311221D01*
X604528Y308858D02*
Y311221D01*
X394488Y428937D02*
X396850D01*
X394488Y435236D02*
X396850D01*
X425984Y341339D02*
X428346D01*
X425984Y347638D02*
X428346D01*
X491929Y404724D02*
X494291D01*
X491929Y398425D02*
X494291D01*
X470276Y404724D02*
X472638D01*
X470276Y398425D02*
X472638D01*
X387598Y416142D02*
X389961D01*
X387598Y422441D02*
X389961D01*
X560827Y386024D02*
X563189D01*
X560827Y379724D02*
X563189D01*
X530315Y387008D02*
X532677D01*
X530315Y380709D02*
X532677D01*
X430315Y370866D02*
Y373228D01*
X424016Y370866D02*
Y373228D01*
X418504Y370866D02*
Y373228D01*
X412205Y370866D02*
Y373228D01*
X394882Y395472D02*
Y397835D01*
X388583Y395472D02*
Y397835D01*
X410630Y416142D02*
Y418504D01*
X404331Y416142D02*
Y418504D01*
X309449Y245079D02*
X316535D01*
X309449Y264764D02*
X316535D01*
X309449Y245079D02*
Y264764D01*
X316535Y245079D02*
Y264764D01*
X518701Y311024D02*
Y332677D01*
X540354Y311024D02*
Y332677D01*
X518701D02*
X540354D01*
X518701Y311024D02*
X540354D01*
X394291Y227756D02*
X420669D01*
X394291Y238779D02*
X420669D01*
Y227756D02*
Y238779D01*
X394291Y227756D02*
Y238779D01*
X539370Y233661D02*
X559055D01*
X539370Y240748D02*
X559055D01*
Y233661D02*
Y240748D01*
X539370Y233661D02*
Y240748D01*
X343898Y293898D02*
Y320276D01*
X354921Y293898D02*
Y320276D01*
X343898Y293898D02*
X354921D01*
X343898Y320276D02*
X354921D01*
X423622Y338583D02*
X430709D01*
X423622Y318898D02*
X430709D01*
Y338583D01*
X423622Y318898D02*
Y338583D01*
X287992Y324213D02*
X314370D01*
X287992Y335236D02*
X314370D01*
Y324213D02*
Y335236D01*
X287992Y324213D02*
Y335236D01*
X315354Y429724D02*
Y456102D01*
X326378Y429724D02*
Y456102D01*
X315354Y429724D02*
X326378D01*
X315354Y456102D02*
X326378D01*
X266890Y259232D02*
X272402D01*
X266890Y259980D02*
X272402D01*
X266890Y253681D02*
Y259980D01*
X272402Y253681D02*
Y259980D01*
X256988Y422441D02*
X267224D01*
X255217Y408071D02*
Y420669D01*
X296555Y406299D02*
Y422441D01*
X285925Y406299D02*
X296555D01*
X285925Y422441D02*
X296555D01*
X255217Y420669D02*
X256988Y422461D01*
X255217Y408071D02*
X256988Y406299D01*
X267224D01*
X273130Y348228D02*
X283366D01*
X285138Y350000D02*
Y362598D01*
X243799Y348228D02*
Y364370D01*
X254429D01*
X243799Y348228D02*
X254429D01*
X283366Y348209D02*
X285138Y350000D01*
X283366Y364370D02*
X285138Y362598D01*
X273130Y364370D02*
X283366D01*
X331319Y368268D02*
Y373780D01*
X330571Y368268D02*
Y373780D01*
Y368268D02*
X336870D01*
X330571Y373780D02*
X336870D01*
X365394Y372657D02*
X370905D01*
X365394Y371909D02*
X370905D01*
Y378209D01*
X365394Y371909D02*
Y378209D01*
X350630Y348051D02*
X356142D01*
X350630Y347303D02*
X356142D01*
Y353602D01*
X350630Y347303D02*
Y353602D01*
X256693Y323031D02*
X266732D01*
X256693Y312795D02*
X266732D01*
X238583D02*
Y323031D01*
X249213D01*
X238583Y312795D02*
X249213D01*
X266732Y323031D02*
X268504Y321260D01*
X266732Y312795D02*
X268504Y314567D01*
Y321260D01*
D44*
X270472Y253150D02*
Y254724D01*
X269685Y253937D02*
X271260D01*
X335827Y371850D02*
X337402D01*
X336614Y371063D02*
Y372638D01*
X367323Y377165D02*
Y378740D01*
X366535Y377953D02*
X368110D01*
X352559Y352559D02*
Y354134D01*
X351772Y353346D02*
X353346D01*
X247047Y329526D02*
Y326377D01*
X248622Y324803D01*
X250196Y326377D01*
Y329526D01*
X251770D02*
Y324803D01*
X254132D01*
X254919Y325590D01*
Y328739D01*
X254132Y329526D01*
X251770D01*
X256493D02*
X259642D01*
Y328739D01*
X256493Y325590D01*
Y324803D01*
X357482Y344488D02*
X360630D01*
X362205Y346062D01*
X360630Y347637D01*
X357482D01*
Y349211D02*
X362205D01*
Y351572D01*
X361418Y352360D01*
X358269D01*
X357482Y351572D01*
Y349211D01*
Y357083D02*
X358269Y355508D01*
X359843Y353934D01*
X361418D01*
X362205Y354721D01*
Y356295D01*
X361418Y357083D01*
X360630D01*
X359843Y356295D01*
Y353934D01*
X362205Y390550D02*
Y387401D01*
X363779Y385827D01*
X365353Y387401D01*
Y390550D01*
X366928D02*
Y385827D01*
X369289D01*
X370076Y386614D01*
Y389762D01*
X369289Y390550D01*
X366928D01*
X374799D02*
X371651D01*
Y388188D01*
X373225Y388975D01*
X374012D01*
X374799Y388188D01*
Y386614D01*
X374012Y385827D01*
X372438D01*
X371651Y386614D01*
X327756Y380707D02*
Y377558D01*
X329330Y375984D01*
X330905Y377558D01*
Y380707D01*
X332479D02*
Y375984D01*
X334840D01*
X335627Y376771D01*
Y379920D01*
X334840Y380707D01*
X332479D01*
X339563Y375984D02*
Y380707D01*
X337202Y378346D01*
X340350D01*
X256890Y359054D02*
Y355905D01*
X258464Y354331D01*
X260038Y355905D01*
Y359054D01*
X261613D02*
Y354331D01*
X263974D01*
X264761Y355118D01*
Y358266D01*
X263974Y359054D01*
X261613D01*
X266336Y358266D02*
X267123Y359054D01*
X268697D01*
X269484Y358266D01*
Y357479D01*
X268697Y356692D01*
X267910D01*
X268697D01*
X269484Y355905D01*
Y355118D01*
X268697Y354331D01*
X267123D01*
X266336Y355118D01*
X270669Y417124D02*
Y413976D01*
X272244Y412402D01*
X273818Y413976D01*
Y417124D01*
X275392D02*
Y412402D01*
X277754D01*
X278541Y413189D01*
Y416337D01*
X277754Y417124D01*
X275392D01*
X283264Y412402D02*
X280115D01*
X283264Y415550D01*
Y416337D01*
X282476Y417124D01*
X280902D01*
X280115Y416337D01*
X273623Y251969D02*
X276247D01*
X277559Y253280D01*
X276247Y254592D01*
X273623D01*
Y255904D02*
X277559D01*
Y257872D01*
X276903Y258528D01*
X274279D01*
X273623Y257872D01*
Y255904D01*
X277559Y259840D02*
Y261152D01*
Y260496D01*
X273623D01*
X274279Y259840D01*
X316929Y464368D02*
Y460433D01*
X317716Y459646D01*
X319291D01*
X320078Y460433D01*
Y464368D01*
X321652Y460433D02*
X322439Y459646D01*
X324013D01*
X324801Y460433D01*
Y463581D01*
X324013Y464368D01*
X322439D01*
X321652Y463581D01*
Y462794D01*
X322439Y462007D01*
X324801D01*
X310039Y344290D02*
Y340354D01*
X310826Y339567D01*
X312401D01*
X313188Y340354D01*
Y344290D01*
X314762Y343503D02*
X315549Y344290D01*
X317124D01*
X317911Y343503D01*
Y342716D01*
X317124Y341928D01*
X317911Y341141D01*
Y340354D01*
X317124Y339567D01*
X315549D01*
X314762Y340354D01*
Y341141D01*
X315549Y341928D01*
X314762Y342716D01*
Y343503D01*
X315549Y341928D02*
X317124D01*
X423228Y316731D02*
Y312795D01*
X424016Y312008D01*
X425590D01*
X426377Y312795D01*
Y316731D01*
X427951D02*
X431100D01*
Y315944D01*
X427951Y312795D01*
Y312008D01*
X348425Y329526D02*
Y325590D01*
X349212Y324803D01*
X350787D01*
X351574Y325590D01*
Y329526D01*
X356297D02*
X353148D01*
Y327165D01*
X354722Y327952D01*
X355509D01*
X356297Y327165D01*
Y325590D01*
X355509Y324803D01*
X353935D01*
X353148Y325590D01*
X562008Y239959D02*
Y236023D01*
X562795Y235236D01*
X564369D01*
X565157Y236023D01*
Y239959D01*
X569092Y235236D02*
Y239959D01*
X566731Y237598D01*
X569879D01*
X417323Y249802D02*
Y245866D01*
X418110Y245079D01*
X419684D01*
X420471Y245866D01*
Y249802D01*
X422046Y249014D02*
X422833Y249802D01*
X424407D01*
X425194Y249014D01*
Y248227D01*
X424407Y247440D01*
X423620D01*
X424407D01*
X425194Y246653D01*
Y245866D01*
X424407Y245079D01*
X422833D01*
X422046Y245866D01*
X319882Y272439D02*
Y268504D01*
X320669Y267717D01*
X322243D01*
X323030Y268504D01*
Y272439D01*
X324605Y267717D02*
X326179D01*
X325392D01*
Y272439D01*
X324605Y271652D01*
X418307Y411417D02*
X413584D01*
Y413779D01*
X414371Y414566D01*
X415946D01*
X416733Y413779D01*
Y411417D01*
Y412992D02*
X418307Y414566D01*
Y418502D02*
X413584D01*
X415946Y416140D01*
Y419289D01*
X414371Y420863D02*
X413584Y421650D01*
Y423224D01*
X414371Y424012D01*
X415159D01*
X415946Y423224D01*
Y422437D01*
Y423224D01*
X416733Y424012D01*
X417520D01*
X418307Y423224D01*
Y421650D01*
X417520Y420863D01*
X385827Y406496D02*
Y411219D01*
X388188D01*
X388975Y410432D01*
Y408857D01*
X388188Y408070D01*
X385827D01*
X387401D02*
X388975Y406496D01*
X392911D02*
Y411219D01*
X390550Y408857D01*
X393698D01*
X398421Y406496D02*
X395272D01*
X398421Y409645D01*
Y410432D01*
X397634Y411219D01*
X396060D01*
X395272Y410432D01*
X412402Y381890D02*
Y386613D01*
X414763D01*
X415550Y385825D01*
Y384251D01*
X414763Y383464D01*
X412402D01*
X413976D02*
X415550Y381890D01*
X417125Y385825D02*
X417912Y386613D01*
X419486D01*
X420273Y385825D01*
Y385038D01*
X419486Y384251D01*
X418699D01*
X419486D01*
X420273Y383464D01*
Y382677D01*
X419486Y381890D01*
X417912D01*
X417125Y382677D01*
X421847D02*
X422635Y381890D01*
X424209D01*
X424996Y382677D01*
Y385825D01*
X424209Y386613D01*
X422635D01*
X421847Y385825D01*
Y385038D01*
X422635Y384251D01*
X424996D01*
X427165Y381890D02*
Y386613D01*
X429527D01*
X430314Y385825D01*
Y384251D01*
X429527Y383464D01*
X427165D01*
X428740D02*
X430314Y381890D01*
X431888Y385825D02*
X432675Y386613D01*
X434250D01*
X435037Y385825D01*
Y385038D01*
X434250Y384251D01*
X433462D01*
X434250D01*
X435037Y383464D01*
Y382677D01*
X434250Y381890D01*
X432675D01*
X431888Y382677D01*
X436611Y385825D02*
X437398Y386613D01*
X438973D01*
X439760Y385825D01*
Y385038D01*
X438973Y384251D01*
X439760Y383464D01*
Y382677D01*
X438973Y381890D01*
X437398D01*
X436611Y382677D01*
Y383464D01*
X437398Y384251D01*
X436611Y385038D01*
Y385825D01*
X437398Y384251D02*
X438973D01*
X525591Y374016D02*
Y378739D01*
X527952D01*
X528739Y377952D01*
Y376377D01*
X527952Y375590D01*
X525591D01*
X527165D02*
X528739Y374016D01*
X530313Y377952D02*
X531101Y378739D01*
X532675D01*
X533462Y377952D01*
Y377164D01*
X532675Y376377D01*
X531888D01*
X532675D01*
X533462Y375590D01*
Y374803D01*
X532675Y374016D01*
X531101D01*
X530313Y374803D01*
X535036Y378739D02*
X538185D01*
Y377952D01*
X535036Y374803D01*
Y374016D01*
X560039Y373031D02*
Y377754D01*
X562401D01*
X563188Y376967D01*
Y375393D01*
X562401Y374606D01*
X560039D01*
X561614D02*
X563188Y373031D01*
X564762Y376967D02*
X565549Y377754D01*
X567124D01*
X567911Y376967D01*
Y376180D01*
X567124Y375393D01*
X566336D01*
X567124D01*
X567911Y374606D01*
Y373819D01*
X567124Y373031D01*
X565549D01*
X564762Y373819D01*
X572634Y377754D02*
X571059Y376967D01*
X569485Y375393D01*
Y373819D01*
X570272Y373031D01*
X571847D01*
X572634Y373819D01*
Y374606D01*
X571847Y375393D01*
X569485D01*
X381890Y424213D02*
Y427755D01*
X383661D01*
X384251Y427164D01*
Y425984D01*
X383661Y425393D01*
X381890D01*
X383070D02*
X384251Y424213D01*
X385432Y427164D02*
X386022Y427755D01*
X387203D01*
X387793Y427164D01*
Y426574D01*
X387203Y425984D01*
X386613D01*
X387203D01*
X387793Y425393D01*
Y424803D01*
X387203Y424213D01*
X386022D01*
X385432Y424803D01*
X391336Y427755D02*
X388974D01*
Y425984D01*
X390155Y426574D01*
X390745D01*
X391336Y425984D01*
Y424803D01*
X390745Y424213D01*
X389564D01*
X388974Y424803D01*
X465551Y391732D02*
Y396455D01*
X467913D01*
X468700Y395668D01*
Y394094D01*
X467913Y393307D01*
X465551D01*
X467126D02*
X468700Y391732D01*
X470274Y395668D02*
X471061Y396455D01*
X472636D01*
X473423Y395668D01*
Y394881D01*
X472636Y394094D01*
X471848D01*
X472636D01*
X473423Y393307D01*
Y392519D01*
X472636Y391732D01*
X471061D01*
X470274Y392519D01*
X477358Y391732D02*
Y396455D01*
X474997Y394094D01*
X478146D01*
X484252Y391732D02*
Y396455D01*
X486613D01*
X487401Y395668D01*
Y394094D01*
X486613Y393307D01*
X484252D01*
X485826D02*
X487401Y391732D01*
X488975Y395668D02*
X489762Y396455D01*
X491336D01*
X492123Y395668D01*
Y394881D01*
X491336Y394094D01*
X490549D01*
X491336D01*
X492123Y393307D01*
Y392519D01*
X491336Y391732D01*
X489762D01*
X488975Y392519D01*
X493698Y395668D02*
X494485Y396455D01*
X496059D01*
X496846Y395668D01*
Y394881D01*
X496059Y394094D01*
X495272D01*
X496059D01*
X496846Y393307D01*
Y392519D01*
X496059Y391732D01*
X494485D01*
X493698Y392519D01*
X421260Y351378D02*
Y356101D01*
X423621D01*
X424408Y355314D01*
Y353739D01*
X423621Y352952D01*
X421260D01*
X422834D02*
X424408Y351378D01*
X425983Y355314D02*
X426770Y356101D01*
X428344D01*
X429131Y355314D01*
Y354526D01*
X428344Y353739D01*
X427557D01*
X428344D01*
X429131Y352952D01*
Y352165D01*
X428344Y351378D01*
X426770D01*
X425983Y352165D01*
X433854Y351378D02*
X430706D01*
X433854Y354526D01*
Y355314D01*
X433067Y356101D01*
X431493D01*
X430706Y355314D01*
X389764Y437008D02*
Y441731D01*
X392125D01*
X392912Y440944D01*
Y439369D01*
X392125Y438582D01*
X389764D01*
X391338D02*
X392912Y437008D01*
X394487Y440944D02*
X395274Y441731D01*
X396848D01*
X397635Y440944D01*
Y440157D01*
X396848Y439369D01*
X396061D01*
X396848D01*
X397635Y438582D01*
Y437795D01*
X396848Y437008D01*
X395274D01*
X394487Y437795D01*
X399209Y437008D02*
X400784D01*
X399997D01*
Y441731D01*
X399209Y440944D01*
X595472Y319882D02*
Y324605D01*
X597834D01*
X598621Y323818D01*
Y322243D01*
X597834Y321456D01*
X595472D01*
X597047D02*
X598621Y319882D01*
X600195Y323818D02*
X600983Y324605D01*
X602557D01*
X603344Y323818D01*
Y323030D01*
X602557Y322243D01*
X601770D01*
X602557D01*
X603344Y321456D01*
Y320669D01*
X602557Y319882D01*
X600983D01*
X600195Y320669D01*
X604918Y323818D02*
X605705Y324605D01*
X607280D01*
X608067Y323818D01*
Y320669D01*
X607280Y319882D01*
X605705D01*
X604918Y320669D01*
Y323818D01*
X451772Y331693D02*
Y336416D01*
X454133D01*
X454920Y335629D01*
Y334054D01*
X454133Y333267D01*
X451772D01*
X453346D02*
X454920Y331693D01*
X459643D02*
X456495D01*
X459643Y334841D01*
Y335629D01*
X458856Y336416D01*
X457282D01*
X456495Y335629D01*
X461217Y332480D02*
X462005Y331693D01*
X463579D01*
X464366Y332480D01*
Y335629D01*
X463579Y336416D01*
X462005D01*
X461217Y335629D01*
Y334841D01*
X462005Y334054D01*
X464366D01*
X610236Y319882D02*
Y324605D01*
X612598D01*
X613385Y323818D01*
Y322243D01*
X612598Y321456D01*
X610236D01*
X611810D02*
X613385Y319882D01*
X618108D02*
X614959D01*
X618108Y323030D01*
Y323818D01*
X617320Y324605D01*
X615746D01*
X614959Y323818D01*
X619682D02*
X620469Y324605D01*
X622043D01*
X622831Y323818D01*
Y323030D01*
X622043Y322243D01*
X622831Y321456D01*
Y320669D01*
X622043Y319882D01*
X620469D01*
X619682Y320669D01*
Y321456D01*
X620469Y322243D01*
X619682Y323030D01*
Y323818D01*
X620469Y322243D02*
X622043D01*
X562992Y433071D02*
X558269D01*
Y435432D01*
X559056Y436220D01*
X560631D01*
X561418Y435432D01*
Y433071D01*
Y434645D02*
X562992Y436220D01*
Y440942D02*
Y437794D01*
X559843Y440942D01*
X559056D01*
X558269Y440155D01*
Y438581D01*
X559056Y437794D01*
X558269Y442517D02*
Y445665D01*
X559056D01*
X562205Y442517D01*
X562992D01*
X561418Y447239D02*
X557482D01*
X562205D02*
X562992D01*
X561418Y448814D02*
X557482D01*
X562205D02*
X562992D01*
X504921Y383858D02*
Y388581D01*
X507283D01*
X508070Y387794D01*
Y386220D01*
X507283Y385433D01*
X504921D01*
X506496D02*
X508070Y383858D01*
X512793D02*
X509644D01*
X512793Y387007D01*
Y387794D01*
X512006Y388581D01*
X510431D01*
X509644Y387794D01*
X517516Y388581D02*
X514367D01*
Y386220D01*
X515941Y387007D01*
X516728D01*
X517516Y386220D01*
Y384645D01*
X516728Y383858D01*
X515154D01*
X514367Y384645D01*
X230148Y290732D02*
X225425D01*
Y293094D01*
X226212Y293881D01*
X227787D01*
X228574Y293094D01*
Y290732D01*
Y292306D02*
X230148Y293881D01*
Y298604D02*
Y295455D01*
X227000Y298604D01*
X226212D01*
X225425Y297816D01*
Y296242D01*
X226212Y295455D01*
X230148Y302539D02*
X225425D01*
X227787Y300178D01*
Y303327D01*
X545276Y277559D02*
Y282282D01*
X547637D01*
X548424Y281495D01*
Y279921D01*
X547637Y279133D01*
X545276D01*
X546850D02*
X548424Y277559D01*
X553147D02*
X549999D01*
X553147Y280708D01*
Y281495D01*
X552360Y282282D01*
X550786D01*
X549999Y281495D01*
X554721D02*
X555509Y282282D01*
X557083D01*
X557870Y281495D01*
Y280708D01*
X557083Y279921D01*
X556296D01*
X557083D01*
X557870Y279133D01*
Y278346D01*
X557083Y277559D01*
X555509D01*
X554721Y278346D01*
X536417Y251969D02*
Y256691D01*
X538779D01*
X539566Y255904D01*
Y254330D01*
X538779Y253543D01*
X536417D01*
X537992D02*
X539566Y251969D01*
X544289D02*
X541140D01*
X544289Y255117D01*
Y255904D01*
X543502Y256691D01*
X541927D01*
X541140Y255904D01*
X549012Y251969D02*
X545863D01*
X549012Y255117D01*
Y255904D01*
X548224Y256691D01*
X546650D01*
X545863Y255904D01*
X376969Y301181D02*
Y305904D01*
X379330D01*
X380117Y305117D01*
Y303542D01*
X379330Y302755D01*
X376969D01*
X378543D02*
X380117Y301181D01*
X384840D02*
X381691D01*
X384840Y304330D01*
Y305117D01*
X384053Y305904D01*
X382478D01*
X381691Y305117D01*
X386414Y301181D02*
X387988D01*
X387201D01*
Y305904D01*
X386414Y305117D01*
X428150Y268701D02*
Y273424D01*
X430511D01*
X431298Y272637D01*
Y271062D01*
X430511Y270275D01*
X428150D01*
X429724D02*
X431298Y268701D01*
X436021D02*
X432872D01*
X436021Y271849D01*
Y272637D01*
X435234Y273424D01*
X433660D01*
X432872Y272637D01*
X437595D02*
X438382Y273424D01*
X439957D01*
X440744Y272637D01*
Y269488D01*
X439957Y268701D01*
X438382D01*
X437595Y269488D01*
Y272637D01*
X284449Y243110D02*
Y247833D01*
X286810D01*
X287597Y247046D01*
Y245472D01*
X286810Y244685D01*
X284449D01*
X286023D02*
X287597Y243110D01*
X289172D02*
X290746D01*
X289959D01*
Y247833D01*
X289172Y247046D01*
X293107Y243897D02*
X293895Y243110D01*
X295469D01*
X296256Y243897D01*
Y247046D01*
X295469Y247833D01*
X293895D01*
X293107Y247046D01*
Y246259D01*
X293895Y245472D01*
X296256D01*
X293307Y251969D02*
X288584D01*
Y254330D01*
X289371Y255117D01*
X290946D01*
X291733Y254330D01*
Y251969D01*
Y253543D02*
X293307Y255117D01*
Y256691D02*
Y258266D01*
Y257478D01*
X288584D01*
X289371Y256691D01*
Y260627D02*
X288584Y261414D01*
Y262989D01*
X289371Y263776D01*
X290159D01*
X290946Y262989D01*
X291733Y263776D01*
X292520D01*
X293307Y262989D01*
Y261414D01*
X292520Y260627D01*
X291733D01*
X290946Y261414D01*
X290159Y260627D01*
X289371D01*
X290946Y261414D02*
Y262989D01*
X427165Y280512D02*
X422442D01*
Y282873D01*
X423230Y283660D01*
X424804D01*
X425591Y282873D01*
Y280512D01*
Y282086D02*
X427165Y283660D01*
Y285235D02*
Y286809D01*
Y286022D01*
X422442D01*
X423230Y285235D01*
X422442Y289170D02*
Y292319D01*
X423230D01*
X426378Y289170D01*
X427165D01*
X472441Y319882D02*
Y324605D01*
X474802D01*
X475590Y323818D01*
Y322243D01*
X474802Y321456D01*
X472441D01*
X474015D02*
X475590Y319882D01*
X477164D02*
X478738D01*
X477951D01*
Y324605D01*
X477164Y323818D01*
X484248Y324605D02*
X482674Y323818D01*
X481100Y322243D01*
Y320669D01*
X481887Y319882D01*
X483461D01*
X484248Y320669D01*
Y321456D01*
X483461Y322243D01*
X481100D01*
X491142Y260827D02*
Y265550D01*
X493503D01*
X494290Y264762D01*
Y263188D01*
X493503Y262401D01*
X491142D01*
X492716D02*
X494290Y260827D01*
X495865D02*
X497439D01*
X496652D01*
Y265550D01*
X495865Y264762D01*
X502949Y265550D02*
X499800D01*
Y263188D01*
X501375Y263975D01*
X502162D01*
X502949Y263188D01*
Y261614D01*
X502162Y260827D01*
X500588D01*
X499800Y261614D01*
X364173Y325787D02*
Y330510D01*
X366535D01*
X367322Y329723D01*
Y328149D01*
X366535Y327362D01*
X364173D01*
X365747D02*
X367322Y325787D01*
X368896D02*
X370470D01*
X369683D01*
Y330510D01*
X368896Y329723D01*
X375193Y325787D02*
Y330510D01*
X372832Y328149D01*
X375980D01*
X363189Y264764D02*
Y269487D01*
X365550D01*
X366338Y268700D01*
Y267125D01*
X365550Y266338D01*
X363189D01*
X364763D02*
X366338Y264764D01*
X367912D02*
X369486D01*
X368699D01*
Y269487D01*
X367912Y268700D01*
X371848D02*
X372635Y269487D01*
X374209D01*
X374996Y268700D01*
Y267912D01*
X374209Y267125D01*
X373422D01*
X374209D01*
X374996Y266338D01*
Y265551D01*
X374209Y264764D01*
X372635D01*
X371848Y265551D01*
X398622Y353346D02*
X393899D01*
Y355708D01*
X394686Y356495D01*
X396261D01*
X397048Y355708D01*
Y353346D01*
Y354921D02*
X398622Y356495D01*
Y358069D02*
Y359644D01*
Y358857D01*
X393899D01*
X394686Y358069D01*
X398622Y365154D02*
Y362005D01*
X395474Y365154D01*
X394686D01*
X393899Y364367D01*
Y362792D01*
X394686Y362005D01*
X348425Y386811D02*
Y391534D01*
X350787D01*
X351574Y390747D01*
Y389173D01*
X350787Y388385D01*
X348425D01*
X349999D02*
X351574Y386811D01*
X353148D02*
X354722D01*
X353935D01*
Y391534D01*
X353148Y390747D01*
X357084Y386811D02*
X358658D01*
X357871D01*
Y391534D01*
X357084Y390747D01*
X327756Y347441D02*
Y352164D01*
X330117D01*
X330905Y351377D01*
Y349802D01*
X330117Y349015D01*
X327756D01*
X329330D02*
X330905Y347441D01*
X332479D02*
X334053D01*
X333266D01*
Y352164D01*
X332479Y351377D01*
X336415D02*
X337202Y352164D01*
X338776D01*
X339563Y351377D01*
Y348228D01*
X338776Y347441D01*
X337202D01*
X336415Y348228D01*
Y351377D01*
X336614Y264764D02*
Y269487D01*
X338976D01*
X339763Y268700D01*
Y267125D01*
X338976Y266338D01*
X336614D01*
X338189D02*
X339763Y264764D01*
X341337Y265551D02*
X342124Y264764D01*
X343699D01*
X344486Y265551D01*
Y268700D01*
X343699Y269487D01*
X342124D01*
X341337Y268700D01*
Y267912D01*
X342124Y267125D01*
X344486D01*
X414370Y391732D02*
X409647D01*
Y394094D01*
X410434Y394881D01*
X412009D01*
X412796Y394094D01*
Y391732D01*
Y393307D02*
X414370Y394881D01*
X410434Y396455D02*
X409647Y397242D01*
Y398817D01*
X410434Y399604D01*
X411222D01*
X412009Y398817D01*
X412796Y399604D01*
X413583D01*
X414370Y398817D01*
Y397242D01*
X413583Y396455D01*
X412796D01*
X412009Y397242D01*
X411222Y396455D01*
X410434D01*
X412009Y397242D02*
Y398817D01*
X375000Y406496D02*
Y411219D01*
X377361D01*
X378149Y410432D01*
Y408857D01*
X377361Y408070D01*
X375000D01*
X376574D02*
X378149Y406496D01*
X379723Y411219D02*
X382872D01*
Y410432D01*
X379723Y407283D01*
Y406496D01*
X328740Y235236D02*
X324017D01*
Y237598D01*
X324804Y238385D01*
X326379D01*
X327166Y237598D01*
Y235236D01*
Y236810D02*
X328740Y238385D01*
X324017Y243108D02*
X324804Y241533D01*
X326379Y239959D01*
X327953D01*
X328740Y240746D01*
Y242320D01*
X327953Y243108D01*
X327166D01*
X326379Y242320D01*
Y239959D01*
X356299Y231299D02*
X351576D01*
Y233661D01*
X352363Y234448D01*
X353938D01*
X354725Y233661D01*
Y231299D01*
Y232874D02*
X356299Y234448D01*
X351576Y239171D02*
Y236022D01*
X353938D01*
X353151Y237596D01*
Y238384D01*
X353938Y239171D01*
X355512D01*
X356299Y238384D01*
Y236809D01*
X355512Y236022D01*
X258858Y230315D02*
Y235038D01*
X261220D01*
X262007Y234251D01*
Y232676D01*
X261220Y231889D01*
X258858D01*
X260433D02*
X262007Y230315D01*
X265943D02*
Y235038D01*
X263581Y232676D01*
X266730D01*
X244094Y250984D02*
X239372D01*
Y253346D01*
X240159Y254133D01*
X241733D01*
X242520Y253346D01*
Y250984D01*
Y252558D02*
X244094Y254133D01*
X240159Y255707D02*
X239372Y256494D01*
Y258069D01*
X240159Y258856D01*
X240946D01*
X241733Y258069D01*
Y257281D01*
Y258069D01*
X242520Y258856D01*
X243307D01*
X244094Y258069D01*
Y256494D01*
X243307Y255707D01*
X363189Y217520D02*
Y222243D01*
X365550D01*
X366338Y221455D01*
Y219881D01*
X365550Y219094D01*
X363189D01*
X364763D02*
X366338Y217520D01*
X367912D02*
X369486D01*
X368699D01*
Y222243D01*
X367912Y221455D01*
X370275Y415157D02*
Y418306D01*
X369487Y419093D01*
X367913D01*
X367126Y418306D01*
Y415157D01*
X367913Y414370D01*
X369487D01*
X368700Y415944D02*
X370275Y414370D01*
X369487D02*
X370275Y415157D01*
X374210Y414370D02*
Y419093D01*
X371849Y416732D01*
X374997D01*
X340747Y339370D02*
Y342518D01*
X339960Y343306D01*
X338386D01*
X337598Y342518D01*
Y339370D01*
X338386Y338583D01*
X339960D01*
X339173Y340157D02*
X340747Y338583D01*
X339960D02*
X340747Y339370D01*
X342321Y342518D02*
X343109Y343306D01*
X344683D01*
X345470Y342518D01*
Y341731D01*
X344683Y340944D01*
X343896D01*
X344683D01*
X345470Y340157D01*
Y339370D01*
X344683Y338583D01*
X343109D01*
X342321Y339370D01*
X370275Y360039D02*
Y363188D01*
X369487Y363975D01*
X367913D01*
X367126Y363188D01*
Y360039D01*
X367913Y359252D01*
X369487D01*
X368700Y360826D02*
X370275Y359252D01*
X369487D02*
X370275Y360039D01*
X374997Y359252D02*
X371849D01*
X374997Y362401D01*
Y363188D01*
X374210Y363975D01*
X372636D01*
X371849Y363188D01*
X255117Y396456D02*
Y399605D01*
X254330Y400392D01*
X252756D01*
X251969Y399605D01*
Y396456D01*
X252756Y395669D01*
X254330D01*
X253543Y397244D02*
X255117Y395669D01*
X254330D02*
X255117Y396456D01*
X256691Y395669D02*
X258266D01*
X257478D01*
Y400392D01*
X256691Y399605D01*
X504135Y413386D02*
X508858D01*
X506497D01*
Y416534D01*
X504135D01*
X508858D01*
X504135Y418109D02*
X508858D01*
Y421257D01*
X508071Y422832D02*
X508858Y423619D01*
Y425193D01*
X508071Y425980D01*
X504922D01*
X504135Y425193D01*
Y423619D01*
X504922Y422832D01*
X505710D01*
X506497Y423619D01*
Y425980D01*
X198033Y289370D02*
X202756D01*
X200395D01*
Y292519D01*
X198033D01*
X202756D01*
X198033Y294093D02*
X202756D01*
Y297242D01*
X198820Y298816D02*
X198033Y299603D01*
Y301177D01*
X198820Y301964D01*
X199607D01*
X200395Y301177D01*
X201182Y301964D01*
X201969D01*
X202756Y301177D01*
Y299603D01*
X201969Y298816D01*
X201182D01*
X200395Y299603D01*
X199607Y298816D01*
X198820D01*
X200395Y299603D02*
Y301177D01*
X529528Y368896D02*
Y364173D01*
X531889D01*
X532676Y364960D01*
Y368109D01*
X531889Y368896D01*
X529528D01*
X534250Y364173D02*
X535825D01*
X535038D01*
Y368896D01*
X534250Y368109D01*
X538186Y364173D02*
X539760D01*
X538973D01*
Y368896D01*
X538186Y368109D01*
X517717Y433857D02*
Y429134D01*
X520078D01*
X520865Y429921D01*
Y433070D01*
X520078Y433857D01*
X517717D01*
X522439Y429134D02*
X524014D01*
X523227D01*
Y433857D01*
X522439Y433070D01*
X526375D02*
X527162Y433857D01*
X528737D01*
X529524Y433070D01*
Y429921D01*
X528737Y429134D01*
X527162D01*
X526375Y429921D01*
Y433070D01*
X351574Y452755D02*
X350787Y453542D01*
X349212D01*
X348425Y452755D01*
Y449606D01*
X349212Y448819D01*
X350787D01*
X351574Y449606D01*
X356297Y453542D02*
X353148D01*
Y451180D01*
X354722Y451967D01*
X355509D01*
X356297Y451180D01*
Y449606D01*
X355509Y448819D01*
X353935D01*
X353148Y449606D01*
X357871Y448819D02*
X359445D01*
X358658D01*
Y453542D01*
X357871Y452755D01*
X289566Y455707D02*
X288779Y456495D01*
X287205D01*
X286417Y455707D01*
Y452559D01*
X287205Y451772D01*
X288779D01*
X289566Y452559D01*
X294289Y456495D02*
X291140D01*
Y454133D01*
X292715Y454920D01*
X293502D01*
X294289Y454133D01*
Y452559D01*
X293502Y451772D01*
X291927D01*
X291140Y452559D01*
X295863Y455707D02*
X296650Y456495D01*
X298224D01*
X299012Y455707D01*
Y452559D01*
X298224Y451772D01*
X296650D01*
X295863Y452559D01*
Y455707D01*
X304330Y366141D02*
X303542Y366928D01*
X301968D01*
X301181Y366141D01*
Y362992D01*
X301968Y362205D01*
X303542D01*
X304330Y362992D01*
X305904Y366141D02*
X306691Y366928D01*
X308265D01*
X309053Y366141D01*
Y365353D01*
X308265Y364566D01*
X307478D01*
X308265D01*
X309053Y363779D01*
Y362992D01*
X308265Y362205D01*
X306691D01*
X305904Y362992D01*
X310627Y366928D02*
X313775D01*
Y366141D01*
X310627Y362992D01*
Y362205D01*
X298424Y296259D02*
X297637Y297046D01*
X296063D01*
X295276Y296259D01*
Y293110D01*
X296063Y292323D01*
X297637D01*
X298424Y293110D01*
X299998Y296259D02*
X300786Y297046D01*
X302360D01*
X303147Y296259D01*
Y295471D01*
X302360Y294684D01*
X301573D01*
X302360D01*
X303147Y293897D01*
Y293110D01*
X302360Y292323D01*
X300786D01*
X299998Y293110D01*
X307870Y297046D02*
X306296Y296259D01*
X304721Y294684D01*
Y293110D01*
X305508Y292323D01*
X307083D01*
X307870Y293110D01*
Y293897D01*
X307083Y294684D01*
X304721D01*
X442125Y345471D02*
X441338Y346258D01*
X439763D01*
X438976Y345471D01*
Y342323D01*
X439763Y341535D01*
X441338D01*
X442125Y342323D01*
X443699Y345471D02*
X444486Y346258D01*
X446061D01*
X446848Y345471D01*
Y344684D01*
X446061Y343897D01*
X445273D01*
X446061D01*
X446848Y343110D01*
Y342323D01*
X446061Y341535D01*
X444486D01*
X443699Y342323D01*
X450784Y341535D02*
Y346258D01*
X448422Y343897D01*
X451571D01*
X449999Y369093D02*
X449212Y369880D01*
X447638D01*
X446850Y369093D01*
Y365945D01*
X447638Y365158D01*
X449212D01*
X449999Y365945D01*
X451573Y369093D02*
X452360Y369880D01*
X453935D01*
X454722Y369093D01*
Y368306D01*
X453935Y367519D01*
X453148D01*
X453935D01*
X454722Y366732D01*
Y365945D01*
X453935Y365158D01*
X452360D01*
X451573Y365945D01*
X456296Y369093D02*
X457083Y369880D01*
X458658D01*
X459445Y369093D01*
Y368306D01*
X458658Y367519D01*
X457870D01*
X458658D01*
X459445Y366732D01*
Y365945D01*
X458658Y365158D01*
X457083D01*
X456296Y365945D01*
X385038Y335629D02*
X384251Y336416D01*
X382677D01*
X381890Y335629D01*
Y332480D01*
X382677Y331693D01*
X384251D01*
X385038Y332480D01*
X386613Y335629D02*
X387400Y336416D01*
X388974D01*
X389761Y335629D01*
Y334841D01*
X388974Y334054D01*
X388187D01*
X388974D01*
X389761Y333267D01*
Y332480D01*
X388974Y331693D01*
X387400D01*
X386613Y332480D01*
X394484Y331693D02*
X391336D01*
X394484Y334841D01*
Y335629D01*
X393697Y336416D01*
X392123D01*
X391336Y335629D01*
X472637Y359251D02*
X471850Y360038D01*
X470275D01*
X469488Y359251D01*
Y356102D01*
X470275Y355315D01*
X471850D01*
X472637Y356102D01*
X474211Y359251D02*
X474998Y360038D01*
X476573D01*
X477360Y359251D01*
Y358464D01*
X476573Y357676D01*
X475785D01*
X476573D01*
X477360Y356889D01*
Y356102D01*
X476573Y355315D01*
X474998D01*
X474211Y356102D01*
X478934Y355315D02*
X480508D01*
X479721D01*
Y360038D01*
X478934Y359251D01*
X401771Y334644D02*
X400983Y335432D01*
X399409D01*
X398622Y334644D01*
Y331496D01*
X399409Y330709D01*
X400983D01*
X401771Y331496D01*
X403345Y334644D02*
X404132Y335432D01*
X405706D01*
X406494Y334644D01*
Y333857D01*
X405706Y333070D01*
X404919D01*
X405706D01*
X406494Y332283D01*
Y331496D01*
X405706Y330709D01*
X404132D01*
X403345Y331496D01*
X408068Y334644D02*
X408855Y335432D01*
X410429D01*
X411216Y334644D01*
Y331496D01*
X410429Y330709D01*
X408855D01*
X408068Y331496D01*
Y334644D01*
X348621Y281495D02*
X347834Y282282D01*
X346260D01*
X345472Y281495D01*
Y278346D01*
X346260Y277559D01*
X347834D01*
X348621Y278346D01*
X353344Y277559D02*
X350195D01*
X353344Y280708D01*
Y281495D01*
X352557Y282282D01*
X350982D01*
X350195Y281495D01*
X354918D02*
X355705Y282282D01*
X357280D01*
X358067Y281495D01*
Y280708D01*
X357280Y279921D01*
X358067Y279133D01*
Y278346D01*
X357280Y277559D01*
X355705D01*
X354918Y278346D01*
Y279133D01*
X355705Y279921D01*
X354918Y280708D01*
Y281495D01*
X355705Y279921D02*
X357280D01*
X537597Y290353D02*
X536810Y291140D01*
X535236D01*
X534449Y290353D01*
Y287205D01*
X535236Y286417D01*
X536810D01*
X537597Y287205D01*
X542320Y286417D02*
X539172D01*
X542320Y289566D01*
Y290353D01*
X541533Y291140D01*
X539959D01*
X539172Y290353D01*
X543895Y291140D02*
X547043D01*
Y290353D01*
X543895Y287205D01*
Y286417D01*
X492322Y334644D02*
X491535Y335432D01*
X489960D01*
X489173Y334644D01*
Y331496D01*
X489960Y330709D01*
X491535D01*
X492322Y331496D01*
X497045Y330709D02*
X493896D01*
X497045Y333857D01*
Y334644D01*
X496257Y335432D01*
X494683D01*
X493896Y334644D01*
X501768Y335432D02*
X500193Y334644D01*
X498619Y333070D01*
Y331496D01*
X499406Y330709D01*
X500980D01*
X501768Y331496D01*
Y332283D01*
X500980Y333070D01*
X498619D01*
X546456Y350392D02*
X545669Y351180D01*
X544094D01*
X543307Y350392D01*
Y347244D01*
X544094Y346457D01*
X545669D01*
X546456Y347244D01*
X551179Y346457D02*
X548030D01*
X551179Y349605D01*
Y350392D01*
X550391Y351180D01*
X548817D01*
X548030Y350392D01*
X555901Y351180D02*
X552753D01*
Y348818D01*
X554327Y349605D01*
X555114D01*
X555901Y348818D01*
Y347244D01*
X555114Y346457D01*
X553540D01*
X552753Y347244D01*
X571062Y266731D02*
X570275Y267518D01*
X568701D01*
X567913Y266731D01*
Y263582D01*
X568701Y262795D01*
X570275D01*
X571062Y263582D01*
X575785Y262795D02*
X572636D01*
X575785Y265944D01*
Y266731D01*
X574998Y267518D01*
X573423D01*
X572636Y266731D01*
X579721Y262795D02*
Y267518D01*
X577359Y265157D01*
X580508D01*
X314962Y303345D02*
X314175Y302558D01*
Y300984D01*
X314962Y300197D01*
X318110D01*
X318898Y300984D01*
Y302558D01*
X318110Y303345D01*
X318898Y308068D02*
Y304920D01*
X315749Y308068D01*
X314962D01*
X314175Y307281D01*
Y305707D01*
X314962Y304920D01*
Y309643D02*
X314175Y310430D01*
Y312004D01*
X314962Y312791D01*
X315749D01*
X316536Y312004D01*
Y311217D01*
Y312004D01*
X317323Y312791D01*
X318110D01*
X318898Y312004D01*
Y310430D01*
X318110Y309643D01*
X555314Y307085D02*
X554527Y307873D01*
X552952D01*
X552165Y307085D01*
Y303937D01*
X552952Y303150D01*
X554527D01*
X555314Y303937D01*
X560037Y303150D02*
X556888D01*
X560037Y306298D01*
Y307085D01*
X559250Y307873D01*
X557675D01*
X556888Y307085D01*
X564760Y303150D02*
X561611D01*
X564760Y306298D01*
Y307085D01*
X563973Y307873D01*
X562398D01*
X561611Y307085D01*
X443899Y229526D02*
X443112Y228739D01*
Y227165D01*
X443899Y226378D01*
X447048D01*
X447835Y227165D01*
Y228739D01*
X447048Y229526D01*
X447835Y234249D02*
Y231101D01*
X444686Y234249D01*
X443899D01*
X443112Y233462D01*
Y231888D01*
X443899Y231101D01*
X447835Y235824D02*
Y237398D01*
Y236611D01*
X443112D01*
X443899Y235824D01*
X480511Y289369D02*
X479724Y290156D01*
X478149D01*
X477362Y289369D01*
Y286220D01*
X478149Y285433D01*
X479724D01*
X480511Y286220D01*
X485234Y285433D02*
X482085D01*
X485234Y288582D01*
Y289369D01*
X484446Y290156D01*
X482872D01*
X482085Y289369D01*
X486808D02*
X487595Y290156D01*
X489169D01*
X489957Y289369D01*
Y286220D01*
X489169Y285433D01*
X487595D01*
X486808Y286220D01*
Y289369D01*
X393897Y305117D02*
X393109Y305904D01*
X391535D01*
X390748Y305117D01*
Y301968D01*
X391535Y301181D01*
X393109D01*
X393897Y301968D01*
X395471Y301181D02*
X397045D01*
X396258D01*
Y305904D01*
X395471Y305117D01*
X399407Y301968D02*
X400194Y301181D01*
X401768D01*
X402555Y301968D01*
Y305117D01*
X401768Y305904D01*
X400194D01*
X399407Y305117D01*
Y304330D01*
X400194Y303542D01*
X402555D01*
X495275Y289369D02*
X494487Y290156D01*
X492913D01*
X492126Y289369D01*
Y286220D01*
X492913Y285433D01*
X494487D01*
X495275Y286220D01*
X496849Y285433D02*
X498423D01*
X497636D01*
Y290156D01*
X496849Y289369D01*
X500785D02*
X501572Y290156D01*
X503146D01*
X503933Y289369D01*
Y288582D01*
X503146Y287794D01*
X503933Y287007D01*
Y286220D01*
X503146Y285433D01*
X501572D01*
X500785Y286220D01*
Y287007D01*
X501572Y287794D01*
X500785Y288582D01*
Y289369D01*
X501572Y287794D02*
X503146D01*
X406692Y202755D02*
X405905Y203542D01*
X404330D01*
X403543Y202755D01*
Y199606D01*
X404330Y198819D01*
X405905D01*
X406692Y199606D01*
X408266Y198819D02*
X409840D01*
X409053D01*
Y203542D01*
X408266Y202755D01*
X412202Y203542D02*
X415350D01*
Y202755D01*
X412202Y199606D01*
Y198819D01*
X288582Y221455D02*
X287794Y222243D01*
X286220D01*
X285433Y221455D01*
Y218307D01*
X286220Y217520D01*
X287794D01*
X288582Y218307D01*
X290156Y217520D02*
X291730D01*
X290943D01*
Y222243D01*
X290156Y221455D01*
X297240Y222243D02*
X295666Y221455D01*
X294092Y219881D01*
Y218307D01*
X294879Y217520D01*
X296453D01*
X297240Y218307D01*
Y219094D01*
X296453Y219881D01*
X294092D01*
X305314Y281495D02*
X304527Y282282D01*
X302953D01*
X302165Y281495D01*
Y278346D01*
X302953Y277559D01*
X304527D01*
X305314Y278346D01*
X306888Y277559D02*
X308463D01*
X307675D01*
Y282282D01*
X306888Y281495D01*
X313973Y282282D02*
X310824D01*
Y279921D01*
X312398Y280708D01*
X313185D01*
X313973Y279921D01*
Y278346D01*
X313185Y277559D01*
X311611D01*
X310824Y278346D01*
X264960Y289369D02*
X264173Y290156D01*
X262598D01*
X261811Y289369D01*
Y286220D01*
X262598Y285433D01*
X264173D01*
X264960Y286220D01*
X266534Y285433D02*
X268108D01*
X267321D01*
Y290156D01*
X266534Y289369D01*
X272831Y285433D02*
Y290156D01*
X270470Y287794D01*
X273618D01*
X425393Y221455D02*
X424606Y222243D01*
X423031D01*
X422244Y221455D01*
Y218307D01*
X423031Y217520D01*
X424606D01*
X425393Y218307D01*
X426967Y217520D02*
X428541D01*
X427754D01*
Y222243D01*
X426967Y221455D01*
X430903D02*
X431690Y222243D01*
X433264D01*
X434051Y221455D01*
Y220668D01*
X433264Y219881D01*
X432477D01*
X433264D01*
X434051Y219094D01*
Y218307D01*
X433264Y217520D01*
X431690D01*
X430903Y218307D01*
X512007Y285432D02*
X511220Y286219D01*
X509645D01*
X508858Y285432D01*
Y282283D01*
X509645Y281496D01*
X511220D01*
X512007Y282283D01*
X513581Y281496D02*
X515155D01*
X514368D01*
Y286219D01*
X513581Y285432D01*
X520666Y281496D02*
X517517D01*
X520666Y284645D01*
Y285432D01*
X519878Y286219D01*
X518304D01*
X517517Y285432D01*
X481495Y226377D02*
X480708Y227164D01*
X479134D01*
X478346Y226377D01*
Y223228D01*
X479134Y222441D01*
X480708D01*
X481495Y223228D01*
X483069Y222441D02*
X484644D01*
X483856D01*
Y227164D01*
X483069Y226377D01*
X487005Y222441D02*
X488579D01*
X487792D01*
Y227164D01*
X487005Y226377D01*
X510038Y225392D02*
X509251Y226180D01*
X507677D01*
X506890Y225392D01*
Y222244D01*
X507677Y221457D01*
X509251D01*
X510038Y222244D01*
X511613Y221457D02*
X513187D01*
X512400D01*
Y226180D01*
X511613Y225392D01*
X515548D02*
X516335Y226180D01*
X517910D01*
X518697Y225392D01*
Y222244D01*
X517910Y221457D01*
X516335D01*
X515548Y222244D01*
Y225392D01*
X380907Y255117D02*
X380120Y254330D01*
Y252756D01*
X380907Y251969D01*
X384055D01*
X384842Y252756D01*
Y254330D01*
X384055Y255117D01*
Y256691D02*
X384842Y257478D01*
Y259053D01*
X384055Y259840D01*
X380907D01*
X380120Y259053D01*
Y257478D01*
X380907Y256691D01*
X381694D01*
X382481Y257478D01*
Y259840D01*
X397834Y373030D02*
X397046Y373817D01*
X395472D01*
X394685Y373030D01*
Y369882D01*
X395472Y369094D01*
X397046D01*
X397834Y369882D01*
X399408Y373030D02*
X400195Y373817D01*
X401769D01*
X402557Y373030D01*
Y372243D01*
X401769Y371456D01*
X402557Y370669D01*
Y369882D01*
X401769Y369094D01*
X400195D01*
X399408Y369882D01*
Y370669D01*
X400195Y371456D01*
X399408Y372243D01*
Y373030D01*
X400195Y371456D02*
X401769D01*
X351574Y269684D02*
X350787Y270471D01*
X349212D01*
X348425Y269684D01*
Y266535D01*
X349212Y265748D01*
X350787D01*
X351574Y266535D01*
X353148Y270471D02*
X356297D01*
Y269684D01*
X353148Y266535D01*
Y265748D01*
X280513Y380117D02*
X279726Y379330D01*
Y377756D01*
X280513Y376969D01*
X283662D01*
X284449Y377756D01*
Y379330D01*
X283662Y380117D01*
X279726Y384840D02*
X280513Y383266D01*
X282087Y381691D01*
X283662D01*
X284449Y382478D01*
Y384053D01*
X283662Y384840D01*
X282874D01*
X282087Y384053D01*
Y381691D01*
X312993Y222637D02*
X312206Y221850D01*
Y220275D01*
X312993Y219488D01*
X316142D01*
X316929Y220275D01*
Y221850D01*
X316142Y222637D01*
X312206Y227360D02*
Y224211D01*
X314568D01*
X313780Y225785D01*
Y226572D01*
X314568Y227360D01*
X316142D01*
X316929Y226572D01*
Y224998D01*
X316142Y224211D01*
X334841Y401574D02*
X334054Y402361D01*
X332480D01*
X331693Y401574D01*
Y398425D01*
X332480Y397638D01*
X334054D01*
X334841Y398425D01*
X338777Y397638D02*
Y402361D01*
X336416Y399999D01*
X339564D01*
X311220Y401574D02*
X310432Y402361D01*
X308858D01*
X308071Y401574D01*
Y398425D01*
X308858Y397638D01*
X310432D01*
X311220Y398425D01*
X312794Y401574D02*
X313581Y402361D01*
X315155D01*
X315942Y401574D01*
Y400786D01*
X315155Y399999D01*
X314368D01*
X315155D01*
X315942Y399212D01*
Y398425D01*
X315155Y397638D01*
X313581D01*
X312794Y398425D01*
X340747Y210629D02*
X339960Y211416D01*
X338386D01*
X337598Y210629D01*
Y207480D01*
X338386Y206693D01*
X339960D01*
X340747Y207480D01*
X345470Y206693D02*
X342321D01*
X345470Y209841D01*
Y210629D01*
X344683Y211416D01*
X343109D01*
X342321Y210629D01*
X232873Y278542D02*
X232086Y279329D01*
X230512D01*
X229724Y278542D01*
Y275393D01*
X230512Y274606D01*
X232086D01*
X232873Y275393D01*
X234447Y274606D02*
X236022D01*
X235234D01*
Y279329D01*
X234447Y278542D01*
X493110Y249802D02*
Y245079D01*
X495472D01*
X496259Y245866D01*
Y246653D01*
X495472Y247440D01*
X493110D01*
X495472D01*
X496259Y248227D01*
Y249014D01*
X495472Y249802D01*
X493110D01*
X500982Y245866D02*
Y249014D01*
X500195Y249802D01*
X498620D01*
X497833Y249014D01*
Y245866D01*
X498620Y245079D01*
X500195D01*
X499407Y246653D02*
X500982Y245079D01*
X500195D02*
X500982Y245866D01*
X502556Y245079D02*
X504130D01*
X503343D01*
Y249802D01*
X502556Y249014D01*
X573818Y309055D02*
X574605Y309842D01*
Y311417D01*
X573818Y312204D01*
X570669D01*
X569882Y311417D01*
Y309842D01*
X570669Y309055D01*
X573818D01*
Y313778D02*
X574605Y314565D01*
Y316139D01*
X573818Y316927D01*
X570669D01*
X569882Y316139D01*
Y314565D01*
X570669Y313778D01*
X573818D01*
Y318501D02*
X574605Y319288D01*
Y320862D01*
X573818Y321650D01*
X570669D01*
X569882Y320862D01*
Y319288D01*
X570669Y318501D01*
X573818D01*
D74*
X479986Y244129D02*
G03*
X483999Y241732I4013J2161D01*
G01*
X483653Y254331D02*
G03*
X480151Y252239I0J-3978D01*
G01*
X485045Y256020D02*
G03*
X478282Y252401I-375J-7427D01*
G01*
X478025Y244131D02*
G03*
X485045Y240043I6645J3339D01*
G01*
X511018D02*
G03*
X518038Y244131I375J7427D01*
G01*
X517781Y252401D02*
G03*
X511018Y256020I-6388J-3808D01*
G01*
X515912Y252239D02*
G03*
X512410Y254331I-3502J-1886D01*
G01*
X512064Y241732D02*
G03*
X516077Y244129I0J4558D01*
G01*
X484913Y256033D02*
X510869D01*
X484670Y240033D02*
X510928D01*
X484016Y241732D02*
X512064D01*
X483465Y254331D02*
X512410D01*
D75*
X213354Y287827D02*
G03*
X213354Y287827I-165J0D01*
G01*
X503709Y410858D02*
G03*
X503709Y410858I-165J0D01*
G01*
D76*
X537598Y314961D02*
G03*
X537598Y314961I-1181J0D01*
G01*
D77*
X474409Y252953D02*
Y257087D01*
X482283D01*
X474409Y238976D02*
X513779D01*
X474409D02*
Y243110D01*
X521654Y238976D02*
Y243110D01*
X513779Y238976D02*
X521654D01*
Y252953D02*
Y257087D01*
X482283D02*
X521654D01*
M02*
